<mxfile host="app.diagrams.net" modified="2024-04-18T21:24:20.825Z" agent="Mozilla/5.0 (Windows NT 10.0; Win64; x64) AppleWebKit/537.36 (KHTML, like Gecko) Chrome/124.0.0.0 Safari/537.36" etag="Hci43uAf0GwsGzCH5Qan" version="24.2.5" type="device">
  <diagram name="Page-1" id="xCdtjcYWZrVc6O5GS9vW">
    <mxGraphModel dx="2173" dy="1787" grid="1" gridSize="10" guides="1" tooltips="1" connect="1" arrows="1" fold="1" page="1" pageScale="1" pageWidth="850" pageHeight="1100" math="0" shadow="0">
      <root>
        <mxCell id="0" />
        <mxCell id="1" parent="0" />
        <mxCell id="rL4voDa9CR3dqEQPnQwp-12" style="edgeStyle=orthogonalEdgeStyle;rounded=0;orthogonalLoop=1;jettySize=auto;html=1;entryX=0;entryY=0.5;entryDx=0;entryDy=0;" edge="1" parent="1" source="rL4voDa9CR3dqEQPnQwp-1" target="rL4voDa9CR3dqEQPnQwp-2">
          <mxGeometry relative="1" as="geometry" />
        </mxCell>
        <mxCell id="rL4voDa9CR3dqEQPnQwp-1" value="" style="shape=image;verticalLabelPosition=bottom;labelBackgroundColor=default;verticalAlign=top;aspect=fixed;imageAspect=0;image=data:image/png,iVBORw0KGgoAAAANSUhEUgAAAZAAAAGQCAIAAAAP3aGbAAAAAXNSR0IArs4c6QAAAERlWElmTU0AKgAAAAgAAYdpAAQAAAABAAAAGgAAAAAAA6ABAAMAAAABAAEAAKACAAQAAAABAAABkKADAAQAAAABAAABkAAAAAAbMW/MAAA4V0lEQVR4Ae19B9hcVbX29DmTXkggIYRASEggBAKkkJAeQNAL3msBxIIiiiBIEVCE++iPCtJEEBWlioIVUeQipPdKAoQECEFCSIOQENLmTP/X+SLJly8z755yvpm9z3nn4XmYOWvtvdd61/nenLL2WsEtVwX4IQJEgAgYgUDICCtpJBEgAkRAECBh8TQgAkTAGARIWMaEioYSASJAwuI5QASIgDEIkLCMCRUNJQJEgITFc4AIEAFjECBhGRMqGkoEiAAJi+cAESACxiBAwjImVDSUCBABEhbPASJABIxBgIRlTKhoKBEgAiQsngNEgAgYgwAJy5hQ0VAiQARIWDwHiAARMAYBEpYxoaKhRIAIkLB4DhABImAMAiQsY0JFQ4kAESBh8RwgAkTAGARIWMaEioYSASJAwuI5QASIgDEIkLCMCRUNJQJEgITFc4AIEAFjECBhGRMqGkoEiAAJi+cAESACxiBAwjImVDSUCBABEhbPASJABIxBgIRlTKhoKBEgAiQsngNEgAgYgwAJy5hQ0VAiQARIWDwHiAARMAYBEpYxoaKhRIAIkLB4DhABImAMAiQsY0JFQ4kAESBh8RwgAkTAGARIWMaEioYSASJAwuI5QASIgDEIkLCMCRUNJQJEgITFc4AIEAFjECBhGRMqGkoEiAAJi+cAESACxiBAwjImVDSUCBABEhbPASJABIxBgIRlTKhoKBEgAiQsngNEgAgYgwAJy5hQ0VAiQARIWDwHiAARMAYBEpYxoaKhRIAIkLB4DhABImAMAiQsY0JFQ4kAESBh8RwgAkTAGARIWMaEioYSASJAwuI5QASIgDEIkLCMCRUNJQJEgITFc4AIEAFjECBhGRMqGkoEiAAJi+cAESACxiBAwjImVDSUCBABEhbPASJABIxBgIRlTKhoKBEgAhFC4CICwVjbxGk3Ro4+PdJjUCAcc3FmI6cqFPI7NmZXz0hOvTW3cbmRLtBozRAIbrlKM4uMNSfUpU+Hb0wNdT3SWA9ay/BC1t712Pnp5U+11gKc1zcI8JbQpVAHg23Pe5hsVRTNYMRqe/6joc69i0p5kAiUjwAJq3yskGak97DoUeOQhr9lQatDm7N+7G8M6L0LCJCwXABRpogcNtSdibw7S+yEz4Y6HeZd/+hZPRAgYbmDcqhTL3cm8vAs4Whi0g0e9o+u1QEBEpZbIAfdmsjD88SGfinYrpuHHaRrrY0ACau1Eeb8+xAIRhOJ8dft+81vRKBCBEhYFQJG9doQiJ9ysTyAr20OjvYvAiQs/8a+IZ4HrY7WmCsbsjQX9QACzHSvRxCTz96UnPzDeqykwRrh7kd3vH5lIFjy38L4qZfZ028vZJIaGEsTDEOg5FllmB8NNzfIh+7/iUHuvdfTy/4IAhJq1z0+8hKgQBERKIUACasUMjxePQL2jDvwYOeuMMSrewwSpUUQIGEVAcX9Q4WC+3NqPGN23dLMiqeBgbJNJz7sy0CBIiJQFAESVlFYeLBWBJLKi6xxVwd4H10rzL4bT8LyXcjr43D2zVmZ1TPAWuHuA2InnAsUKCICByJAwjoQk+qO8KF7S9zsKYrdztb4b7ccw99EACJAwoLwUFgDAplVk3MbXgYTRHqdFD3m40CBIiLQAgESVgtAWumnvx667wUx+fwP9n4v+iUx/tqix3mQCBRFgIRVFBYedAcBqTKae381mCvSd6z8BxQoIgLNESBhNUeD391GoJC3VSn+rDnjNuheno+E5eXo6uBbaukT+Q/XA0uiR58e7jkYKFBEBPYiQMLaC0VtX5hSVAq/XNqeeksp4Z7jidP/FytQSgT2IEDC4pnQ6gikFj1S2LUFLBMb9MlQ175AgSIisAcBElZdzgSfbc1pgWkhvUuR+B4KJ06/scUo/iQCByJAwjoQEx5xH4HUvPsLqR1g3viJnwt16AkUKCICggAJi6dBPRAoJD+wZ9+LVgrHrEnfRQqUEQESlmvnAB+6q6BMCWFlU0BL6jcE23YFChQRAV5h8RyoEwL5HZvs+feDxYKxtta4a4ACRUSAhFWPc6AQ8OnWnBbg2jPvDuSzLQ42/2mNvCQYb9f8CL8TgeYIkLCao8HvrYtAfutbqSWPgTWCic7WqZcDBYp8jgAJy+cnQL3dt2fcGYBJHvHRlwci8XqbxfUMQYCE5VagWA+rLCRzm1akX/4LUA116GGd8jWgQJGfESBh+Tn6jfHdnq5qUTH2qkAo3BjjuKreCJCw6hIfeBNUFws0WiS7dlHmtX8Bg0Jdjoif9AWgQJFvESBh+Tb0jXQ8WU71ZKa2NTJEmq5NwtI0MN42K/vv2XKdBXwMH3JsbPCngAJF/kSAhOXPuDfe6+RziurJ1ji2qGh8mHSzgITlUkR4/1IhkJnXnpU3hmBQ5PDh0QFnAAWKfIgACcuHQdfD5UIh+fzN2JTExBuwAqV+Q4CEVZ+Ic2tOEZwlIUty34sIPjoU6Tsm0nvYR7/4fyLA8jI8BxqIQD6XnPwjvD6rJ2N8/CblFZbfIq6Xv6kXfidVHIBN0YFnhQ8+BihQ5CsESFhuhZtbc6pCMpuyp/4EjQwGE6ffhBQo8xMCJCw/RVtLX1MLH5B6pMC02PGfDnXpAxQo8g8CJKy6xJpbc0rDXEjttGfcVVouZXEjiUnfQwqU+QYBEpZvQq2xo/a8X0pnHWBg7OTPh9ofAhQo8gkCJCyfBFprN6VrYWrOfcDEYMSyJlwHFCjyCQIkLJcCzUz32oC0Z98TyKXBHPERX5V6pECBIj8gQMLyQ5QN8DH/4frUwgeBocF4e2vslUCBIj8gQMKqT5SZ6a7G2Xn0ns8BPWvUZdJZByhQ5HkESFieD7ExDubeX51a+jgwV7oWxkddChQo8jwCJCzPh9gkB+0ZqurJY74VCMdMcom2uooACctVODlZbQjkNrycXv4UmCPU8dD48K8ABYq8jQAJy634cmuOO0ja02/HEzndoYM8bzFInpUy8J4NraGOZdfMy7wxFRgfPuio2ImfAwoUeRgBElZdgsutOZXAbKtaVCTGs3pyJYB6SJeE5aFgesWVzBvTsuteAN6Eex4fG3QOUKDIqwiQsLwaWbP9slXVk63x15rtIa2vCgESVlWwHTiIW3MOxKSGI+kVT+feew1MEDliVLTfBKBAkScRiHjSK92canP2HfJfQ6zKb9+YfWtOcsotufXLGmJAlYsW8snJP2x3we/AcGvSDXLzCBQo8h4CvMLyXkz38yjUoUfs+M90vHJBbMh5+wm0/5F+8U/5rWuAmdF+EyO9TgIKFHkPARKW92JazKNwrO25D4a79Ssm0/VYLpOcBqsnBwLWaTfqaj3tahUESFitAquGkwZjbRKfUPz962Z2evGj+Z3vAatig84Odz8aKFDkMQRIWG4F1IBMd0kFCHfr75bDdZinkEkqEt+DoQQvsuoQCW2WIGG5E4rC9g3uTNSqs8ift2kdaFLzf12wPwSoxE44N9S5N1CgyEsIkLDciSZOdHRnDTdmMe7Pu2Bvt2f9DLkejiYmfgcpUOYhBEhY7gQzs2pKdu1id+Zq1VmcP+/vtuoKrk9uz/m53BuCaWNDLwy26wYUKPIMAiQsl0KZz+16/Iv5be+4NF0rThMb+iWzOtAUdm5OzfsVQCQYTSSY+A4A8pAofP0pHvKmoa4Udr0vVcmlv4u8jwu1PUjbEijBcDQQDGZef76haFW2eG7TK9boywOhcKlh4R6DHFLL2qUUeNwbCAS3XOUNR+jFPgTkIXSnG1YHhJhKfOTB0LabDy8kt5WQ63i47Wd/HR9xMbAs+a//Tap2IILhFBmBAG8JjQhTZUbmP1ibWvQQGBO0OlhjDOtAY8+4M1DIA6fip35T7g2BAkUeQICE5YEgFnHB6UAD/7ytU6UDTZsiI3U9lHvvddmsA6wLteseP+XrQIEiDyBAwvJAEIu4kNu8Kq3oQHNQfNRlRUZqfEiRRCo7dcZeBW6ENfaMppWLAAmrXKSM00vKPRT8WKZ1oMmuW5pZ+QzwSR7exYd+CShQZDoCJCzTI1jS/tz6F8voQHNRyfFaCpLTb8N2sUUFxsd0KQnL9Agi+5Vt/hLjrwG5AmjqBsmyb87KvjkTLB7uPkDK6QAFioxGgIRldPgUxmffmptZNRkohbr2jZ94AVDQUJRUtaiwJlynodk0yRUESFiuwKjvJMoONJZ0oDGqvrOkvOY2vAQQj/Q6MTrwLKBAkbkIkLDMjV1ZlmdWz8Abs8M9josd999lzaWNkjJBNMGLLG2C5a4hJCx38dRxtuS/vo/NssYbdg+VXv633OY3gFORvmMjfccABYoMRYCEZWjgKjA78+ozuXdfBQMihw+PDjgDKGgnKuSVt7rGFaXQDmQtDSJhaRkWd40qFJLP/QBPmZh4A1bQTZpa+nj+w/XAquiAj4V7DgYKFJmIAAnLxKhVbHP65b/iDjRyAyXXWRXP28ABubQ99Va8fuK0m7ACpcYhQMIyLmRVGZzPSps/PDJx+v9iBd2kssFbSvoAq+RlQvigo4ACRcYhQMIyLmRVGpx64Xf5HZvA4OiAM6WqFFDQTVRI73b2eINPKCzNVoGcIuMQIGEZF7JqDc6m7Cm3oMHBoHEXWfa8XxZSO4BT8ZMuCHU8FChQZBYCJCyz4lWTtc491O6tYIrYcf8jue9AQTeR1CCUiu/IqnDMmnA9UqDMKARIWEaFqzZjC6mdThk88AmFE6d9D8g1FKVm3VOAlZHjw78SbNtVQ8tpUhUIkLCqAM3gIfa8XwltAQeMu4eSB3Op+b8BHgVjba2xVwMFigxCgIRlULBcMFVuCe3Z96CJ5B7KtDZ/9sy7AvkscMoa9Y1gvD1QoMgUBEhYpkTKNTtTs+8NZFNguvgwuYc6CCjoJpIUM3kHCqwKJjrHTzWsvCpwx88iEpbvoi/3UPb8+4HbUus9Me4aoKChyJ52e6BQAIY55VUjcaBAkREIkLCMCJPLRtozf4rvoeIjL5HOOi6v2prT5d5dKdn8YAXpHWvBLmFgLEX6IEDC0icW9bPEuYda/ChYL5joZI2+AihoKLLV1ZOvDoQiGlpOk8pHgIRVPlae0mxq84fuoeKjLzerzV927eLMa8+BIIW6HCHvQIECRfojQMLSP0atYqEUnEm/5LU2f8mpP8ZgWeOvNau8KnbHh1ISlg+D/h+XnQfV8GNcmz+nRcXbC4FP4UOONa68KnDHhyISlg+D/h+XpXRyZuU/gf9Nbf4uBAoaipKTb8ZWcacOxkdzKQlL8wC1rnnJ6aqLLKdFhUknSebV/8ttfAWgFuk9LHr06UCBIp0RMOlc1BlHQ22TeyjpUgGMD3frHxtyLlDQTiTlVaf8CFuVYM0ZDJDGUhKWxsGpi2m28s/buBYVL/05v+XfADynRUXvYUCBIm0RIGFpG5o6GZZZNUWa2oPFwoeeEDv2bKCgnSifS06Flb8CgcTprJ6sXdzKMYiEVQ5KHtdJPq9oUWFcL+XUksfy2zeCsEUHflzeGAIFivREgISlZ1zqalX6lX/kNq8CS0aOGBXtNwEoaCeS8qr4fYKUV51kWOUv7UBuhEEkrEagrtuahXzy+f+HjbJM+/NOLfhNIfkBcCp2wmcl9x0oUKQhAiQsDYPSAJPSL/4p/8FasLBcYUV6nQQUdBM55VVn3o2skvKqk76LFCjTDwESln4xaYhFuUxyimpfyxmG9QGz595XSO8CcMZP/qJUcQAKFOmGAAlLt4g0zJ70kt/md74Hlo8d81/hgwcCBd1EhV1bUnN/gayKxK0J1yIFyjRDgISlWUDKNCccLVOxfLVCJmlP/QnSlwfVpvVSdu4Kc2ngVHzExVKPFChQpBUCJCytwqEwRrq/tDn7jk7fX9/l9nTnm99ve/4joa5HKsZUIvbeg+r89g2phQ8BDKTWu1OMlB9DECBhGRKoQEC2Ine8cqE17ppQh55itJBXfOiXOl69JHL4cLd8kKak3ntQ7eyXzOcARNap3wzG2wEFivRBgISlTywUlrQ97+EDu5zK7Uy7LzwhnawUg8sW23N/oegDJg+qO/Qoe77GK8o2nfSyJ4AdDvWPvAQoUKQPAiQsfWKBLIke84lSqZtOIc1Rl6LBlcgKu94v40H1dZVM2XhddVGKMVcGwrHGG0oLVAiQsFQI6SFPTET91uU+0cVyxk7jQvygevhXg2266AFMWVbkNrycfuXvQDXU8dD4sC8DBYo0QYCEpUkgkBnRo8ZHjjgVaITaHyxvu4BCRaL8h+tTCx4AQ+SJj1OM1KiPPQ2+AA0ELKn8FQob5ZMfjSVhGRB16zT1rjenWrl7NzXJGdJLGT6oHnWpWQ+qs2vmZ96YBoIdPuio2JDzgAJFOiBAwtIhCsgG2RAT7TcRaTTJQp16xYddqFQrUyG/5U1FL+U2XeKnfrPM2TRRs1Wp/AnTKn9pAmw9zSBh1RPtatayyt4Qk5j4HRf77tkz7lD0UpbGhUb1Us68MVXK2IMYhHsONqzyF3DGoyISltaBla0wsiGmTBPd7bsnldHTy58ES0tyg3G9lO3JPwQeiciCLzfwWErrgAAJqw4gV79E4rQbK+qjZ038ros9I+xpt2HT5e2ki9d0eC1XpPKuMPfea2CqSJ+R8ooDKFDUWARIWI3FH60uV0xSswlpHCALdz86dvxnDjhc5YHs2kWZ1/4FBoe69Imf/AWgoJ1IWlRMVrSosNiiQruw7TOIhLUPC92+OdWaQpFKrUrIK8VgsNJRpfTVNWdM66WcXvaH/Advl/JXjkf7TzKr8hfwxXsiEpamMZUnRFKtqQrjwj2Oiw06p4qBRYdk/z1b0UtZnrIN/nTRsZoezGeTuCiFPMkqI49EU++8bhYJS9MIO30fqn0H5245Y3WLCtMeVKcXP6Ko/DXonHD3AZqeGf42i4SlY/xl40t8+Fertixy2MnRgWdWPbzFQHmMldu4vMXB5j+dTLGBZzU/ovl3p/LX9DuQkcEQn2QhfBonI2E1DvvSK1vjrsZ55LnNb5Qe7Uic14tufeRBtapFhZMCZtQnNf9+3KIiPuS8UOfDjfLJF8aSsLQLs1NSDldfyOd2PvAJRXNjV1/Pp5f/Lff+aoBU5MjRkb5jgIJuooK93Z79c2RVOJqQu3J+NEOAhKVZQOSJr9STg0V7U0t/L20Elc2NLRebG+dztiobIDHxBu2ghAbZc+4tpHcDldiwL4fadQcKFNUfARJW/TFHKwYjVhxX7C0U9uRzphb/Nr9tHZjLqfHQZyRQqEiUWvq4VHEAQ6IDzpCm9kBBN1Fh5+bUgl8Dq6Rij9ybAwWK6o8ACav+mKMV46d8TWrFAA3ZLpPbtMJRyKXtabcCTRG5+SRLlpt6i2q5m7CCblJbilLkMsCq+MhvBK2OQIGiOiNAwqoz4HC5UET5T3rzuk6pBQ/md2wCM8q7QhdzIFOLHpZ6pGC52HGfDHfrDxR0E+W3vZNa/CiwKmh1sEZfDhQoqjMCJKw6A46Wk6YS+M2UZBhk1y7eO0Uha9vTbt/7s+gXy73XhfLEJ6nMBjAt5dKWFhWFfFHo9hy0Rl/hYjVXsBBF5SBAwioHpbroSO6PbHOBn+TUlveAzuv5XVvAIMl6D/cYBBQqEqXm/Urer4Eh8SHnS3cfoKCbSF5fpF/6M7Aq2K6b3KcDBYrqiQAJq55oo7Vkn7NsXQYazi6ZN2e2UJBW7PbMu1oc3O+ndD+dpC5Yut+Q0j8K9of2rJ+VlgcCkg1gWk6WeqfO2KvFL+Q1ZfVCgIRVL6RV6yizfpJTipcZsOfcJzwCpneo0L1HS6k5P5dMcbTc0AvNygbIrV+WefX/gEdyzVjdvk4wJ0XVIUDCqg43l0dJF6/woUPApLn1L2Zee66ogvqqx9WNJrILT24Mi1qy56CTDSANHYz6HHiv3cJ85249yD+WFqg04Cdj0ADQD1xSeRuVhKUy5TZN0f30pAukutaB61Z3xJ75U0U2wClfDyY6VTd5Q0Y13W7PAks3FRozqigFcMZkEQmr8dFr6uI1CtjhPBhe/jegUNi9VdH9NBRRciKYv4XIyQZY9HCLg81/OtkAOP21ubYe39U7Byag1pB6OOF9K0hYjY+xsvqSsy0GvnoXH+TRO360JD11pF2oW97aM+7EJjkbjGJt3FquDvM4RSnWvwgWivQ60cUaGGAhigACJCwATj1Eyi5e+Q/WppY9oTQlv+Pd1Hy00US6Fjo1tlz6OBd9y/4AJgu2PUjSxIGChqJSrzX2mpqYYFhRir2We+YLCavBoVR28XKeB8PtI3sdcHIgcYv5ERfjfT97pyrnS1LZokK6Q7vX27Uck2rUSb/8JK7bIxUppC5FjatweC0IkLBqQa/WseGDj8FdvOS6KQ2fFjW3wGkxv/Ch5kdafG/azXtNi4NV/8xteEma0IDhcgcaH/4VoKCdqJBX75eUvkT8NA4BElbjsHc2JysaRkg3U9l/U76JzlVPPgv0nd28bboAhYpEyj5gCclvCIUrmrOxyqkXfq+ogTHwzHDP4xtrpJ9XJ2E1LPrKLl6F5LbUvPsrsi+/9S1Fi/l4O0vu1Fz6ZNfMk3bKYLJQ176xIecDBe1EUpRiuqIbo/PPDD8NQoCE1SDg5fJK1cXLnnV3IbWjUvvsKbco3t+NvtzFkinqwn7ypN+9tmOVolGFfmrhg4qiFIM/Fe7Wr4qZOaR2BEhYtWNYzQzKLl7OJsE5sIZviWWb3t/9sYTQOSxsJTkHQKEiUWb19Ow7S8CQprZjnwQKuomkKIWTGQs+snOArwsBPq0pImG1Jrql51Z28ZJEUFyGofTcgeTUHwcKBaAgd4XBWFugUJFI2aLCMi3l0hbw4bVt/OTPu5jUVhHaPlcmYTXgBAi27RofcTFaOJuyZ96NFKAst/EVnBnvGDDKtSSpzMp/5t5dCSyKHD482v80oKCbyHl6OOc+ZJWrSW1oIcr2R4CEtT8edfmlvMCRxyj57RtqscWe8mM83Bp3jdSPxzrlSp0+YDdjZeMeVDsPEOH72fjwiyQ5FntNqesIkLBch1QxYTldvJKy8aW2T3bdC4qSKe0PiY+ovldrC+vSL/1FXlC2ONj8Z6TvWLnOan5E8+/OzoEFDwAj5Z7aGnslUKCoNRAgYbUGqmhOdRevF36Hew6i2ZvJcIEHUXSeo7mViZ7PJlXXdInTjGtRcSdOapP2kfLPTzPI+bXVESBhtTrEzRcov4tX81HVfc+uma9Ikup0mFSRr27yA0elljyW377xwON7j0g7e3ljuPen/l/yW9dIHimwU9pHxnHLWzCYoqoQIGFVBVu1g8rq4gUfYFe0sg2raMlUTs2ZUKSiOUsqy4uCaT8pKRWBFGt2ryMGWsg9mZPKr3jfeqVrjwLdM9vDM5Gw6hjccFQedeP17APaTGB9LM2snpF9ay7QCXU9Mn7i54BCRSIn5XL3VjAkNvhTkvsOFHQTydtP/L415DwKvEg3sz1sDwmrfsGVuuC4o4zTxQsmYVZha3Ky4v2dJQn3LhX/laqnTmtS8AmFE5NuAHINRcputdY42S/p0lWqhv5rZhIJq14BqaqLV+3GSSV4TILh7gNix7tW/Lcp5XInMNu4lEtpBJl5/XngUahLHxevUsFCFAkCJKw6nQbVdfFyxTj1kyzpA+bSdr9C8gN7zr3IbCfl0rBaw8oXoNbE690CEEFHGQmrbudAQvVXqix3WbWp6RX/yG1cDoaHew6OHXs2UKhIlJp1j8dSLqUdZPbtBQAEp67ZIJP2SwJfNBfxCqseAWrq4nUCWAl08QKjyhVJJrrqdaGLHe3zOzal5v8G2Ca13q1xVwMFDUVJKasPP5Zp7WOhN/oKSVj1iI2yY42SUGq0UjLRc++9DiaJHHZydMDHgEJFIqcZNawjaEkdQatDRXM2Vjnz6jOyQxPYEOk9zKz9ksAXnUUkrFaPjrqL13uv43fnLpgoxX9LNI7eO7mLSVJOyuXi3+6d+cAv0rXQOvXyA4/re0SuUqUGBvw471v5aWUESFitDLDsgFEVqHQ2Kqu6eNVuZWrpE3jHT+SIUdGjxtW+0J4ZpLgzTrmMj7lCasy7tVwd5km/+CcMoPMvk1H7JesAmutLkLBch3S/CZ1brX4T9zu0/48yu3jtP6iqX7LdT5WVarm33S/37qvpl/4MDA216y55/0BBO1E+pwQwIe9b+WlNBEhYrYmuXF6drtjxW34Xr9oNTS1+VNFhod+ESJ9Tal9ozwyKnToCztirA+GoW8vVYZ7Ukt8q9kse84lwj0F1sMS3S5CwWjH07nbxcsFQ6bCAt/s5jXxudGGhpimy65ZmVj4DZpO8fxd3X4OFXBPJfsnpd6DZZL8k+4AhgGqVkbBqRRCMd/74YUJmpV28wFpliqTGk6QdAGWpqSA92YFCRaKkih+t8de6tTGoIsOqVk4t+LViv+QJ58oOzarn50CMAAkL41O9VM5ayW4H4yUpvNIuXmC2MkWS0mmrqgO6mJOV/fdsyboEtoW79ccogbENETn7JWffg5aW/ZKqJGE0nDKIAAkLwlODsKlySxhMYM/6Ge50AMbWIkrN/SVubyFJ2y4+iFHuazHuz9uefa/QFgiB3OdKVySgQFHVCJCwqoYODQx16Cm1GYBG1V28wJxlipylFW2s5EGMazUVZOdwbv0yYFv40BOix/4XUNBNJLeEqXm/QlZF4so6Qmg4ZaURIGGVxqYGiTXh2kAkDiaopYsXmLZMkXQ8LNgfAuXYkHPlZg0oVCRSt6gw7R7KYfxsCoAQP+XrUo8UKFBUHQIkrOpwQ6PK6+IFW3Wi6V2QCVvZs+CDGCmG417edvqVvys2Bjk5q+NdcKxeU0hPo9TiR8BqwXg7a8wVQIGi6hAgYVWHGxpVXhcvVP4cze6SzJ4tT9Dgg5iTPi+VntxZrYyNQZZphf2S024P5HMAH9l75GK3WrCQr0QkLJfD3dTF6zI0qWSc41weNNg1mTx3T837JZouFFHu2UbD95ellv1Bcvr3P7bfr2j/SbIrYL9Dev/Ib3kzvewPwEbnQnvkJUCBoioQIGFVARoa0tTFqxPQkEYsuIUfGOuuSPIbCpkkmDM+9ELXGrLnMsmpt4C1RORiOgVeyC2pk2WGW1RIFR23Gqm5ZbTh85Cw3AxgPbt41W53U69QVLhK3hs4iZ0ufdKLHpEVwWRSRFD2BgAF3URSFjG98mlglfOyeNiFQIGiShEgYVWKGNKvcxcvZEp5Mnv67YFcGug6HrXrDhTKFzXlrKr2tZj2JEvZ5Sgh3WpDKB2vfACpKQiQsNw7Derexat202UvdGrRw2AeqQDjYkqRZPYXktvAcpJOEepyBFDQTeR0q109HVglbc3MSuUHvuggImG5FoWGdPGq3frk1J/g6qDS3DjYpkvtC8kMktlvz7obTeXqk360kHsyp5wZ/CQmfAfKKawAARJWBWAhVUlckot/+FE+dYajW0sobwAUDdmdlKIr3VreyVlN7wKzGbevJbNqiqKRWs/BZqXyg+g0XETCcicEThcvmBretA14ljuLuT2LsuSpNfpyt0qwO+kUc2E6hfOk/9tuu9i686kvslhzxqUIkLDcAVK5g7f1unjV7kBu8yqp/wvmaSrB/k2gUJHI2deCn/SP+JpbN6EVGVa1cvqVp6TCKhguZRFdLD8NFvK8iITlQojlgl928IKJZPevdGAGCg0XOXyKU4rGXuVW3razr2Xhg8Dlpn0trt2EgoVcExUKtjLLzLQXoK6B4+pEJCwX4FRmhLd2F6/afZAeVrLjD8wTbHuQi3nbTq6/Yl/LZUJbwB7dRE6Pjw/eBlZJE7BIr5OAAkXlIEDCKgclpOP0SukzEmjIvt/08qeAgiYiZUd7ebQkmbGuWCvtZ1JLHwdTyS2hvJ0ECtqJZMfVtNuwVcbtl8TuNERKwqoVdk26eNXqRiCQXfdC5tVnwTyh9ofER1wEFCoS2dNvU96E4hI9FS1XB+X0wocUqfzHfTLcfUAdLPHwEiSsmoIb6T1U1cXrbXwpUdPybg9W3rpaUrjKpT43zk3o8r8BD4QfrRFfBQq6iZxUfkVlRDeL9ujmfn3sIWHVhLNyv64yLbOm5d0enF0zL/PGNDBrqNNhLva5UbbwscZ9OxCKAHt0E0kBDJzKHz/xc6HOh+tmtkH2kLCqD5YUPo8dg2r7OruLFz1U/QKNGKl+kiUk4tInu3aRFFAGk0lBrvhJFwAF3UQFe7tkxiKrQhEX95OjhTwqI2FVH1in8LmqixcupFv92q02UnbGyXUWmD7c/WgXayoo09Osid/BIANTGyJyeoukd4Ol5TmgW/vJwSpeFZGwqoysclNrU6uC+6ucvaHDUoseweu7ViRLnvS/OUvFjwNigz+F7dFKWtj1fmoBKtojb1qlJq1WNhtkDAmrymCpu3jNvqchXbyq9KfZsNiJ5zf7VeSrZH4WOVrtoeTkH+Ghlmn7WqQ/biCXAU45+8mtjkCBolIIkLBKIYOOyyVG/OQvAI2mdpv3AgVtRZHew3A/CNnHk9u0wkX7M689m9vwEphQOlFHB3wMKOgmcor2LPktsEo2ZkplWqBAUSkESFilkEHHnd25uIuXvC3avRVNoatMnVbmekH6QkF5kZUw7iJLkkgLeRBka8y3grE2QIGiogiQsIrCgg7q38ULWQ9l8jRd8d5z+0Z87QCnLylML38y9/7qkuJAINJ3TOTI0UBBN5Gzn/ylvwCrgu26xYeblGUGfKmniIRVMdpGdPGq2KumAQnpRYjfe8rlFWwgWt26sq9QXaHFtM3Dyam3YjSc63SXsnDxQl6SkrAqi6bz9GGUAV28KvOqSVsSGmNDzgMDC8kP8PsvMFYpcpoJbVsH1OQxFi6JAcY2ROSU6MBbnSQLFz4JbYjZmi9KwqosQMJWUhwKjNGnixcwsqgoMfF6nFbuZBildhQd68LBXFqZ+J447UYXFqrjFElV9WRr/HWBIP8GKwgJwaoALOnIEB8L6zRJXSTpVWfgR1IZY8O+DAyXusaKHG4wuDyR7Aoo7NwMdGPH/bekrQIF3UTZt+ZIpVlglbhjVpYZ8KU+IhJWBTjHR1yMc5TTL/8VV56sYLH6qkprHFw6JjX/fqlu3KpGSYJ4cuZdaAkpnG/a60JlIX/nuSE/ZSNAwiobKgO7eJXpmyQxKorzyf0arkNQ5koqNSn3XrA/BFpNm4d7AwXdRPIYK7f+RWBV+NAhZmWZAV/qICJhlQtyWV281r1Q7nQ66Sl7TKQWP4qfiLvljbCVPRsm3IajyvL5bhnj1jzKJ1kJ016AuoVMFfOQsMoDzdguXkr3nFapo69AaoW80yC6Xh9btjRlkmA1edaGb8zB2IaInAcFm1eBpSXFLHLEKKBA0V4ESFh7oUBfjO7ihRwLBOTBnCQxAh1pqJPb/AZQcFckz93leRmY091m1GAh10TC+KpXMbzIKhNtElZZQKnbTEjXGRM/ZTyYS6r+2Fz3255xl2Lz8MhLcHKJ6ybVOGFqyWP4njo68CyzssxqBKTq4SQsNXROF6+exwM9/bt4lTI+ftLnQ53RM+zMymfwM+NSM9dyPL/tndTiR8AMTvouvo0FgxsiymWUt9XG7ZdsCJAkLDXs6suryT9Uz6KhRjBoTbgO21X/y6s99jh/3njzsDSjjrXFxmslTS18QEplAZNix3863K0fUKBIECBhKU6DMrp4vWZEF68D/ZSURdzERZIecd7jgXO6dUSemqWX/RHM5vRJPOXrQEE3kWSZ2TPvRlY5L3auRwqUkbCU54C63MqUW/C1gHKJRiko/zyU7+Nb1XLlxZ017upAONaqNrg7uT33Pin6DuaUrYWhTr2AAkW8wkLngMe6eDV3NTrgjMhhJzc/0uK7FNXLvPavFgfr+VMMSK/4B1jRKaMItxOBsQ0RSUMdaauDlg7HZMsBUvC9LLiF1aVLnwTtLvp77NizS8sDu/5yqeIUBIMbKupw2YxI37HAhJ2Pfjb90p+BQh1EkcNHdPjWfLCQdJDedkt/3PUeDK+/KNT+4I43rcG7oFy0SopZZ99ZYk+/o1G39i76smcqXmGVhFTdxWv7xvSih0uO11gQ6XMKZivnEdLyJxvuQfbtBYo+iV2PxCVxGu5CCwOczm8LHmxxsPV+hjr0lH9x5R8nz+R5kbBKni3qLl4z75JmvyXHayxQnr5OomM+p4MH6sJ+E0zrAyYvQPPZumIbDCXOvNmskq2l8CFhFUcmJP90n/DZ4rKmo041u3m/AgraiuTKMTrw48C8/IfrJdERKNRTlHljavbthWBF50J40DlAQTdR/oO3U0sfr7dVwlnjr633oq2wHgmrOKhOFl8oXFzWdLSpmt1OoKCtSH3lKHWQc2l97FdeZFlykWXUx5bqyYVCnU0Ow3csdTam6uVIWEWgc14/Df1iEcFHh8zt4hXqcoTiynH31targ/wRfpX9P73yadxYLHL48Gj/SZVN2lBtKZqWfuWpOpsQ6tCjziu2xnIkrCKoNnUHQAk+8mbQ0C5eTXWQ8ZXj3VJctAgoDTwkfcCUtYZNq9CivGxsIN46L03CahkdJ4V6xNdaHm3+O5tyduca+Am1PyQ+9EJguHPlOOc+oNAoUfrFP0oGA1jd2ZBw+AigoJtIsg2kDIZuVulvDwmrZYyssVfiDpephQ/md2xqOcyE305SoqH9X/M5ZdesxGnfMyEI+2zc9ddLs+uW7vvNb2UgQMLaDyR1D/F8NlnHanb7GVfbj2Cic3wk3HwnV451qYNcnR9O1dPtG8BYefUZ7jkYKOgmkhr5O34+OvnMDc4Tutbo9qibw27YE3FjEu/M4XTxsjoCf5q6eK0BCtqKnDrI8fbAPKnokt++ESg0WCR15aff0eac0jfjwaC829352PkNtrOS5Z2+G1NvUTaqKHfKcLTL7Rq93i3X7Er0eIW1Dy0Pd/GSm1whrH2uHvhN7rmm1a8O8oHrl3MkNf/XuHNP7PjPhA86qpypqGMoAiSsfYHzcBcvqcQiLxP2uXrAt6an2m8ecFivA05vxFmwQksobE00LCdLL4i1t4aE9VGIpFjw+G9/9KP4/+2ptxQXaH5UXBt7NbZRWcsFD6+bVF5i4u7TToWWjofWzR4uVGcESFj/Adzp4tXpMIC+1Fox9J1Ok2uoylJmxdO5DS8D3/UROTui5v4C2SMVWjyxBwX56GMZCasp+GUUe1TmLmp6FpXVoOxWTY0vZpa8ysR7zp0+QPD+t9isPGYGAiQsJ05NXbxQOe0GFguu8TxqqhTeH0ySWT0ju2YeUNBN1FSh5QFglfOGYSzLvAGEDBaRsJzgqdtMGNrFqwzXTHwwJ/kNuEKLNepSSakz+O+SppdAgIQVUHbxkkdXmdeeKwGg1oejA88MHzoEmOg0KHv9eaCgp8ip0PLC74Bt0rVQUuqAAkWGIkDCksur7+Lg2QZfXilcS042s/9rIGBP/Qnu/RGXLVbRBI4spcYh4HfCivabIPWCQdhy75naxSvSZyQuMpnbvCq9/G/Ad51FTlxe/iuwMNSuuzx9BwoUmYiA3wnLUpUlccqAwI6e2kZduRm4qYxcXlv7lYY59sNPU5mgKFSh0DAEfE1Ykd7Dov0mgojlt65JLX0CKGgrkm3A0YFnAfPy29bhx0BgrCYi59niq88CYySxTvJIgQJFxiHga8JSNklNTrsNv43SNt7qNhNScyKX0db+Mg1Tbht2msUGfX2Sl4mkKWr+jaW6i9eOTYZ28Qp17Rsb/GlwChZ2vZ9aiFKZwFitRE5+3JuzgEnhbv1lRzRQoMgsBPxLWOpeDDPuxBnV2kZaXQd5ptRB3q2t/RUZlpz6Y6yvTLLDwynVCgGfEpZzDYK7eEkvBjO7eEnvTNk8CE4y2Txsz9WxDjKwGYgkRQ7v8QwfekL0GNTWDExOkW4I+JSwnH91cRev2fdIgXPdolWOPdZ4VR3kub8oJLeVM5UpOspEOeUTPVM8pZ1+JCwPd/EKtumCO2jITa49E5aUMvBvIr38KUnLAoZLSlr0qHFAgSJTEPAjYXm4i5c1+opgvB04+eQ1gqEdNIBTkihnT1GUKlMm3KH5KdMGAd8RlrKLl3MNYmYXr2CsrQfqIFf3pyHN32WDIRgb7X9axBOtj4GPfhD5jrCUXbzSCx8y9BokPvISuSUEZ2162RP5rW8BBYNF0s1IdhfCjzXJsD5g0BufCv1FWE4XL7yJ39guXgGptDkO1kGW/snTFH/SRv8RNN3tvgtciA06J3zwMUCBIv0R8BdhOV28Ep1AVMzt4hUf+iVJaACupVf8I7fxFaBguqjpXv5O5IX0AZukKF+BhlOmAQI+IqwyunjllftpNQhZMROkW8yE64oJ9h0z1bV9Hqi/SeqcFH0HerEh54W6HAEUKNIcAR8RVhldvJ7Eb8e1jaWyH1/mjWnZtxdoa79bhjk5sbPuQbOFIs42AH6MRcA3hOXhLl4erYNc3d+UPedeaV8IxsaHXhjq0AMoUKQzAn4hLHUXr1efxTs8tI2i7DsJ9zwemJd9Z0lm1RSg4CWRtIZW7KmKxK1x13jJZV/54g/CKqeLl6FNUp3LK8WDZKcGoZ8+ThpdNgU8dvpgw/wPMJaixiLgC8LycBevSN8xkSNGgXPIKSX8ylNAwXui/PYNqUUPA79kM4A15ltAgSJtEfAFYSmvQZLebTPh7FkpFLQ9/1rJsKSUJ8znwOSyJQDvYQJjKWogAt4nrKYuXoMBxOZ28ZIWXtEBHwOu5T9Ym1pmZIln4FQ5ovyWf0taP9AMJjrHR34DKFCkJwLeJyxlaRFlcRI9IydWKdMgbU/UQa4O/6S0qICXlrIxIBixqpucoxqFgMcJy+nidfgIAG7u3VcNbXUV7tYvNvhTwLX8zvdSCx8ECt4W5TatwA/vQu0PiQ3/irdB8J53HicsZVERp1E7/HdY25BbE76D2yukpA5yJqmt/XUwzAku/CTGXxsIRaAKhXoh4GXC8nAXr1CnXvGTPw9OpYK93Z77C6DgB1F27eLMqsnA01CXPvETPwcUKNINAS8Tloe7eDmpj+EYOJmkanvB/hAo+ESkzEGzpFh2MOgTNDzgpmcJS93Fa/vG1KKHTAxhsG1X3IRd7gTlftBE11y3ObN6RnbNfDBt+OCBseP+ByhQpBUCniUsdRevmYp8aK3i1NwYa/S3pLho8yMtvsuzdnni3uKgb38qk+ws1pwx5+TwJmF5uItXMN7eGv1NdILls/b0O5CCz2SZlc/kNrwEnI70Oik64AygQJE+CHiTsDzcxcupg5zoDE4gZXVzMNaroqSqRYVzPc6PCQh4kLDK6uKFqyZpGzmpNDD2KmRdoWCrSpuj4R6VpV/6c27zG8A55ZZMMJaieiLgQcKyJLkGvkFLzfslrktZzwBUtFZ82JdxLSdJlcy9u7KiOX2hLH3Apt2KPU2wRQUGSA+p1wirqYvXxQBbc7t4SatqJ9ERfpSpknC0l4WpJY/lt70DPIwOPFP2ZgIFinRAwGuE5eEuXrETzg11PRKcNFKlT1IlgYKvRbmM8l2Ecm+mrwHUw3lPEZbTxetUxRu05LTb9EC+Qiuk44ukOMIPL68gPIHUgt8Udm4GOrI3M9z9aKBAUcMR8BRhOV28rI4AU6eLF+wPDMY2VhQ95hPhHscBG7JrF0mnCaBAkeTT2jN/inCQyrSqfxXQcMpaHwHvEJZ08VK9QTO2ixfrILv0lyD7K/GOpfiJF4Q693ZpNU7jPgLeISzZrRJs1w0glH7Z1C5e0aPGRfqcAlxzSqms+AdQoGgPAsJW9pz7EBpOdyXFmw00nLJWRsArhFXGeZY0theDpWozoSxW18pnkUnT27PuLqR3A4vjwy8KtT8YKFDUQAQ8UgyoqYtXL4xjx2uWYgVDpfmta9LL/mCo8fU3W567y9N30IRCni10+sGm+hvGFctBwBNXWE6jdv+2821quJAtJ9jU2YOAPeOOQC5NNExEwAuE5TRq79bPRPRrtzm/4930QiOL5NTue9Uz5LetkzzSqodzYAMR8AJhxX1cmVve00vufgNPIEOXtqVFBewDZqhfnjfbC4QlpZA9H6eiDhaS22RfZFERD2IEcu+vlh3RWIdSDRHwAmEFAj4tcdtUB3m7hmeVESYlje0/Uh28+e0bqxuo1SgvEJYkeWuFaX2MkXfz9qyf1WctT66S2/By5tVnPOlaUady7ywpetysg14gLFuKHfvvY0+/De+M8x8kFXu8+5kb/PK6sJB33iab/wlfjzKozfAv//7qQDAc7TvWDHPdsDKz4uldT14eKOTdmMy/cxR2vic3SrFjPo47PBoPkLDVszelX/i98Y4EAl4gLAlDdvV0uTGUBOVQmy7BqGf7jxfSu+RGJvnc93f/83q+5HLlzy+3flnm9eeljFqwTedgvJ0rc+ozSX77hszq6bv+9DVvsJUAG9wCK+7qAz0tIQJEgAh44RkWo0gEiIBPECBh+STQdJMIeAEBEpYXokgfiIBPECBh+STQdJMIeAEBEpYXokgfiIBPECBh+STQdJMIeAEBEpYXokgfiIBPECBh+STQdJMIeAEBEpYXokgfiIBPECBh+STQdJMIeAEBEpYXokgfiIBPECBh+STQdJMIeAEBEpYXokgfiIBPECBh+STQdJMIeAEBEpYXokgfiIBPECBh+STQdJMIeAEBEpYXokgfiIBPECBh+STQdJMIeAEBEpYXokgfiIBPECBh+STQdJMIeAEBEpYXokgfiIBPECBh+STQdJMIeAEBEpYXokgfiIBPECBh+STQdJMIeAEBEpYXokgfiIBPECBh+STQdJMIeAEBEpYXokgfiIBPECBh+STQdJMIeAEBEpYXokgfiIBPECBh+STQdJMIeAEBEpYXokgfiIBPECBh+STQdJMIeAEBEpYXokgfiIBPECBh+STQdJMIeAEBEpYXokgfiIBPECBh+STQdJMIeAEBEpYXokgfiIBPECBh+STQdJMIeAEBEpYXokgfiIBPECBh+STQdJMIeAEBEpYXokgfiIBPECBh+STQdJMIeAEBEpYXokgfiIBPECBh+STQdJMIeAEBEpYXokgfiIBPECBh+STQdJMIeAEBEpYXokgfiIBPECBh+STQdJMIeAEBEpYXokgfiIBPECBh+STQdJMIeAEBEpYXokgfiIBPECBh+STQdJMIeAEBEpYXokgfiIBPECBh+STQdJMIeAEBEpYXokgfiIBPECBh+STQdJMIeAEBEpYXokgfiIBPECBh+STQdJMIeAEBEpYXokgfiIBPEPj//pKkOtTlgA0AAAAASUVORK5CYII=;" vertex="1" parent="1">
          <mxGeometry x="365" y="160" width="120" height="120" as="geometry" />
        </mxCell>
        <mxCell id="rL4voDa9CR3dqEQPnQwp-2" value="" style="shape=image;verticalLabelPosition=bottom;labelBackgroundColor=default;verticalAlign=top;aspect=fixed;imageAspect=0;image=data:image/jpeg,/9j/4AAQSkZJRgABAQEAYABgAAD/2wBDAAMCAgICAgMCAgIDAwMDBAYEBAQEBAgGBgUGCQgKCgkICQkKDA8MCgsOCwkJDRENDg8QEBEQCgwSExIQEw8QEBD/2wBDAQMDAwQDBAgEBAgQCwkLEBAQEBAQEBAQEBAQEBAQEBAQEBAQEBAQEBAQEBAQEBAQEBAQEBAQEBAQEBAQEBAQEBD/wAARCAGQAZADASIAAhEBAxEB/8QAHwAAAQUBAQEBAQEAAAAAAAAAAAECAwQFBgcICQoL/8QAtRAAAgEDAwIEAwUFBAQAAAF9AQIDAAQRBRIhMUEGE1FhByJxFDKBkaEII0KxwRVS0fAkM2JyggkKFhcYGRolJicoKSo0NTY3ODk6Q0RFRkdISUpTVFVWV1hZWmNkZWZnaGlqc3R1dnd4eXqDhIWGh4iJipKTlJWWl5iZmqKjpKWmp6ipqrKztLW2t7i5usLDxMXGx8jJytLT1NXW19jZ2uHi4+Tl5ufo6erx8vP09fb3+Pn6/8QAHwEAAwEBAQEBAQEBAQAAAAAAAAECAwQFBgcICQoL/8QAtREAAgECBAQDBAcFBAQAAQJ3AAECAxEEBSExBhJBUQdhcRMiMoEIFEKRobHBCSMzUvAVYnLRChYkNOEl8RcYGRomJygpKjU2Nzg5OkNERUZHSElKU1RVVldYWVpjZGVmZ2hpanN0dXZ3eHl6goOEhYaHiImKkpOUlZaXmJmaoqOkpaanqKmqsrO0tba3uLm6wsPExcbHyMnK0tPU1dbX2Nna4uPk5ebn6Onq8vP09fb3+Pn6/9oADAMBAAIRAxEAPwDhKKKK/ps/rUKKKKACiiigAooooAKKKKACiiigAooooAKKKKACiiigAooooAKKKKACiiigAooooAKKKKACiiigAooooAKKKKACiiigAooooAKKKKACiiigAooooAKKKKACiiigAooooAKKKKACiiigAooooAKKKKACiiigAooooAKKKKACiiigAooooAKKKKACiiigAooooAKKKKACiiigAooooAKKKKACiiigAooooAKKKKACiiigAooooAKKKKACiiigAooooAKKKKACiiigAooooAKKKKACiiigAooooAKKKKACiiigAooooAKKKKACiiigAooooAKKKKACiiigAooooAKKKKACiiigAooooAKKKKACiiigAooooAKKKKACiiigAooooAKKKKACiiigAooooAKKKKACiiigAooooAKKKKACiiigAooooAKKKKACirFjp+oapOLXTbG4u5m6RwRNIx/BQTXdaL+z58bPECq2m/DPXgrfda5tjbKfoZtoIrCtiqGGV601H1aX5nPXxmHwqvXqRj6tL8zz2iveNL/Yp+POoAG60XS9Mz/z9alG2P8Av1vrp7H9gP4nSgHUvF3hi3z2ie4lI/OJa8upxJlNL4sRH5O/5XPIq8VZLR+LEw+Tv+Vz5gor64tv+Ce+vN/x+fE2wi/656a7/wA5Fq4n/BPOY/6z4uIv+7oRP/twK5Xxhksf+X//AJLL/wCROOXHGQx3xH/ks/8A5E+O6K+wpP8Agnncj/V/FqJv97QyP/a5qjdf8E+fEqZ+xfEjTJf+uthJH/Jmojxfkstq/wD5LL/5EceN8hltiP8AyWf/AMifJdFfTOofsD/FeAFtP8TeF7oD+Fp542P/AJCI/WuV1X9jP4+6apaDwvZ6iq9fsupQZ/KRlJ/AV10uIsprfDiI/N2/Ox2UuKMmrfDiYfN2/Ox4hRXb638Efi94dVpNX+G3iGKNPvSpYSSxj6ugK/rXFzQzW8jQzxPHIhwyuuCD7g9K9SliKOIXNSkpLyaf5HsUcTRxK5qM1JeTT/IZRRRWxsFFFFABRRRQAUUUUAFFFFABRRRQAUUUUAFFFFABRRRQAUUUUAFFFFABRRRQAUUUUAFFFFABRRRQAUUUUAFFFd18K/gx48+MGqNp/hHS91vCwF1f3BKW1sD/AHnwcn/ZUFj6Y5rGviKWFpurWkoxW7ZjiMTRwlJ1q8lGK3b0Rwtd58P/AIG/FL4msknhPwjeTWjH/j+nHkWw9cSPhWx6Lk+1fbfwp/Y++GPw9WDUdetR4o1pMMbi+jH2eNv+mcHK/i+48ZGK91VVjURxqFVRhVAwAK/Pc04/p026eXw5v70tF8lv99vQ/Ms38SqdNunllPm/vS0Xyju/m16Hxv4K/wCCf8rKlx8Q/HIQn71ro8WT/wB/pR/7T/GvbvCv7KfwL8JqjReCYNUnXrNqsjXRb6o37v8AJRV7x1+0l8G/h+ZbfWPGVrdXsWQbLTv9Km3D+E7Mqh/32WvB/F3/AAUDXLw+A/ABI/gudWuMfnDF/wDHK8NS4oz7WPMov/tyP6X/ABPnlPi7iP3o86g/+4cf0v8AifXWl6No+h2ws9F0qz0+3HSK1gWJB/wFQBVyvzb8SfthfHjxEzLF4qh0iFv+WWm2ccePo7BpB/31XmuufELx74mZm8ReNNc1Ld/DdahLIv0AZsAewrqoeH+Oq+9iK0Y37Xk/0/M68P4aZhWfNiq0Y37Xk/0/M/VbVPGXhHQ2K634q0fTyvUXV9FFj/vphXL337QHwT01itx8UvDjEf8APC+Sb/0WTX5Y0V6tPw7w6/iV5P0SX+Z7NLwwwq/i4iT9El+dz9Nbn9qz9n61OJPiRat/1zs7mT/0GM1Tf9sD9ndf+agFv93Sb3/4zX5rUV1Lw+y3rUn98f8A5E64+GeVL4qlT74//In6Vp+19+zvJ/zULaf9rSr0f+0avWv7UnwBvMeT8SrBc/8APWCeL/0NBX5jUUpeH2XfZqT++P8A8iEvDPK38NWp98f/AJE/VbT/AI4/BvVMCz+KHhgseiyapDGx+gdga6nTde0PWl36PrVjfr1zbXCSj/x0mvyAp0ckkLrJFIyOpyrKcEfQ1yVfDui/4Vdr1in+qOGt4X4d/wAHENesU/yaP2MrJ13wn4X8UQm38SeG9L1WIjbtvbSOYY/4GDX5baD8X/ip4ZZf7D+IXiC1RekS6hI0X4oxKn8RXp3hn9tr44aEyrql9pevRDgrfWKo2PZodhz7nNeVW4CzHDvnw1WMresX+v5nj1/DfNMM+fCVoya9Yv8AVfifUXiv9jf4F+Jlke18P3OhXD/8ttLumQA/9c33RgfRRXhfjb9gbxdpyyXXgPxZZawi/Mtrexm1mx/dVgWRj7nYK7Xwf+374UvmS38ceC9Q0tjwbiwmW6j+pVtjKPpuNe+eBvjF8M/iQg/4Q3xjp9/MRk2pcxXA9cwuA+PfGK53jeJsg1rcziv5vfj9+tvvRyvH8W8N61+ZwX83vx/8C1t96PzE8Z/D/wAafDzUV0rxp4bvdJuHBMYnT5JQOCUcZVwMjlSRzXPV7D+1Z8R/+FifGDVHtJ/M0zQ/+JTZYPykRsfMcdjukL4PdQvpXj1fq+XVq2IwtOtiIpTkk2l0ufs+V18RicHSrYqKjOSTaWyv6hRRRXadwUUUUAFFFFABRRRQAUUUUAFFFFABRRRQAUUUUAFFFFABRRRQAUUUUAFFFFABRRRQAUUUUAes/s8fAbVPjb4oaKWSSz8PaYyvqd4o+Yg9IY88GRsHnooyTngH9IPC/hbw/wCC9DtvDnhfSYNO060XbFBCuAPVierMepY5JPJNcf8As+/D+1+G/wAJtA0GKBUu57ZL7UGxy9zMoZ8+u3IQeyCvLv2wP2gtQ+HNjB8P/Bt41vr2rQeddXkZ+aztSSoCHtI5BweqgZHJUj8ZzXGYvizNPqWGfuJtRXSy3k/68lrv+E5zjsbxnm/1DCv92m1FdLLeb/rbRa79T8av2q/AfwlebQ7P/if+I0GDY20gEdu3/TeTkKf9kAt6gA5r4s+Jn7R3xW+KUksOteIpLLTJMgaZpxaC32+jAHdJ/wADLe2K8zd3kdpJGLMx3MzHJJPc02v0LJ+F8BlMVJR56n8z/RdPz8z9MyPg/LslipKPPU/ml+i2X5+bCiiivpD6oKKKKACiiigAooooAKKKKACiiigAorS8N+HtU8WeINP8M6Hbme/1O4S1t07F2OASewHUnsATX3FoP7BfwvtdLgj8Q+IPEF9qGwfaJreeOGIv32IY2IH1YmvFzbPsFkvKsVJ3lskrv1PBzriTAZDyrGSd5bJK7t3PgunRySQyLNDIyOjBlZTgqR0II6Gv0C/4YT+Cv/P54m/8Do//AI1R/wAMJ/BX/n88Tf8AgdH/APGq8b/XvKf73/gP/BPC/wCIi5L/AH//AAH/AIJ+fhJYlmJJNJX6Cf8ADCfwV/5/PE3/AIHR/wDxqj/hhP4K/wDP54m/8Do//jVH+veU/wB7/wAB/wCCH/ERcl/v/wDgP/BPz7or9BP+GE/gr/z+eJv/AAOj/wDjVH/DCfwV/wCfzxN/4HR//GqP9e8p/vf+A/8ABD/iIuS/3/8AwH/gn590V+gn/DCfwV/5/PE3/gdH/wDGqP8AhhP4K/8AP54m/wDA6P8A+NUf695T/e/8B/4If8RFyX+//wCA/wDBPz7or9BD+wn8Fcf8f3icf9v0X/xqvlv9pP4DL8DfE1hb6bqk1/o2sxSS2UlwFEyNGVEkb7QAxG9DuAGd3QYr0Mt4py7Na/1ehJ8z2urXsenlPGGV5ziFhcPJqb2TVr21dvlqeP0UUV9GfUBRRRQAUUUUAFFFFABRRRQAUUUUAFFFFABRRRQAUUUUAFFFFABRRRQB+xiKsaLGgwqjAHoK/PD9trQtU0z44XerXiubTWLG1ns3P3dqRiJ1B9QyEkf7Q9RX6I15/wDGn4N+HfjV4Tbw/rTG2vLdjNp1+i5e1lIx0/iRuAy55AHQgEfgvDObQyfMFXrfC04vyTtr96+4/nDhLOqeR5ksRWXuSTjLyTs7/JpfK5+WNFdn8TvhJ44+Emtto3jDSWiVyfs15Flra6UfxRvjn3U4YZ5ArjK/daNeniaaq0ZKUXs0f0VQxFLFU1WoyUovZrVBRRRWpqFFFFABRRRQAUUUUAFFFFABRRWp4X8Oap4w8Rab4X0WDzb7VLmO1gXtuY4yfQDqT2AJqZzjTi5SdkiZzjTi5zdktWfU37CPwp+16hqHxa1a2/dWW7T9J3L1lZf30o/3VIQH/bf0r6w+Ivj3RPhn4N1Hxp4gZzaadGG8uPHmTOxCpGmSASzED8z0FS+AvBul/D3wdpPg3Rlxa6VbLAGxgyP1eQ+7MWY+7Gvjn9un4rf214msvhbpNzus9Dxd6jtPD3br8iH12Rt+chB5Ffi8VPi/Pdf4f5Qj/n+bPwaEanG/EV3f2f5U4/k3+cj0D/h4B8Pf+hJ8Rf8AfUH/AMXR/wAPAPh7/wBCT4i/76g/+Lr4Wor7z/UjJ/5H/wCBM/Rv+If5H/z7l/4Ez7p/4eAfD3/oSfEX/fUH/wAXR/w8A+Hv/Qk+Iv8AvqD/AOLr4Woo/wBSMn/kf/gTD/iH+R/8+5f+BM+6f+HgHw9/6EnxF/31B/8AF0f8PAPh7/0JPiL/AL6g/wDi6+FqKP8AUjJ/5H/4Ew/4h/kf/PuX/gTPun/h4B8Pf+hJ8Rf99Qf/ABdavhT9tzwf4x8S6X4V0fwL4he91W6jtIctDgM7Abmw/CjqT2ANfANfUf7B/wAO/wC2vGup/ES+t823h+H7NZsw4N1MCCR/ux7gf+ui15ub8MZLlmBqYpwfurT3nvsvxPKzvhHIcoy+rjJU3eK0956t6Jfefddfnr+2x8Ql8XfFgeGbOYPY+FIPsfHINy+HmP4YRCPWM19z/EbxnZ/D3wLrfjS+2mPSbN51RjgSS9I4/wDgTlV/4FX5O6lqN5rGpXWralO093ezvcTyt1eR2LMx9ySTXj8AZd7XETx0lpD3V6vf7l+Z4fhrlftsTUzGa0guWP8Aie/3L/0orUUUV+sH7MFFFFABRRRQAUUUUAFFFFABRRRQAUUUUAFFFFABRRRQAUUUUAFFFFAH7HVxdj8XfA978Q9W+FsmqLaeIdKaH/RrjCfalkhSUGE5w+BIAV+9wTjHNdpX5r/tdySQ/tHeKpoZGR0bT2VlOCpFjbkEHsa/BuGsnp55iamGqScbQbTXe8V81qfzlwpkVLiDFVMLUk42g5Jro1KK1XVas/RfxB4d0LxVpU+h+JNJtdSsLgYkt7mIOjehwehHYjkdq+XfiZ+wbomoyS6l8LfEB0qRssNN1EtLb59ElGXQf7wf6ivL/hT+2p8QvBKQ6T40h/4SrS48Ksk0my9iX2lwfM+jgk/3hX1j8Pf2l/g/8R1ih0vxVDp+oSY/0DVMW027+6pY7HPsjNXpSwGfcKzc6F3DvH3ov1XT1aXkz1Z5bxJwdUdTD3dPvH3ov1j09Wl5M+AvHXwF+LXw6MknibwXfpaRZze2yfaLbHqZI8hc+jYPtXAV+xvWuH8XfA/4SeOS8nibwDpNzNJ964ih8idvrLEVc/ia9nBeIf2cbR+cX+j/AMz3cv8AE6yUcfQ+cH/7a/8A5I/KqivvfxJ+wZ8LdSZpfDuva5ort0QyJcwr9AwD/m9ea65/wT98ZW7N/wAI34+0a+Xt9tt5bU/+OebX0uH4yyfEb1OV/wB5NfjqvxPrMLx3keJ3q8j7Si1+KuvxPlKivddV/Yr+PensRa6Dp2pgfxWupQrn/v6UNcvffsz/AB404lbj4Z6s+P8AngEn/wDRbNXrU86y2t8FeD/7eX+Z7NLPsrr/AMPEwf8A29H8rnmVFdpcfBX4w2p/ffCvxYPddHuGH5hCKqP8K/ifH/rPhx4oX/e0e4H/ALJXUsZhpbVI/ejsjj8LL4asX/28v8zlqK0NY8P6/wCHZ47XxBoeoaZNKnmRx3ls8LOuSNwDgEjIIz7Vn1vGUZrmi7o6YzjNc0XdBX17+wh8KftF7qHxc1a2/d2u7TtJ3L1kI/fSj6KQgP8AtSDtXyx4U8M6r4y8Sab4V0SHzb7VblLWFewLHG4+igZJPYAmv1b8C+D9L8AeENJ8G6KmLTSrZYFbGDI3V5D/ALTMWY+7GviOOc2+p4NYOm/fqb+Uev37elz8+8Qs6+o4FYGk/fq7+UVv9+3pco/FPx/p/wAMPAOseNdQ2sNPgJghY48+dvlij9eXIBx0GT2r8qNY1bUNf1a91zVrlri91C4kuriVuryOxZm/Ek19Nft0fFb+3vFNn8L9Jud1loOLrUNp4e8dflU+uyNvzkYHpXyzWvBOU/UMD9ZqL36uvpHp9+/zRtwBkv8AZ2X/AFqovfq6+kfs/fv812CiiivtD7wKKKKACiiigAr9Qv2c/h3/AMKz+Eeh6DcQeXqFzH/aGoAjDfaJgGKn3Rdif8Ar4R/Zm+Hf/CyPjBoul3Fv5unac/8AamoAjKmGEghT7M5RD7Ma/TiSSOGNpppFSNFLMzHAUDkknsK/MfEDMbunl8H/AHpflH9X9x+SeJmaXdLLab/vS/KK/N/cfJH7fHxE+y6VonwxsZ8SXrf2rqCqefKQlYVPsz72+sa18VV3Hxq+IEnxO+J2veMPMZra5uTFZKf4bWP5IuOxKqGI9WNcPX2nD2Xf2Xl1PDte9a8vV6v7tvkfe8M5X/Y+V0sM171ry/xPV/dt8gooor2j3gooooAKKKKACiiigAooooAKKKKACiiigAooooAKKKKACiiigAooooA/Y6vzV/a//wCTivFv/bh/6Q29fpVX5q/tf/8AJxXi3/tw/wDSG3r8e8Pv+RnU/wCvb/8ASon4d4Z/8jap/wBe3/6VA8bor7E/Yi+CVpfWd78VPFelw3MFysmn6TBcRB0dDlZ5irDBB5jH/bT2rvPiZ+xF8N/F0k2peDLqbwrfyZbyoU82zZv+uRIKZ/2GCj+7X2uJ4xy/B46WDrXSjpzLVX6rvp89T77F8c5bgcxngK90o6OS1V+qstdPK+t+x8b+C/jd8Vvh+scXhXxxqdrbx/dtZJPPtx9IpAyD8BXt3hX9vzx3p4SLxd4P0nWEXgyWsj2cp9znepP0UV5946/ZK+NngfzJl8Nf29ZJ/wAvOjsbjI94sCUf98Y968gurS6sbh7S+tZbeeI7XilQo6n0IPIrslgclz2PtFGFTzW/zas/vO6WXZBxFH2qhCpfrHf5uNn9596eHf28PhPqW2PXtH17RpD95jClxEv/AAJG3n/vivR9H/aW+BOuBTZ/EzSIt3a8ZrTH185VxX5fUV4+I4By2rrSlKHzTX4q/wCJ4eJ8N8pra0ZTh6NNfir/AIn676T4v8J68A2h+KNJ1EN0+yXsU2f++WNa9fjjWhY+INe0zH9m63f2mOnkXLpj/vkivKqeHX/PvEffH/7b9Dx6vhcv+XWK++H6836H6/UV+TkPxY+KdsoW3+JXiqJR0Cazcrj8nq3H8bvjJF934reLj/vazcN/N65X4d4npWj9zOOXhhi/s4iP3M91/wCCgUG3xt4Wusf6zSpY/wDvmYn/ANmr5Ura8TeNPF3jKaC48W+JtU1mS2UrC19dPMYweSF3E4BwOlM8I+F9V8aeJtM8J6JD5l9qtyltCOwLHlj6KoySewBr9BynCPKMvhh60k+RO76btn6ZkuCeS5ZTw1eSfs07vpa7f5H1V+wf8KfOuNQ+LmrW3ywbtO0jcP4yP38o+gIjB/2pB2r6f+K3xB0/4X+ANY8aX+xjYwH7PCx/19w3yxR+vLEZx0GT2rS8EeEdK8B+EtK8H6LHts9Ktkt0OMFyOWdv9pmLMfdjXxh+3N8Vv+Eg8WWnwx0m53WPh/FxfbTxJeuvCn18tDj6yOD0r8spRnxdnvNL+Hf7oR6fP82fjtGM+NuIuaX8O9/SnHp8/wA5HzPq2qahrmqXmtarcvcXt/O9zcTN1kkdizMfqSaqUUV+0JKKstj96jFRXLHRIKKKKYwooooAKKK1vCfhvUPGPifSvCulLm71a7itIuOFLsBuPsM5PsDUznGnFzk7JEznGlFzm7Jas+3f2Ffh3/YHw/vvH19Btu/Ek/l25Yci0hJUEem6TzPqFQ12P7XPxE/4QH4O6jb2s/l6j4iP9k2uD8wVwTM3rxGGGexZa9Y8N6Bp/hXw/pvhnSY/Ls9LtYrSBe+xFCgn1Jxkn1Jrxv8AaG/Zv1z4663pd6vjyHSNP0m2aKG0bT2m/eu2ZJN3mL1CxjGP4Pevw2jmGHzHPPr2Oly0+bm2b0XwrS/ZJ/M/nmhmWFzTiH+0Mxny0ubm1TekfhjZJ9kn8z856K+v/wDh3rqH/RVbf/wTt/8AHqP+Heuof9FVt/8AwTt/8er9P/1wyX/n/wD+Sy/+RP13/XjIP+gj/wAln/8AInyBRX1//wAO9dQ/6Krb/wDgnb/49XOePP2FfGXhbw3ea/4e8W2evyWMTTyWf2NreV0UZby/mcM2BnacZ7c4BulxZk9aapxrq78pL8WrGlLjPI601ThiFd6aqS/FxSPmOiiivoj6cKKKKACiiigAooooAKKKKACiiigAooooAKKKKACiiigAooooA/Wn4a+LLXx14B0DxbaSB11OwimfB+7LtxIh91cMp9wa+Rf25vhLqln4mi+LWl2rz6bqMMVrqTKufs9wgCRu3oroFUHoGXB+8Kzv2O/2g7PwLfN8NfGV8sGialP5lhdythLO5bgq5P3Y3456K3J4Ykfc+oafp+sWE+manZw3dndxtFNDMgeOVGGCrA8EEV+K1FiODc4dRRvB3t/eg+l+60+a7H4JVWJ4Fz11VG9N3t/eg+l+60+a7H5u/CP9qb4mfCeGDR4bqPW9Bh+VdNvif3S+kUg+aP6fMo/u19afDz9sn4P+Nljtta1CTwtqDYDQ6lgQE/7M4+THu+z6V438bv2I9W02a48RfB/df2JzJJo0sn+kQ9z5LtxIv+yx3ccFya+VdR03UdHvptN1awuLK7t22TW9xE0ckbejKwBB+tfZyyvIuKoPEYf3Zvfl0kv8UdvnbXufdyyfh3jKm8ThvdqPdx0kn/ejt87a9Gfr9Y39jqdrHfabeQXdtMN0c0EiyI49Qykg/hXz3+3JqGjab8IFiudNsptS1TUILO1nkgRpoVXMrsjEZXiMKSP7+O9fDHhjxz4y8F3BufCXijVNIcnc32O6eNX/AN5QcN9CDW58QvjP8RPipYaVp/jnXF1FdHaVrd/s8cTEyBQd+wAMQEGCRnk+tedgOB62X5jSxEaqlTi7vdPTbTVb76nmZb4fV8szSjio1lKnGV3upaarTVPW19Th6KKK/SD9TCiiigAooooAK+xP2D/hTvk1D4uatbcR7tO0jcO//LeUfhiMEesgr5U8H+FdV8ceKNL8I6JFvvdVuUtovRdx5Zv9lRliewBr9W/BfhPSvAvhTSvCGix7LLSrZLePjBfA+Z2/2mbLH3Y18Lxzm31TBrB0371Tfyj1+/b0ufnniHnX1LArA0n79Xfyit/venpcyfi18QrH4W/D/V/Gl9sZrKErawsf9fct8sUfrgsRnHRQx7V+Veqanfa1qV3rGqXL3F5fTvcXEz/ekkdizMfckk19LftyfFb/AISLxha/DTSbndYeHf317tPEl669D6+Whx7F3B6V8v1vwVlP1DA/WKi9+rr6R6ffv8/I6OAcl/s3LvrVRe/V19I/ZXz3+a7BRRRX2Z92FFFFABRRRQAV1Hwx8bSfDnx/ofjaO0F0NJu1mkhzgyRkFXUHsSrNg9jiuXorOrSjXpypVFdSTT9GZ1qMMRTlRqK8ZJp+j0Z+k2n/ALYX7Pt7ZxXU3jaSzkkUM1vcabdeZGf7rbI2Un6MR71Y/wCGuP2ef+iiR/8AgtvP/jNfmjRXxL8P8sb+Of3x/wDkT8/fhplLelSp98f/AJE/S7/hrj9nn/ookf8A4Lbz/wCM1qeGf2kPgx4y1y18N+F/GDajqV6+yG3h0y8yx6kkmIBQBkkkgAAknFfmf4d8O614t1uz8OeHdOmvtRv5BFbwRDJZj+gAGSSeAASeBX6Pfs8/s+6L8FPD/nXHk3vibUIx/aF8F4QdfJizyIwep6sRk9FC/O8Q8PZPkdG/tJupL4Y3j9793b89l5fL8TcM5Hw9h7+0qSqy+GN4/e/d2X47LuvXq8z+PXxq8P8Awa8HzahezJNrF9G8Wl2IPzTS4xvYdo1JBY/QDkirnxo+M3hn4L+FX1zWnFxfXG6PTtPR8SXUoH/jqDILN2GOpIB/NTx/4+8TfEvxRd+LPFd8bi9ujhVHEcEY+7HGv8KLngfUnJJJ4eFuGZ5vUWIxCtRi/wDwJ9l5d38lrt5/B/CU87qLFYlWoRf/AIE10Xl3fyWu3OUUUV+1H74FFFFABRRRQAUUUUAFFFFABRRRQAUUUUAFFFFABRRRQAUUUUAe7fst/s9n4w69Jr3iSORPCujyBbjaSpvZsZECsOgAwXI5AIAwWyP0Stba10+1is7SGOC2to1jijRdqxoowFA6AADFcf8ABfwPa/Dv4YeHvCtvCqS29lHJdkDl7mQb5WPr87EDPYAdq+ef22vjnqmjyJ8IfC921sbm2WfWriNsOY3+5bg9QCBub1DKOhYH8Xx1bFcYZv8AV6LtBN27KK3l6v8AyR+DZhXxfHGdfVaMrU4t8vaMVvJ+b/yR9S+HfF/hXxdFPN4X8RadqyWsrQztZ3KS+W4JBVtpOOnHr1HFZnjr4XeAPiVZ/Y/Gvhey1Lau2OZ02zxD/YlXDr9Acetflf4c8UeIvCOqRa14X1q80u+h+7PazGNsehx1B7g8HvX0n8O/28vGGkCOx+I2g2+vQDCm8s9ttdD3ZceW/wBAE+td+O4Ix+An7bLanNbz5ZL06fivQ9HMPD7Mstn9Yyqpz28+Wa9Oj+9eh1fjr9gLTZ/Muvhx4yltXPK2erJ5iZ9BNGAyj6ox968H8Xfsr/HLwfvkuPBNxqdun/LfSWF2G99ifvB+KCvtnwT+1R8EvHCpHb+MIdJu3/5ddXH2VgfTex8tj7K5r1a2ure8gS6s7iOeGQbkkjYMrD1BHBrnp8V55lEvZ42N/wDHFp/erX9dTlpcZcRZJL2OPhzf44tP5NWv6u5+P9/puoaVcNZ6pYXFncJ96K4iaNx9VYAiq1fsDq2iaLr1ubPXNIstRtz/AMsru3SVP++WBFefa5+zN8CPEG43vw10qEt3sd9pj6CFlFe3h/EPDy/3ijJf4Wn+fKfQ4XxPw0v96oSj/hal+fKfl/RX6D6p+wv8E77Js5fEWnZ6fZ79WA/7+xvXL3v/AAT78ISMf7O+IWsQD+HzrWKXH5Fc161PjjKKnxSlH1i/0ue1S8QskqfFKUfWL/S58QUV7V+0R+znH8B4dEuI/GB1oa1JcIqNYfZzF5QQk58x92fMHYdK8Vr6XBY2hmFCOIw0rwezs1s7dbPc+rwGPw+Z4eOKwsuaEr2dmtnZ6Oz3R9T/ALAfh/Q7/wAb+IvEF6yNqek2MSWMbdQszMJZFHqAirn0kPrX3PX5FeE/GHibwLrUPiLwjrVzpmowAqs0LdVPVWByGU8ZVgQcDivUB+2L+0Nj/keIj/3CrP8A+NV8NxJwljs3xzxVCpHlaStJtWt2snp1+Z+ecVcFZhnWYyxmHqR5WkrSbVrLZWT06+rZ+jj6bp8jGSSwtmZjlmaJSSfypP7L0v8A6Btr/wB+V/wr85P+Gxv2hf8AoeIf/BVZ/wDxqj/hsb9oX/oeIf8AwVWf/wAarw/9Qs1/5+Q/8Cl/8ifPf8Q3zn/n5T/8Cl/8ifo3/Zel/wDQNtf+/K/4Uf2Xpf8A0DbX/vyv+FfnJ/w2N+0L/wBDxD/4KrP/AONV98fCa48WXnw38Pah44vvteuXtil3eSeSkWGl+cJtQBQVVlXgfw14+c8O4zI6camJnF8zskm7/ikeHnvDGO4fpRq4qpF8zslFyb9dYrT/ADPGf21fh74Jn+FN142bS7S01zS7i3S1uYYwjzrJKqNE2PvjazOM9NnGMnPwJX2T/wAFAPG2E8NfDu2m+8X1i7XPpmKH/wBrfkK+Nq/TOCqdanlMZVm3zNtX6La34N/M/WeAaVenksJVpN8zbV+kdrel038wooor6w+zCiiigAq9oeh6t4k1e00HQdPmvtQvpRDb28K5aRz2H8yTwACTxTNJ0nUtd1K20fR7Ga8vryVYbe3hUs8jscBQBX6Jfs1/s4ab8HNIGua7HDeeLb+LFxMPmWzQ8+TEf/QmHUjA4HPg5/n1HI6HPLWb+GPfzfkj5ziTiPD8PYbnlrUl8Me/m/JdfuLX7OX7O+k/BfRP7Q1JYb3xVqEYF7dgZWBTg+RET0UHq3ViM9AAOu+L/wAXvC/wb8KyeI/EEvmzyZjsLFGAlvJsfdX0UcFm6KPUkAzfFb4q+F/hD4Um8UeJrjJ5js7RGHm3c2MiNB+pboByfQ/ml8UPif4o+LXiq48VeKLrdI/7u2tkJ8q1hB+WOMHoB3PUnJPJr85yXJsVxTi5Y7HN+zvq+/8Adj2X5ep+W5DkWM4wxsswzCT9nfV/zf3Y9kvwWm5D8SPiN4o+Kfiq58WeKrzzbmf5YolyIraIE7Yo17KM/UkknJJNcvRRX7BSpQoU1Tpq0Vokj9xo0aeHpxpUo2jFWSWyQUUUVoaBRRRQAUUUUAFFFFABRRRQAUUUUAFFFFABRRRQAUUUUAFFFFAH7GjjgcAV+fv7cXgnVND+LZ8YSQu2n+I7WFopsHas0MaxPHnsQqI30f61+gdcz8RPh54X+KHhe58J+LLHz7Of5kdTiSCUA7ZY2/hYZPsQSCCCRX4Dw7m/9i45YiSvFq0u9n29Gkz+bOF87WQ5hHFSV4Ncsu9nbb0aT/A/JeivXfjT+zT4++D91NeyWr6v4d3futWtYztRewmUZMTdOvynIwT0HkVfuuExlDHUlWw8lKL6r+tH5H9E4LHYfMaKxGFmpRfVf1o/J6hW14c8a+MPB832jwr4o1XSHJyxsrySEN9QpAP41i0VtOEakeWauvM3qU4VY8lRJp9Hqe3+HP2yPjx4f2pceJLTWYk6R6lZRt+bx7HP4tXoui/8FBfEsO0eIvhzpl3/AHmsr2S3/IOsn86+S6K8XEcNZTif4lCPy93/ANJseDieE8lxetTDx+Xu/wDpNj7q03/goB8PJsf2x4J8RWpPX7O0E4H/AH06V01n+298C7rHnXmtWmf+e2nE4/74LV+d9FeXU4FymfwqUfSX+dzx6vh3ktT4VKPpL/NM+kf2xPjN4B+LX/CIjwJrT366WL43Qa1lhMZk8jZ/rFGc+W3TNfN1FFfR5bl9LK8LHCUW3GN999W35dz6nKsso5Pg4YLDtuMb2vvq2+iXfsFFFFdx6AUUUUAdn8G/BbfEP4oeHPCLRl4L6+Q3Q/6d0zJN/wCQ0av1aVVVQqqABwAO1fEn7Afgn7Z4k8QfEC6hzHptsum2rMODLKd0hHuqIo+klfUvxq8bf8K8+FfiTxYkvl3FpYulqc/8vEmI4vrh3U/QGvyHjTESzHNqeBpa8to/9vS/pH4jx7iZ5pnVPLqOvJaK/wAU7fpyn55ftGeNv+E++MniXW4ZvMtIbo2FmQcr5MH7sMvsxVn/AOBmvNaUknk8k0lfq2Fw8cJQhQp7RSS+Ssfs2Dw0MFh4Yen8MEkvkrBRRRXQdAVY0/T77Vr630zTLOa6u7qRYYIIULPI7HCqoHJJNNs7S61C6hsbG2luLm4kWKGGJCzyOxwqqBySScACv0D/AGX/ANma1+FljH4y8YW8Vx4tu4/kQ4ZdNjYcop6GQjhmHTlV4yW8TPc8oZHh/aVNZP4Y93/kur/U8DiHiHD8P4b2tXWb+GPVv/JdX+pa/Zl/ZrsfhHpqeJ/E8MN14uvYvnbhk0+NhzFGehc/xOPoOMlvT/id8TPC/wAJ/Ctx4r8UXWyKP5Le3QjzbqYj5YowepPr0ABJ4FTfET4ieGPhf4WuvFniu9EFrbjbHGuDLcSnO2KNf4mOPoACTgAmvzT+MXxg8T/GbxVJ4h16Qw2sWY9PsEYmK0iz90erHALN1J9AAB+aZTlWL4txksZjG/Z31f8A7bH+tPU/J8lybG8aY+WOx0n7O/vP/wBtj/WnqyD4s/FjxR8YPFc3ibxJNtQZjsrNGJis4c8Inqe7N1Y/gBxVFFfsNChTw1ONGjG0Vokj9xw+HpYSlGjRjyxirJLoFFFFamwUUUUAFFFFABRRRQAUUUUAFFFFABRRRQAUUUUAFFFFABRRRQAUUUUAfsdXkdx+0p4G0P4t618J/GEy6LcWD2ws9Qnk/wBGufNt4pdrt/yyYGQgbvlIHUHivXK/NX9r/wD5OK8W/wDbh/6Q29fhXC2U0M6xVTDV7pcjaa6Pmjr+J/O3B+S4fPsZVwuIul7NtNbp80Vfz3eh+kzLDdQlWVJoZlwQcMrqR+RBFeE/Ez9jX4U+O3l1DQ4ZPCupyZPmaegNs7erQHCj/gBSvj74V/tJfFL4T+XZaPrA1DSE/wCYZqGZYFH/AEzOQ0f/AAEgZ6g19YfD39t74W+KFitPF0N14WvmwGaYGe1Le0qDcP8AgSqB616Vfh3POHqjrYGTlHvH9Y/8Oj1sRwxxBwzVdfLpOUe8N/8At6HX/wAmR86eOv2MfjN4RMtxpGn23iayTJEmmyfvtvvC+Gz7JurxXV9D1rw/eNp+vaPe6bdL96C7t3hkH1VgDX64aH4g0HxNYrqfh3WrHVLR/uz2dwkyH/gSkinavoei+ILU2OvaPZalbN1hvLdJkP8AwFwRXXhOP8ZQfs8bSUrdvdfzWq/I7cF4k43DP2ePoqVu3uv5rVfkfj/RX6X+JP2TvgP4lZpZPA8WnTN/y002eS2x9EU+X/47Xm2uf8E//At0zN4d8c65p+ei3UMV0B/3yIzj8a+kw/HeVVv4nND1V/yv+R9VhfEXJ6/8Xmg/ON//AEm/5HwzRX1dqn/BPvxjCx/sT4haNdjsbq1lt8/98+ZXL337C/xutCRby+Hb0esF+4z/AN/I1r1qfE+UVfhrx+d1+aR7NLi7JK3w4mPzuvzSPnmivbbn9jX9oKA/u/B9tcf9c9UtR/6FIKpv+yJ+0RH974dsf93VLI/ymrqWeZZLbEQ/8Dj/AJnZHiDKZbYqn/4HH/M8eor2NP2Q/wBoiT/mnpH+9qtkP/a1ZvjT9mn4vfD3wvdeMPFnh+3s9Ns2jWZlvoZWBd1RflRiT8zCqhnGX1JqnCvByeiSlFtv7y4Z5ldScadPEQcm7JKcW2300Z5dRRXTfDPwfN4/+IGgeDoVbGq30UMpXqkOcyt/wFAx/Cu6rVjRpyqT0STb9EehWqxoU5VajtGKbfotT9C/2VPBP/CD/BHQYJofLu9XQ6vc8YJafBTPuIhEPwryb9v3xt9l0Lw78PrWbD3876pdqDyI4wUiB9mZ3P1jFfWUEMNtDHb28axxRKERFGAqgYAHsBX5nftSeNv+E6+NniC8hm8y00uQaTa85ASDKtg9wZPMYf71fkPCtKWcZ5LG1Ps3m/V7L5X09D8R4OpSzziGWPqrSPNN+r0ivle69Dyaiiiv2I/cgqS3gnup47W1hkmmmcRxxxqWZ2JwFAHJJPGBTY45JpFhhjZ3dgqqoyWJ4AA7mvvH9lf9l+PwHBb/ABD+IFir+I5l32NlIuRpqEfeYf8APYj/AL4HHXOPHzrOsPkmH9tW1k/hj1b/AMu76Hh5/n2GyDC+3rayfwx6yf8Al3fT1si3+y3+zFB8N7WHx344tEl8U3Me63t2wy6YjDp6GUg/M38I+Udyfb/Hnjzw18N/DF34s8V34trG0X6vM5+7HGv8Tt2H1JwASJfGnjTw78P/AA3eeK/FWoJZ6fZJudjyzt/CiDqzseABX5sfHP44+I/jZ4mOpX++00izZl0zTQ2VgQ/xN2aRsDc34DgV+X5bl2M4wx0sVinamt3/AO2x/rTd6vX8iyrK8dxxmEsZjJNU0/efl/JH+tN3dvWv8a/jT4m+NPilta1hjbafbFo9N05XzHaxE/8AjztgFm74A4AAHnlFFfsOGw9LCUo0KMbRjokfuWFwtHBUY4fDx5YR0SQUUUVubhRRRQAUUUUAFFFFABRRRQAUUUUAFFFFABRRRQAUUUUAFFFFABRRRQAUUUUAfsdX5q/tf/8AJxXi3/tw/wDSG3r9KQc8jkGvzX/bAVl/aJ8WEqQG+wEe/wDoMFfj3h9/yM6n/Xt/+lRPw7wz/wCRtU/69v8A9KgeOxQzTsY4YnkYKzbVUk4UEk8dgASfYUyvtv8AYb+Do0zR7n4ta9aD7TqitaaSki/ctgcSS4Pd2G0f7Kns1ejfEz9kX4S/EOSbUbXT38OarLljdaWFSN29XhI2H1JXax7mvr8VxrgsHj5YOpF8sdOZa69VbsvK+vQ+3xnH2X4HMZ4GrF8sdOda69Vbey2ur630Pzt0bXtc8O3i6h4f1m+0y6X7s9ncPDIP+BIQa9e8K/ti/HXwyEjm8RW2twJ0j1S1WT85E2SH8WNbHjr9iP4ueGPMuPDf2HxRZrkj7LJ5Nxt9TFIQM+ysxrw/xB4V8TeFLr7D4n8PalpNx2jvbV4WP0DAZHuK9eNTKM+jpyVfubX36o9uFTJOI46ezq+tnJfJ+8vwPq3w7/wUGul2x+LPhvFJ/em06+KY+kcinP8A33Xo+j/tzfBPUgv9oLr2lMfvfabEOB+MTuSPwr89qK83EcE5PX1jBx9JP9bnlYngDI8RrGm4f4ZP9bo/T7Sf2nPgNrQBtPiXpcWf+fsSWv8A6NVa6ax+K3wv1LH9n/Efwvck9otXt2P5B81+TdFeVU8PMG/4daS9bP8AyPGq+GOBf8KvNeqT/wAj9f4Ne0O6UNba1Yyg9DHcI2fyNXI5oZuYpkcf7LA1+OlFcr8OY9MT/wCSf/bHJLwtj9nFf+Sf/bH7FvNDH/rJUX/ebFeOftWX+i6h8BvFmnLq1k05ht5EiFwm9ilzE/Azk/dr816K6cFwCsHiKeI+sX5JKXw22d/5mdWA8N1gcVTxP1m7hJStyW2d/wCZhX1H+wV4J/tXx5rHjm5hzDoNmLa3Yj/l4nyMj6RpID/vivlyv0i/Y/8ABP8Awh3wS0q5nh2XfiCR9XmyOdsmFi59PKSNv+BGvX40x31PKpQW9R8v6v8ABW+Z7fHuY/UcnnCL96o1Fej1f4Jr5noXxS8ZR/D/AOHfiHxjIyh9MsZJYd3RpyNsS/jIyD8a/J6WWSaR5ppGeSRizMxyWJ5JJr7k/b38bf2Z4J0TwJbTYm1u8N3cKD/ywgAwD7GR1I/65mvhiuHgLA/V8vliZb1H+EdF+Nzz/DjL/q2WyxclrVl/5LHRfjzBSqrMwVVJYnAA6k0V9tfso/st/wBhrafE/wCJGn/8TJgJtJ0yZf8Aj1HVZ5VP/LTuqn7nU/Njb9JnGcYfJsO69ffourf9bvofVZ5nmGyHCvEYh6/Zj1k+y/V9C5+yp+y6vhOO1+JXxF08HXJFEum6dMv/AB4KeksgP/LY9h/B/vfd+kPFnizw/wCB/D954o8T6jHY6dYx+ZNK/wCiqOrMTgBRySQKk8SeJND8IaHeeJPEmoxWOnWEZlnnkPCj0A6kk4AA5JIA5NfnB+0J+0Brnxs8QbY/NsvDVhIf7OsC3J7edLjgyEfgoOB3LflmBwWO4yx7xGIdoLd9Ev5Y+f8Aw78/x7L8vzDjvMZYnFO1Nbvol/LHz/4d+db4+fHjxB8bPEn2ibzLLQLF2Gm6du4QdPNkxw0jDqegHA7k+WV0HhHwB408ezXNv4N8N32ryWiq862se8xhiQCfTOD+VbOufA/4ueG9Judd17wBq9jp9mvmT3E0O1I1yBknPqRX6xh5YHLoxwdOUY20Ubq/+d3+J+z4aWX5XCOBpSjDlslG6vr5Xu2/vZw1FFFeiemFFFFABRRRQAUUUUAFFFFABRRRQAUUUUAFFFFABRRRQAUUUUAFFFFABRRRQAUUUUAfqx8F/HFr8RPhh4e8VW8yyS3FlHHdgHlLmMbJVPp86kjPYg96+ef22vgbqusTR/FzwtZPdNbWwt9at4ly4jTOy4AHJAHyt6BVPQMR5H+y1+0Ifg/r8mg+JJJH8K6xIGuNoLGynxgTqo6gjAcDkgAjJXB/RK2uLXULWK8tZo7i2uY1kjkRgySIwyGB6EEHNfi+Oo4rg/N/rFFXg27dnF7x9V/kz8GzChi+B86+tUY3pyb5e0ovePqv8mfl/wDC/wDaC+J3wlkSHw3rjT6YGy2l32ZrU+u1cgxn3Qrnvmvq/wCHn7dHw58QLHZ+O9PuvDN4cBplDXNox/3kG9c+hUgf3qqfG79inQ/Fk1x4k+F01toepyZkl02QbbOdupKEcwsfQAr04Xk18beNfh342+HWpHSvGnhu90ufJCNNH+7lx3jkGUce6k19dChkHF0edLlqve3uz/yl62Z9tDD8N8bR9pFctZ7292f3bS9bP5H6q+HPFnhfxfYjUvCviDT9WtjjMlncLKF9jtJ2n2PNeG/tyeKE0X4NpoSsvna/qUFvt7iOPMrMPxRB/wACr4D03VNU0a7TUNH1K6sbqP7k1tM0Ui/RlIIrc8W/Erx548s9OsPGXii+1iLSvM+yfa33unmbd+XI3NnYv3icY46mubBcDfUcwp4mNXmhF3s1Z6beT1t2OTAeHjy7MqWKhW5qcJXs1Z6bd09bdjmaKKK/Qz9OCiiigAooooAKKKKANzwP4XuvG3jDRfCNlkS6vfQ2gYD7gdgGf6KMk+wr9atPsbXS7C20yxhEVtaQpBDGvRERQqqPoAK+Df2FPBP9vfFC98YXEO638NWRMbY6XM+Y0/8AIYm/Svtzx54qtfA/gvW/F93tMek2M10Fb+N1UlE+rNhfxr8k47xUsXmFPA09eVbf3pf8C33n4r4i4yWNzOll9LXkW396f/At95+e/wC1342/4TP43axHDNvtNAVNHg54BiyZfx81pB9AK8Xqe9vLrUbyfUL2Zpbi6laaaRuruxJYn6kmvrv9lD9lv7R9j+KXxK07918s+j6XOv3+63Eynt3RT14Y8Yz97XxeF4Zy2CqvSCSS6ydunruz9IxGNwfCeVQVZ6QiopdZNLp67vsXP2UP2W/sv2P4pfErTv3/AMs+j6XOv+r7rcTKf4u6KenDHnGPrHXte0fwxo934g8QahDY6fYxGa4uJmwqKP5nsAOSSAOTT9Y1jS9A0u61rWr6GysbKJpri4mbakaDkkmvzr/aS/aN1T4yawdH0V5rPwnYS5tbc/K12448+Uev91f4QfUmvzPDYbHcaZg61Z2gt30iv5V5/wDDs/JsJhMx49zJ1qztTW76RX8sfN/8FlX9or9ofWPjTrn2KxM1l4W0+QmxsycNM3I8+XHVyOg6KDgckk+P29vcXdxHa2sEk00ziOOONSzOxOAoA5JJ4AFd38NfgX8TPitcJ/wifhyY2LNtfUrnMNpH6/vCPmI7qgZvavuD4Gfsr+DfhC0WvajIuu+JQOL6WPEdqSORAhztPbefmPbaCRX32NzrK+F8MsLRs5R2it7/AN59PO+vkfpGPz7KOEcKsHQs5RWkI737yfTzb1fZjP2TfgnffCPwRcX3iKEReIPELxz3cPBNtEgPlQk/3huZm92x/Dk0P22fG1r4b+Dk3hvzgL7xNcxWsKZ+byo3WWV/oNqqf+ugr2fxj4w8P+AvDd74s8UX62enWEe+WQjJJJwqqByzMSAAOpNfmZ8bvi9rHxm8bz+Jr9Gt7KFfs+m2e7It7cEkA9i7H5mPqcdAAPi+HcFieIc2eZ4j4Yy5m+l18MV6afJa7nwXC+AxfE+dPNsUvcjLmb6cy+GK9NPktd0efUUUV+wH7gFFFFABRRRQAUUUUAFFFFABRRRQAUUUUAFFFFABRRRQAUUUUAFFFFABRRRQAUUUUAfT37Hf7Pdn46vm+JXjOxWfQ9Nn8uwtJVyl5cryWcH70accdGbg8KQfufUNQ0/R7CfUtUvILOztIzLNPM4SOJFGSzMeAAKw/hr4TtfA3gHQPCVpGEXTLCKF8D70u0GRj7s5Zj7k18i/tzfFzVrzxNH8I9Lung03T4YrrU1U4+0zuA8aN6oiFGA7s2T91a/FajxHGOcOmpWgr2/uwXW3d6fN9j8EqvE8dZ66Slamr2/uwXW3d6fN9j6k+H/xw+F/xOnms/B/iy2uruF2U2soaGdgpPzojgF1I5yucZGcHiuu1fRdH8QWEml67pdpqNlMMSW91Cssb/VWBBr8gYZpreZLi3meKWNgyOjFWVhyCCOQa9u+Hv7YXxi8D+VaahqkfiXT0wPJ1XLygf7M4w+f94sPavYzHgGrSftMtqXt0lo/k1p+Xqe3mnhtWoy9rldW9uktH8pLT70vU+mPHX7Efwj8UNJdeG2vvC92+T/oj+db5PcxSZI+isorwjxZ+wj8V9HaSXwzqmj+IIR9xVlNrO31WT5B/wB/K9r8F/t1fCvXfLt/Fmnan4auG+87x/arcH/fjG/84xXt3hn4jeAfGiq3hXxlo+qMwz5dteI8g+qZ3KfYgV5qzfiTIvdxCk4r+Zcy/wDAv/tjylnXFfDvu4lScV/OuZf+BL/5I/MjxJ8F/ix4SZ11/wCHuu2yJ96ZbN5Yf+/kYKH8641laNijqVZTggjBBr9jKyNa8H+EvEo2+IvC+kaqOn+m2MU//oamvTw/iJNaYign5xdvwaf5nr4XxQqLTFYdPzjK34NP8z8iKK/UDVv2Z/gPrO77Z8M9Jj3f8+m+1/LyWXFcvefsVfAW6z5Gh6nZ5/546lKcf99lq9an4gZbL44TXyT/AFPapeJeVz/iU5p+kX/7d+h+c9Ffftx+wX8G5mLRa34tg/2Uvbcj/wAegJ/Wqkn7AfwsP+q8WeK1/wB6a2P/ALRFda45yh/al/4Cdi8Q8kf2pL/t1nwbRXVfFTwlY+A/iJr/AIP024nuLXSb17aKWfHmOoxy20AZ+grI8M6De+KvEWl+GdNXN1qt5DZw8dHkcKCfYZya+qhXp1KKrp+61f5WufY08TTqUFiE/da5r+Vr/kfoB+xb4J/4RX4M22sXEOy78S3MmoPkfMIR+7iH02oXH/XSsP8Abu8bf2H8M9P8G282248SXwaVc9ba3w7f+RDD+Rr6J0PR7Lw9othoGmx+XaabaxWkC/3Y41CqPyArx7xF8FP+FsfGxvG/jy23eGfDEMVjpGnSDi/mH7ySaRT/AMsw7bcH7/ljPy/e/EcFmNGtnEs0xb92Lc7dX/LFed7fJH8/YDNKFfPJ5vjX7kW526tr4Irzvb5Js8V/ZR/Zb/tprT4n/EjTv+JcMTaTpky/8fJ6rPKp/wCWfdVP3up+XG77Q1HUdP0fT7jVNUvIbSztImmnnmYKkaKMlmJ4AAp13d2Wl2U19fXENraWsbSSyyMEjijUZLEngAAda/Pr9p79pi8+K2oSeEfCNxLb+ErOTluVfUpFPEjjqIweVQ/7zc4C9VKlj+Ncw556QX3RXZd2/wAfQ7KNHMePszdSp7tOP3Qj2XeT/F67LSr+0x+0lqHxe1RvDfhuWa18I2MuY05V7+Rek0g7L/dQ9Op54Xweiiv17A4GhltCOHw8bRX4+b82ft+XZdh8qw8cLhY2ivx833bP0C/Yh+I3/CVfDGXwdfXG6/8ACs3koGPLWkmWiP8AwEiRPYKvrXpGqftBfB/R/F9r4HvPHFh/al05i/dtvhhfskso+RGJ4wTnPXGRX5h6brmtaPHdw6Tq15ZJfQ/Z7pbedoxPFkHY+0jcuQDg8cVRr5DFcDYfGYyriZ1Goy1SS2b3d/XW1vmfEYzw8wuOx1bFVKjjGeqjFLRvdtvpfW1vmfsHq2k6Zr2mXOjazYw3tjeRtDcW8yBkkQ8EEGvzX/aS+CM3wW8bfZbHzJfD+rBrjS5n5KqCN8LHuyEjnurKepIH1F+xT8XNW8d+Db/wf4iunub/AMMeStvcSHLy2jhgise5QoRn+6U9Ca3/ANsvwna+JPgbqmovGputAng1C3buPnEcgz6FJGOPVRXy+R18Tw1nX9n1XeMpKL7a/DJfevldHyHD+JxXCmff2ZWd4Skovs7/AAyX3r5XR+cdFFFfsZ+5hRRRQAUUUUAFFFFABRRRQAUUUUAFFFFABRRRQAUUUUAFFFFABRRRQAUUUUAFFFFAH7HV8Jft0fDPVNJ8dQ/E21t3k0vXIYra5lUcQ3cSbAregaNVI91b0r7trO8Q+HtF8WaLd+HfEWmw3+nX0Zint5lyrr/MEHBBHIIBGCK/n3Ic3lkuNjiUrrZrun/Vz+Z+HM6lkOPji0rx2ku8X+uia9D8gqK+lPjb+xn4t8FzXGvfDeO48Q6EMyG1Ubr61HptH+uUeqjd6rxk/NskckMjRSxsjoxVlYYKkdQR2NfueX5nhc0pe2ws1JfivVdD+h8szbB5vR9tg5qS6915NbobSqzKwZWIYHII6g0lFd56J2/h743fF7wqqR6H8Rtegij+7C940sS/SOQso/KvRtE/bc+OmkqFvr7RtYx3vdPVSf8AvwY68CorzcRk+X4r+NRi3/hV/v3PLxOR5bjNa+HhJ9+VX+/c+stL/wCCgviqHH9tfDnSrv8AvfZb2S3z/wB9LJiums/+Cg/h6TH9ofDTUYfXydRSX+aLXxPRXlVOD8mqa+xt6Skv1PHq8DZDV19hb0lJfrY+8bf9vz4Wso+1eEvFUbdxHDbuPzMwq3H+3t8G3+9oPi5P96yt/wCk5r4DormfA2UP7Mv/AAI434eZI/syX/bzOu+LXivTfHHxK8ReLtHjuEstVvnuYFuFCyBTjG4AkA/QmvV/2IvBP/CTfF//AISK4h3Wvhmze7yRkefJmOIH3w0jD3Svnqv0E/Yd8E/8I58JZfE9xDtuvE949wCRg/Z4sxxg/wDAhKw9nFa8UYmOVZLKlT6pQX5P/wAlTNuL8XHJshlRpaXSpx+as/8AyVM+iqjuLi3s7eW7u544YIUMkkkjBVRQMliTwABySaWWWOCN5ppFjjjUs7s2AoHJJJ6AV8GftT/tPyfEC4n+H/gG9ZPDUD7by8jODqTg9Af+eII4/vHk8Yr8oyTJcRneI9jS0ivil0S/z7L9D8ZyDIMTn+K9hR0ivil0iv8APsuvpdlT9qP9py4+Jl5N4H8E3UkPhS2kxNMuVbU5FPDHuIgRlVPXhj2C/OVFFfumXZfh8rw8cNh1aK+9vu/M/ojK8sw2UYaOFwsbRX3t935v+tAoooruPQCirmk6Pq2vahDpOiabc397ctsht7aJpJHPoFUEmvr34D/sUy29xbeLPjHHGfLYS2+hI4cE9QblhwR/0zUkHjceq15WaZzhMnpe0xMtei6v0X67Hj5xnuCyOj7XFTs+kV8T9F+ux0v7C/wz1Twx4Q1Tx5rNu8D+JWhWxjdcN9li3ES+oDs5xnqEB6EV6l+01/yQfxn/ANg//wBqJXpkcccMawwxqiIoVVUYCgcAADoK8z/aa/5IP4z/AOwf/wC1Er8YWYVM1zqni6is5Tjp2V0kvuPwZZnUzjP6eNqqzlUhp2SaSXySPy/ooor98P6RCiiigAooooAKKKKACiiigAooooAKKKKACiiigAooooAKKKKACiiigAooooAKKKKAP2Or548SftY6Z8O/jd4g+G/jyxMeiWz2n2PUrZCz2/mWsMjCZBy67nY7l5HTB6j6Hr81f2v/APk4rxb/ANuH/pDb1+HcI5Zh82xlTD4lXjyN+afNHVH898E5Thc6x1XC4tXj7Ntd0+aOq89T9G9D17RfE2mQ614e1W11GxuF3RXFtKsiN+I7+o6iuL+JHwD+FnxU3z+KvDMQv2GBqNofIuh6ZdeHx2Dhh7V+bngX4meO/hrqB1LwT4ku9MkYgyxo26GbH/PSNso/4jjtX1F8Pf2+omWKx+J3hJlbhW1DSDkH3aBzx6kq59lr1MZwfmmU1Pb5bNyS7Pll93X5PXsevjuBs4yar9Yyqbml/K+Wa+XX5PXsY3jr9gXxJZGW6+Hni611OIZZbTUl8iYD+6JFyjn3IQV4P4u+B3xb8DF28S+AdWt4Y/vXEUPnwD/trFuQfia/RrwX8cvhP8QFjXwv440ye4k+7aTSeRcZ9PKk2sfqARXd1NDjTN8ul7LHU+a38ycZf18hYfj3O8rl7HMKfM1/MnGX4W/9JPxypK/WjxJ8M/h34wLP4n8EaJqcjf8ALW4sY2l/B8bh+BrzbXP2NfgLrDNJb+GrvSnbq1jqEo/JZC6j8BX0GH8QcFP+PSlF+VpL9PyPpcL4m5fU/wB4oyi/K0l+j/A/OCivufVP+Cf/AIBmYnRfHGv2gPQXMcNxj/vlUrl77/gnrfqxOm/FK3lHYT6SyY/FZWz+VetT4zyapvVt6xl+iZ7NLjzIau9bl9Yy/RNHyBRX1Ncf8E//AIgqf9D8ceHpR/00WdP5I1U3/YD+LA/1firwk3+9cXI/9oGupcU5PL/l+vx/yOyPGGRy/wCYmP4/5HzLX6Jfs6fHj4W3fwl0HSNS8WaRoeoaDYRWN5a6hdx2xzEoXzF3kB1YANlc4LEHmvCU/YD+Kp/1nizwov8AuzXJ/wDaIq9a/wDBP3xy2PtnjzQovXyoZpP5ha8TPsdkOd0I0a2J5eV3TV3+Fj5/iPMOHOIMPGjWxfLyu6au/LaxV/ak/am/4Tjz/h78OL518PD5dQv0yragf+eaZwRCO/8Af/3fvfL9fY2n/wDBPVuG1T4qAeqW+j/+zNN/Sur0n9gX4Y2uG1jxV4jvmH8MTwwIfqPLY/kaMDxFw9kuHWHws20u0Xdvu20tQy/ijhnIcKsLg6jaW9oyu33baV3/AEtD4OqSGGa5lWC3heWVztVEUszH0AHJr9KNB/ZH+Aeg7ZB4JGoSr/y0v7uabP1Qts/8dr0rw/4O8JeFIvJ8L+F9K0lMYIsrOOHP12AZ/GufE+IWEh/u9GUvW0f/AJI5sV4nYKH+7UZS9Wo/lzH5seD/ANmn42eNfLk0zwHf2tu+P9I1EC0jA/vDzcMw/wB0GvfvAf7AdvE0d58SvGRnxgtY6Qm1T7GeQZI9ggPvX1/JJHDG0s0ioiDczMcAD1J7V5d42/ac+CvgRXj1Dxpa6hdpn/RNL/0uQkfwkp8in2ZlrwKvFud5tL2WChy/4E2/v1+9WPm63Guf51L2OXw5f8EW397vb1VjqvAvwv8AAPw1sTY+CfDFnpiuNskqKWml/wB+Vsu30JwO1S+OviJ4M+G2jtrnjTXrbTrcA+WrtmWZh/DHGPmc+wH1wK+QPiN+3l4q1ZZdP+G3h+HRIWyq317tuLnHqqf6tD7HfXzP4i8TeIvF2qS614o1q81S+m+9PdTGRsdgM9AOwHA7V0ZfwRjsfU9vmk+W++vNJ/PVL8fQ6st8P8wzGp9Yzepyp7680389UvxfkfoT8C/2ipvjh478R2Gm6P8A2foOk2cT2Ym5uZmaQgvJg7V4AwozjnJPbpP2mv8Akg/jP/sH/wDtRK+cf+CfX/I1eLv+wfb/APoxq+jv2mv+SD+M/wDsH/8AtRK83MsFRy/iGnh8PG0Yyp/+2nk5rgMPlnE9LC4WNoRlSt/5L+Z+X9FFFftZ++hRRRQAUUUUAFFFFABRRRQAUUUUAFFFFABRRRQAUUUUAFFFFABRRRQAUUUUAFFFFAH7HV+av7X/APycV4t/7cP/AEht6/ShHWRFkQ5VgGB9Qa/Nr9sOGWL9ofxRJIhVZlsXQ/3l+xQrn81I/Cvx7w/0zOf/AF7f/pUT8O8NNM2qf9e3/wClQPJNK0fVtdvBp+iaXd6hdFHkENrC0shVFLM21QTgKCSewFVGVlYqykEcEHtX3V+w78JIfD/hSf4papEjajr6tBY9CYLNWwT7F3XJ/wBlF9TXqvxK/Zx+E/xSaW81/wAOra6nL11LT2EFwT6sQNsh/wB9Wr6nF8b4XB5hPCzg3COnMu/XTstt+nU+xxviDg8BmU8HUg3COnMv5uunZbb9Hufl/XaeFfjP8VvBQSPwz4+1m0hT7tubkywD/tlJuT9K9y8dfsFeNtL8y68A+JLHXIBkrbXY+y3HsoOTGx9yU+leDeMPhP8AErwDvbxf4J1bTYUO03EluWgz04lXMZ/Bq97D5plWcx5ITjO/2Xa//gL1/A+jw2b5PnsOSnUhUv8AZla//gMtfwPW/Dv7c/xn0namsQ6HraD7zXFmYpD9DCyqD/wE16Ro/wDwUI09wq+IPhncwkfeks9SWTP0V41x/wB9Gvi+iufEcKZPidZUEv8ADeP5NI5cTwbkeK1lh0n/AHbx/BNL8D9BdJ/bq+Ct+B9ut/EWmN3+0WKOPwMcjE/lXTWP7Xn7Pd9hf+E+EDH+GfTrpMfj5WP1r81KK8qpwDlc/hlOPo1+qZ41Xw3yep8Mpx9JL9Ys/UaH9o74GXCho/idoYB/vzFP0YCrkfx6+Csv3fip4YH+9qUS/wAzX5W0Vyvw8wfStL8P8jkfhjgPs1p/+S/5H6oSfH34Jw/e+KXho/7uoRt/I1Ruv2lPgTaKWl+JujsB/wA8maQ/kik1+XtFOPh7gvtVZfh/kEfDHAfarT/8l/yP0lvv2xP2fbPIj8ay3TD+GDTLo/q0YH61yur/ALeXwhstyaXoviTUXHRltoooz+LSbh/3zXwJRXXS4Cyqn8TnL1a/RI7aXhxk9P4nOXrJfokfYmt/8FCJ2Vo/DnwzRG/hmvtSLD8Y0jH/AKHXmniL9tb46a3uWw1TS9ERv4bCwUnH+9MZD+IxXg1Feth+F8ow2sKCfreX/pVz2sLwhkmE1hh4v/FeX/pTZ0Xij4i+PPGjFvFnjDV9VUnPl3V27xr/ALqE7V/AVztFFe3TpQox5KcUl2Wh9BSpU6EeSlFRXZKyCiiitDQ+sv8Agn1/yNXi7/sH2/8A6Mavo79pr/kg/jP/ALB//tRK+dP+CfMMreJPGNwqExpY2qM3ozSOQPx2n8q+if2nGVPgL4yZjgfYAPxMiAV+PZ/rxRH/ABU//bT8O4k14wh/jpf+2n5g0UUV+wn7iFFFFABRRRQAUUUUAFFFFABRRRQAUUUUAFFFFABRRRQAUUUUAFFFFABRRRQAUUUUAfqR+z78QLX4kfCXQNeinV7uC2Sw1Bc8pcwqFfPpuwHHs4ry79sD9n3UfiNYwfEDwbZm417SoPJurOMfPeWoJYFB3kQk4HVgcDkKD8w/s8fHnVPgl4oaaWOS88Pamypqdmp+YAdJo88CRcnjowyDjgj9IPC/irw/400O28R+F9Wg1HTrtd0U8LZHupHVWHQqcEHgivxrNcHi+E80+u4Ze423F9LPeL/rbVa7fhOc4HG8GZv9fwq/dttxfSz3g/621Wu35b/D/wCK/wARPhTqLXPg7xDdaf8AP+/tH+eCUjgiSJvlJ7ZxuHYivqb4eft8aPdLHZfE7wvLYzcA32l/vYSfVomO9B9Gf6V6V8av2VPAfxaebXLP/iQeI5Bk31tGDHcN/wBN4+Ax/wBoEN6k4xXxZ8TP2cfit8LZJZta8OyXumR5I1PTg09vt9WIG6P/AIGF9s19RSxOQcWRXt4qFZ/KXye0v60Pr6OK4b4ziliIqFd+fLL5S2l5Xv6I/RPwZ8Wvht8Qo0fwf4y0zUZHGfs6zbLgfWF8SD8Vrx39urxX/YvwjtvDcMmJvEOpRRuvrBDmVj+DiH86+AVZlYMrEMDkEdQa1NY8VeJvEFrZ2OveIdS1K307eLSO7unmW3D7dwQMTtB2rkD0FGD4Gp4HH08VTq3hF3s1rptqvO3RBgfDyll2Y0sZTrc0IO/K1rptqtN7dEZVFFFfen6OFFFFABRRRQAUUUUAFFFFABRRRQAUUU6OOSaRYoo2d3IVVUZLE9AB3oAbV/QtC1jxNq9roPh/TZ7/AFC9kEVvbwrud2P8h3JPAAJPFex/C/8AZB+K3xCaK+1axPhfSHILXOpRlZnX/pnBw59t21T2Nfa/wj+A/gD4N2LR+GdPafUZ0C3Op3WHuZvVQcYRM/wqAOBnJ5r5LOuL8FlkXCi/aVOy2Xq/0WvofF59xvl+URdOjJVKvZbL/E/0WvpuZ37OPwXj+C3gNdLvJI5tc1Nxd6pMnKiTbhYlPdUGRnuSx74HBftzfEC10H4Yw+BoZ1N/4muU3Rg8rawsJGY+mXEaj1+b0Nev/Fb4teEfhD4al8QeKL1RIysLOyRh595IP4EX05GW6KDz2z+aHxO+JHiL4reMLzxh4klHn3GI4YEJ8u2hXOyJAewyfqSSeSa+P4YyzFZ3mP8Aa2K+FPmv3ktkvJfpY+H4RynF8QZp/bOM+CMua/8ANJbJeUfwskcpRRRX66ftgUUUUAFFFFABRRRQAUUUUAFFFFABRRRQAUUUUAFFFFABRRRQAUUUUAFFFFABRRRQAV3Xwr+M/jz4P6q2oeEdU228zA3VhcAvbXIH99MjB/2lIYeuOK4Wisa9CliqbpVoqUXumY4jDUcXSdGvFSi909Ufot8Kf2wfhj8Qlg07XroeF9afCmC+kH2eRv8ApnPwv4PtPOBnrXuyssiB0YMrDIIOQQa/HOu8+H/xy+KXwyZI/CXi67gtFP8Ax4znz7Y+v7t8qufVcH3r89zTgCnUbqZfPl/uy1Xye/339T8yzfw1p1G6mWVOX+7LVfKW6+afqfoJ46/Zt+DXxAMtxrHg21tb2XJN5p3+izbj/EdmFc/76tXg/i7/AIJ+Ll5vAfj8gfwW2rW+fzmi/wDjdR+Cv+CgEqqlv8RPAwfH3rvR5cH/AL8yn/2p+Fe3eFf2rPgX4sVFi8bQaXO3WHVY2tSv1dv3f5Ma8NR4oyHSPM4r/t+P62/A+eUOLuHPdjzuC/7iR/W34Hxv4k/Y9+PHh1maLwrDq8K/8tdNvI5M/RGKyH/vmvNdc+Hvj3wyzL4i8F65pu3+K60+WNfqCy4I9xX6xaXrOj65bC80XVbPULc9JbWdZUP/AAJSRVyuqh4gY6l7uIoxlbteL/X8jrw/iXmFF8uKoxlbteL/AF/I/HGiv121Twb4R1xi2t+FdH1At1N1YxS5/wC+lNcvffs//BPUWLXHwt8OKT/zwsUh/wDRYFerT8RMO/4lCS9Gn/kezS8T8K/4uHkvRp/nY/LGiv01uP2U/wBn66OZPhvar/1zvLmP/wBBkFU3/Y//AGd2/wCaflf93Vr3/wCPV1LxBy3rTn90f/kjrj4mZU/ip1Puj/8AJH5rUV+lafsg/s7p/wA09yf9rVb4/wDtar1r+yz8AbPHk/DaxbH/AD1nnk/9DkNJ+IOW/Zpz+6P/AMkEvEzK18NKp90f/kj8xqciPIwjjUszHAVRkmv1T0/4F/BrS8G0+F3hjI6NJpkUrD8XUmup0vw/oOiLt0XQ7CwXpi1tkiH/AI6BXJV8RKC/hUG/WSX6M4q3ihh1/Bw8n6yS/JM/K7QfhH8UPE23+wfh74gvEbpKmnyiP8XICj8TXp3hn9ij4469tfUtO0zQYm53ahfKzY/3YQ5z7HFfonWRr3i7wp4Vi8/xN4m0rSY8Z3Xt5HAD9N5Ga8qtx7mOIfJhqUU36yf6fkeNX8SM0xL5MJRjFv1k/wBF+B8y+D/2AfC9n5dx448bX+pOMM1vp8K20f8Aul23sw9wFNe++B/gz8MPhwFbwf4N0+yuFG37Wyebcn1/eyEvz6A4rg/Fn7ZHwN8L747XXrrXrhP+WWl2rOM/9dH2Rn8GNeG+N/2+fF2oeZa+AfCdlpER+UXV85uZv94KNqKfY7xXO8HxNn+lbmUX/N7kfu0v9zOV4Hi3iTSvzKD/AJvcj/4Dpf7mfbOo6lp2j2Uupatf21laQLuluLiVY4419WZiAB9a+aPi5+3B4R8OxT6R8L7ca/qYyn26ZWSyhPqOjyke21e4Y9K+NvGnxI8d/ES8+3eNPFN/qrhtyJNJ+6jP+xGuET/gIFc1X0eVcBYfDtVMdLnf8q0j/m/wPqsn8OMLhmquYz9o/wCVaR+fV/h6G74z8ceKviFrs3iTxhrM+pX83HmSHCovZEUYVFH91QByfWsKiivvqdONKKhTVktktj9Ip04UYKnTSUVslokFFFFWWFFFFABRRRQAUUUUAFFFFABRRRQAUUUUAFFFFABRRRQAUUUUAFFFFABRRRQAUUUUAFFFFABRRRQAUUUUAWLHUNQ0ucXWm31xaTL0kglaNh+KkGu60T9oP42eH1VdN+JmvFV+6tzcm5UewE24AV57RWFbC0MSrVoKXqk/zOevg8PilavTjL1Sf5nvGl/trfHnTwBda1pep4/5+tNjXP8A362V09j+358TogBqXhHwxcY7xJcRE/nI1fMFFeXU4bymr8WHj8lb8rHkVeFclrfFhofJW/Kx9cW3/BQjXV/4/PhjYS/9c9SdP5xtVxP+Chsw/wBZ8I0b/d10j/23NfHdFcr4PyWX/Lj/AMml/wDJHHLgfIZb4f8A8mn/APJH2G//AAUMuD/q/hLGv+9rhP8A7biqF1/wUG8Stn7H8N9Mi9PNv5JP5KtfJdFEeEMljtQ/8ml/8kOPBGQx2w//AJNP/wCSPpjUP2+PixPldP8ADfha1U92t55GH4mUD9K5XVv2yvj9qWVg8VWmnK3VbTTYP5urEfnXiNFddLh3KqPw4ePzV/zudtLhfJqHw4aHzV/zudtrnxs+LniTcusfEjxDNG33olv5I4z/AMAQhf0rjJppriRpp5Xkkc5Z3Ykk+5PWmUV6lLD0qC5aUVFeSS/I9ejhqOGXLRgorySX5BRRRWxsFFFFABRRRQAUUUUAFFFFABRRRQAUUUUAFFFFABRRRQAUUUUAFFFFABRRRQAUUUUAFFFFABRRRQAUUUUAFFFFABRRRQAUUUUAFFFFABRRRQAUUUUAFFFFABRRRQAUUUUAFFFFABRRRQAUUUUAFFFFABRRRQAUUUUAFFFFABRRRQAUUUUAFFFFABRRRQAUUUUAFFFFABRRRQAUUUUAFFFFABRRRQAUUUUAFFFFABRRRQAUUUUAFFFFABRRRQAUUUUAFFFFABRRRQAUUUUAFFFFABRRRQAUUUUAFFFFABRRRQAUUUUAFFFFABRRRQAUUUUAFFFFABRRRQAUUUUAFFFFABRRRQAUUUUAFFFFABRRRQAUUUUAFFFFABRRRQAUUUUAFFFFABRRRQAUUUUAFFFFABRRRQAUUUUAFFFFABRRRQAUUUUAFFFFABRRRQAUUUUAFFFFAH//2Q==;" vertex="1" parent="1">
          <mxGeometry x="580" y="160" width="120" height="120" as="geometry" />
        </mxCell>
        <mxCell id="rL4voDa9CR3dqEQPnQwp-10" value="" style="edgeStyle=orthogonalEdgeStyle;rounded=0;orthogonalLoop=1;jettySize=auto;html=1;" edge="1" parent="1" source="rL4voDa9CR3dqEQPnQwp-3" target="rL4voDa9CR3dqEQPnQwp-5">
          <mxGeometry relative="1" as="geometry" />
        </mxCell>
        <mxCell id="rL4voDa9CR3dqEQPnQwp-20" value="" style="edgeStyle=orthogonalEdgeStyle;rounded=0;orthogonalLoop=1;jettySize=auto;html=1;" edge="1" parent="1" source="rL4voDa9CR3dqEQPnQwp-3" target="rL4voDa9CR3dqEQPnQwp-4">
          <mxGeometry relative="1" as="geometry" />
        </mxCell>
        <mxCell id="rL4voDa9CR3dqEQPnQwp-3" value="" style="shape=image;verticalLabelPosition=bottom;labelBackgroundColor=default;verticalAlign=top;aspect=fixed;imageAspect=0;image=data:image/jpeg,/9j/4AAQSkZJRgABAQEAYABgAAD/2wBDAAMCAgICAgMCAgIDAwMDBAYEBAQEBAgGBgUGCQgKCgkICQkKDA8MCgsOCwkJDRENDg8QEBEQCgwSExIQEw8QEBD/2wBDAQMDAwQDBAgEBAgQCwkLEBAQEBAQEBAQEBAQEBAQEBAQEBAQEBAQEBAQEBAQEBAQEBAQEBAQEBAQEBAQEBAQEBD/wAARCAGQAZADASIAAhEBAxEB/8QAHwAAAQUBAQEBAQEAAAAAAAAAAAECAwQFBgcICQoL/8QAtRAAAgEDAwIEAwUFBAQAAAF9AQIDAAQRBRIhMUEGE1FhByJxFDKBkaEII0KxwRVS0fAkM2JyggkKFhcYGRolJicoKSo0NTY3ODk6Q0RFRkdISUpTVFVWV1hZWmNkZWZnaGlqc3R1dnd4eXqDhIWGh4iJipKTlJWWl5iZmqKjpKWmp6ipqrKztLW2t7i5usLDxMXGx8jJytLT1NXW19jZ2uHi4+Tl5ufo6erx8vP09fb3+Pn6/8QAHwEAAwEBAQEBAQEBAQAAAAAAAAECAwQFBgcICQoL/8QAtREAAgECBAQDBAcFBAQAAQJ3AAECAxEEBSExBhJBUQdhcRMiMoEIFEKRobHBCSMzUvAVYnLRChYkNOEl8RcYGRomJygpKjU2Nzg5OkNERUZHSElKU1RVVldYWVpjZGVmZ2hpanN0dXZ3eHl6goOEhYaHiImKkpOUlZaXmJmaoqOkpaanqKmqsrO0tba3uLm6wsPExcbHyMnK0tPU1dbX2Nna4uPk5ebn6Onq8vP09fb3+Pn6/9oADAMBAAIRAxEAPwDgqKKK+SP7dCiiigAooooAKKKKACiiigAooooAKKKKACiiigAooooAKKKKACiiigAooooAKKKKACiiigAooooAKKKKACiiigAooooAKKKKACiiigAooooAKKKKACiiigAooooAKKKKACiiigAooooAKKKKACiiigAooooAKKKKACiiigAooooAKKKKACiiigAooooAKKKKACiiigAooooAKKKKACiiigAooooAKKKKACiiigAooooAKKKKACiiigAooooAKKKKACiiigAooooAKKKKACiiigAooooAKKKKACiiigAooooAKKKKACiiigAooooAKKKKACiiigAooooAKKKKACiiigAooooAKKKKACiiigAooooAKKKKACiiigAooooAKKKKACiiigAooooAKKKKACiiigAooooAKKKKACiiigAooooAKKKKACiiigAooooAKKKKACiiigAooooAKKKKACiiigAooooAKKKKACiiigAooooAKKKKACiiigAooooAKKKKACiiigAooooAKKKKACiiigAooooAKKKKACiiigAooooAKKKKACiiigAooooAKKKKACiiigAooooAKKKKACiiigAooooAKKKKACiiigAooooAKKKKACiiigAooooAKKKKACiiigAooooAKKKKACiiigAooooAKKKKACiiigAooooAKKKKACiiigAooooAKKKKACiiigAooooAKKKKACiivvz4U/sZ/CWDwXpd5460mfXdXvrWO6uHa+mhiiZ1DeXGsLrkLnGWyTgnjOBvQw88Q2o9D5ziPijA8L0YVsbzPndkopNu2+7S09T4Dor9LP8Ahj/9nX/onf8A5Vr7/wCPUf8ADH/7Ov8A0Tv/AMq19/8AHq6v7Mrd1+P+R8f/AMRdyT/n1V/8Bh/8mfmnRX6Wf8Mf/s6/9E7/APKtff8Ax6j/AIY//Z1/6J3/AOVa+/8Aj1H9mVu6/H/IP+Iu5J/z6q/+Aw/+TPzTor9J7n9jn9nie3eGLwLLbu64WWPVrwsnuN0pXP1Br4b+O3wkvPgz8QLvwq80tzYSILrTbqRcGa3bON2ONykMpx3XOACKwr4Oph480tj6Hh3jrK+JcRLC4VSjNK9pJK662tKWx55RRRXKfZBRRRQAUUUUAFFFFABRRRQAUUUUAFFFFABRRRQAUUUUAFFFFABRRRQAUUUUAFFFFABRRRQAUUUUAFFFFABRRRQAUUUUAFFFFABRRRQAUUVd0bRdY8RalBo2g6Xdajf3LbYba1iaSRz14VRk8c/hQtRSnGEXKTskUq/Rv9kD4rD4jfC+DR9QuN+s+Fwmn3OT80kGP3Ev4qpQnqTGT3r4G8X/AA78c+AZYIfGfhXUdINyCYWuoSqyY67W+6SMjIByMjNdd+zj8VG+EvxQ07W7qcppF9/oGqL2+zuR+8/4AwV/XCkd668JVeHq+9onufE8aZNS4oyWTwrU5w96DWt2t0mv5ldetux+jnxF8T6t4L8F6t4r0Xw7/blxpVubo2IufIMsa8ybX2PyF3MBt5xjvXy3/wAPEP8Aqj//AJcH/wBzV9igxzR5G2SORfqGB/mK/Mb9pT4Ut8Jvihf6TZ25TR9SzqGlkD5RC5OYx/uNuXHXAU969LHVK1FKdN6H5L4dZZked1qmAzSjzVPii+aauuq92SWm6679j3T/AIeIf9Uf/wDLg/8Auaj/AIeIf9Uf/wDLg/8AuavjeivN+v4j+b8F/kfrX/EOOGf+gb/yep/8mfp58Afj1pXx20LUNQt9I/sfUNLuBDc2BuvPKxsMxyB9iZDYcdOCh9q5n9sT4T/8LC+GcniDTLXzNZ8Lb72HavzS22B58fv8oDj3TA618c/s4/FVvhL8UNO1u6mKaRff6Bqi9vs7kfvP+AMFf1wpHev09BjmjyNskci/UMD/ADFenh6ixlFxnv1/zPyLifLJ8B8QUsZl6tTfvQ1fTSUG3r/wJI/HKivVP2lPhS3wl+KF/pNnblNH1LOoaWQPlELk5j/4A25cdcBT3ryuvDnB05OMt0f0Tl+Oo5lhaeMw7vCaTXz/AFWz8woooqTrCiiigAooooAKKKKACiiigAooooAKKKKACiiigAooooAKKKKACiiigAooooAKKKKACiiigAooooAKKKKACiiigAooooAKKKKACvvz9i34LjwV4PPxE16z2614kiBtVdfmtrHqv0Mhw5/2QnvXzH+zD8G3+L3xEhi1K3ZvD+i7bzVGx8sgz+7g+shBB/2Vc9QK/SwmG1gLMUhhhX2VUUD8gAK9XLsPd+2l8j8Y8VOJvZQWSYZ+9KzqW7fZj8935W7nGfGb4aaf8Wfh5qng68WNbiaPzrCdx/qLpMmN89QM/Kcfwsw71+V2padfaPqF1pOpWz293ZTPb3ELjDRyIxVlPuCCK/XXw34k0Pxfodp4k8N6hHfabfIZLe4jztcAkHryCCCCPUGvif8Abm+Ev/CP+KLX4paPa7bDXmFvqAUcR3qr8rH08xF/76jYn71aZjR54qtHp+R5Xhbn0sBjJ5JitFNtxT6TW8fK6X3q27PbP2Nvix/wn/w0Twzqlzv1jwrss5NzfNLakHyJPfABQ/7gJ61f/a4+E/8Awsr4Xz6jptt5mteGt+oWe1ctJEB+/iHc5UbgB1aNR3r4m/Z++KU3wk+J2meJJJHGmTt9i1RB/FayEbmx3KEK490x3r9RoZobmFJ4JElilUOjqcqykZBBHUEVphZrFUHTlutP8jzeMcBW4O4ihmeDVoTfPHtf7cfR3+6Vj8cqK9e/ai+E/wDwqn4pXtvYW3l6LrWdR03aPlRGb54R2Gx8gD+6U9a8hrxKkHTk4y3R/QOXY+jmmEp4zDu8JpNf5eq2fmFfoj+xt8WP+E/+GieGdUud+seFdlnJub5pbUg+RJ74AKH/AHAT1r87q9H/AGfvilN8JPidpniSSRxpk7fYtURf4rWQgM2O5QhXHumO9dGDrewqpvZ7nzvHHD/+sOUzpU1erD3oeq6f9vLT1s+h9s/tcfCf/hZXwvn1HTbXzNb8Nb9Qs9q5aSID9/EO5yo3ADq0ajvX5v1+xsM0NzCk8EiSxSqHR1OVZSMggjqCK/M/9qL4T/8ACqfile22n23l6JrOdR03aPlRGY74R2Gx8gD+6UPeuzMqO1aPzPg/CfiC6nktd6q8of8At0f/AG5f9vHkVFFFeSftYUUUUAFFFFABRRRQAUUUUAFFFFABRRRQAUUUUAFFFFABRRRQAUUUUAFFFFABRRRQAUUUUAFFFFABRRRQAUUUUAFFFFABU1jY3mp3tvpun28lxdXUqwwwxrlpJGICqB3JJAqGvrL9h34Mf2vq0vxe8QWmbPTHa30dHXiS5xh5sHqEB2g/3mPdK1oUnWmoI8biDOqPD+X1MdW+ytF3k9l83v2V30Ppf4B/CWz+Dvw7svDe2N9Tn/0vVZ158y5YDIB7qgwi+y56k15d+2t8aP8AhDvCS/DfQbvbrHiOI/bGRvmt7HJDfQyEFf8AdD+1e++NvGGjeAfCup+MPEE3lWOl27TSY+856Ki56szEKB6kV+VfxB8caz8R/GOqeNNekzd6lMZNgOVhjHCRr/sqoCj6etevjaqw9JUobv8AI/EOAslrcUZxPOcw96EJczv9qb1S9I726e6tmfTf7CPxa+y3178IdYuv3d3vv9I3HpKBmaEfVRvA/wBl+5r6s+JngPS/iZ4G1fwTq2Fi1KArHLjJhmHzRyD3Vwp98Ed6/Kfw9r2qeFtdsPEmi3Bgv9MuI7q3kH8LowIyO445HcZFfqz8NPHml/EzwPpHjXSSBFqVuHki3ZMEw+WSM+6uGHvgHvU5fVVWm6Mun5HR4mZLUyfMqeeYP3VNptr7NSOqf/byV/VM/KbxBoOqeF9cv/DmtWxt7/TbiS1uIz/C6MQceo44PcYNfe/7FnxY/wCE3+HZ8Gapc79W8KhbddzfNLZHPkt77MGM+gVPWvNP27vhL9kv7L4u6Pa/urzZYavsXpKBiGY/7yjYT/sp3NeBfAv4nXHwl+JWleLFZ/sIf7LqUa/8tLSQgPx3K8OB/eRa5KbeCxHK9v0Pt8ypUvEHhdV6K/epcyXapH4o/PVL1TPuz9qz4T/8LR+Ft22n2vma3oG7UdP2j5pNo/ewj/fQcDuypX5qV+xdrdW99aw3tnMk0FxGssUkbZV0YZDAjqCCDX5uftYfCf8A4Vf8UbmbTrby9E8Q7tRsNo+WNi376Ef7rnIHZXSt8yo7Vo/M+a8J8/cXUySu+8of+3R/9u/8CPF6KKK8k/bj9B/2LPix/wAJv8Oz4M1S636t4V2267m+aWyOfJb32YMZx0Cp610f7Vnwn/4Wj8LbptPtfM1vQN2o6ftHzSBR+9hH++g4HdlSvhT4F/E64+EvxK0rxYrP9hD/AGXUo1/5aWkhAkGO5XhwP7yLX6mWt1b31rDe2cyTQXEayxSRtlXRhkMCOoIINe7hJrE0HTl00P5y41y+twjxDDNcErRm+ePbm+3H0d/ulY/HSivaP2r/AIT/APCr/ijdTadbeXoniHdqNhtGFjYn99CP91zkDsrpXi9eLUg6cnCW6P3/ACzMKObYOnjcO/dmk1+q9U9H5hRRRUHcFFFFABRRRQAUUUUAFFFFABRRRQAUUUUAFFFFABRRRQAUUUUAFFFFABRRRQAUUUUAFFFFABRRRQAUUUUAFFFFAHQfD7wfefEDxtovguxmWGXV7xLfzWGRGpOXfHfaoY474r9W/CvhnR/BnhzTvCugWog0/S7dbeBO+B/ET3YnJJ7kk1+TfhDxRqfgrxRpfizR2C3mk3Ud1Du6MVOdp9iMg+xNfq74H8YaT4+8I6V4x0OTdZ6rbrOgzkoejRt/tKwZT7qa9fK+X3u/6H4h4wRxl8NL/lxr/wCB+f8A27t/28fGH7b3xmPiTxJH8KtBus6boUnm6kyHia9xxH7iMHH+8zZ+6K+Wq+qv26PhJ/YfiS1+Kmj2uLLWyLXUgq8R3ar8jn08xF/76Qk8tXyrXDjOf20uf+kfoPAv1L+wMP8AUfht73fn+1f5/hboFfU37DPxa/sHxRdfC3WLrbY68TcacWbiO8VfmQenmIv/AH0igctXyzVnTdSvtH1G11bTLl7e8spkuLeZDho5EYMrD3BANZ0aro1FNHrZ/k9LPsuq4Cr9paPtJap/J/hofrZ428I6T488J6r4P1yPfZarbNbycZKE8q65/iVgGHuor8o/GnhPVvAvirVPCGuReXe6VctbyejY+66/7LKQwPowr9Qvg38SLH4sfDvSfGdrsSa5j8q9hX/lhdJxInsM8jPVWU96+dv27vhL9ps7L4vaPa/vLXZYaxtXrGTiGY/RjsJ/2k7CvWx1JVqSqw6fkfifhxnFXIc3qZLjfdU3y2fSotP/ACbbzfKdX+xH8WP+Ev8AAcvw/wBWud+qeFwFt9x+aWxY/J9fLOU9l8v1ruP2nvhR/wALW+F19ZWNv5mtaRnUdMwPmeRAd8Q/30yoH97Ye1fAPwY+JN58J/iNpPjK33tbwSeTfQr/AMtrV+JF9zj5h/tKp7V+qNhfWeqWNtqen3CXFrdwpPBMhyskbKGVgfQgg08HUWJounLpoYcc5bW4U4ghm2C0jN867KS+KPo9/STXQ/HfpweCKK9y/a8+E/8Awrf4oTarptt5ei+J9+oWu0YWObP7+IfRiGA6BZFHavDa8apTdKbhLofvmVZlRzfBU8dQ+Gav6d16p6PzQV9+/sR/Fj/hL/Acvw/1a536p4XAW33H5pbFj8n18s5T2Xy/WvgKu3+DHxIvPhR8RtJ8ZW5dreCXyb6Ff+W1q/Ei+5x8w/2lU9q1wtb2FRS6dTxOM8gXEOU1MPFfvI+9D/Eun/byuvnfoff37T3wo/4Wt8Lb6zsbfzNa0jOo6ZtHzPIinfEP99MgD+9sPavzK6cHgiv2IsL6z1SxttT0+4S4tbuFJ4JkOVkjZQysD6EEGvzp/a8+E/8Awrf4oT6rptt5ei+J9+oWu0YWObP7+IfRiGA6BZFHau/MqN0q0fmfnHhRn7pzqZJiH3lC/f7Uf/breUjw2iiivIP3EKKKKACiiigAooooAKKKKACiiigAooooAKKKKACiiigAooooAKKKKACiiigAooooAKKKKACiiigAooooAK9J+CPwK8VfHDXLnT9EnhsLDT0V77UJ1LJDuztUKOWdsHAyOFOSO/n+mabf61qVrpGl2slzeXsyW9vDGMtJI7BVUe5JAr9SPgb8K7H4P/DzT/CkAjkviPtOpXC/8t7pwN5z3VcBV/2VHfNdmDw31ifvbI+F484rfDWBSw7Xt6mketkt5NeWy831sz4X+On7Lviz4J6fb+IH1a31zRZ5RbvdQwtE8EpyVEkZLYBwcMGIyMHGRn079hP4t/YNUvPhHrN1iDUC19pJY/dnVcyxD/eUbwOmUbu1fXnjjwfpPj/wjqvg3XI91nqtu0DnGTGeqyL/ALSsFYe6ivyy1bT/ABR8I/iFNYySNZ654Z1EFJF6CSNgySL6qw2sPVWHrXRWp/Ua0alP4T5nIM0/4iHkuIynMWvbx1Ttb/DKy7PSVuj8z9RviN4H0r4keCdW8F6wo+z6nbmNZNuTDKOY5B7q4Vvwr8pvE3h3VfCPiHUfDGuW5gv9LuHtbhO25TjIPcHqD3BBr9UfhZ8QdN+KHgPSfGumbVF/CPPhBz5E6/LLGfowOM9Rg96+X/27vhJ5cll8YNGteJNmn6xtX+LpBMfqP3ZPtGK2x9JVaarR6fkfPeGudVMlzSpkmM91TbVn9motLf8Ab1reqifHdFFFeKf0CfSH7E/xa/4Q3x4/gHVrnbpXillSHcflivhxGfbePkPqfL9K+7/EWgaX4q0HUPDet24nsNTt3tbiM90dSDg9jzkHsQDX5B29xNazx3VtM8U0LiSORGwyMDkEEdCDX6j/AAB+KcPxc+Gem+JnkT+0oR9j1SNeNl0gG447BwVcDsHx2r2Murc0XRkfhHipkMsJiaeeYXTmaUrdJL4ZfNK3ql1Z+bfxK8Cap8NPHGr+CtXBM2m3BRJduBNEfmjkHsyFT7Zx2r7M/Yc+LH/CTeDbn4a6tc7tR8NjzLPceZLF26e/ludvsroO1Vf25/hL/b3hm1+Kej2u6+0IC21EKvMlmzfK59fLdv8AvmRieFr5G+EvxE1D4WfEDSPGljvdbKbbdQqf9fbN8ssfpkqTjPRgp7Vzq+BxPl+h9VP2fiJwrdW9vH8KkV+CkvuUvI/Q/wDaQ+FS/Fr4X6hotrAH1ew/4mGlt3M6A/u/+BqWT0yVPavzCZWjYo6lWU4IIwQa/YTSdUsNc0u01rSrlLiyv4EubeZOkkbqGVh9QRX57/tkfCf/AIV/8TH8SaXbbNG8VF7yPavyxXQI8+P2ySHH++QPu1vmVG6VaPzPmfCnPpUa1TI8Q7XvKF+jXxR+7W3k+54FRRRXkH7mfeX7DnxY/wCEm8G3Hw11a43aj4bHmWe48yWLt09/Lc7fZXQdq9M/aQ+FS/Fr4X6ho1rAH1ew/wCJhpbdzOgP7v8A4GpZPTJU9q/PD4S/ETUPhZ8QNI8aWO91sptt1Cp/19s3yyx+mSpOM9GCntX6raTqlhrml2mtaVcpcWV/AlzbzJ0kjdQysPqCK9zB1FiKLpT6afI/nXjzLK3C+fU83wWkZvnXZTXxL0e/ndrofj2ytGxR1KspwQRgg0le+ftkfCf/AIV/8TH8SaXbbNG8Vb7yPavyxXWR58ftkkOP98gdK8DrxqtN0puEuh+85RmdHOcDSx1D4Zq/o+q9U7phRRRUHohRRRQAUUUUAFFFFABRRRQAUUUUAFFFFABRRRQAUUUUAFFFFABRRRQAUUUUAFFFFABRRRQAUUV1/wAJ/hxq3xW8d6Z4L0ncn2uTfdThci3t15kkP0HQHqxUd6cYuT5Y7mOJxFLCUZYitK0IptvslufRv7DXwY+2Xk3xi8QWuYLRntdFR14eXlZZx6hQSin1L91FfWnj7xto3w68H6p4y16TbaaZAZSoOGlfoka/7TMQo9zV/wAO+H9J8KaDYeG9DtVttP023S2t4l/hRRgZPcnqT3JJr4a/bY+M/wDwl3itPhpoN3u0jw7KWvWRvlnvsEEe4jBK/wC8X9BXvNxwOH03/U/m6hDEeI/ErnO6pdf7tOOy9X/6U29j7E+EPxK034s+ANM8aaeqxPdIY7u3Vs/Z7lOJI/XAPIz1Uqe9fOX7d3wk+02dl8XtGtf3lrssNYCL1jJxDMfox2E/7UfYV59+xP8AFz/hDPHj+AtWutmk+KWVIdzfLDfDiM+28fIfU+X6V93+IdB0vxToV/4b1q2E9hqdu9rcRn+JHUg49DzkHsQDRBrHYez3/UeOo1fDzidVqKfsr3XnTlvH1W3qkz4d/Yf+Lf8Awi/jCf4a6xdbdN8SN5llub5Yr5RgAenmKNvuyxjvX274s8MaT408Nal4U1yDzbHVbZ7aZe4DDhh6MDgg9iAa/LL4geD9e+EPxEv/AAzcTyw32iXgktbpPlLoCHhmU9sja3seOor9JPgb8T7X4ufDfS/FsbIL0r9l1KJf+WV2gAcY7BshwP7rrWWAq3ToT3R6/iVlMaVajxHl79ypy3a/mteMvmvxXdn5m+PvBerfDvxlq3gvWlxdaXcNCWxgSp1SRf8AZZSrD2IrAr7f/bq+En9raHZ/FjRrXN1pIWz1QIvL2zN+7kP+47bT7OOy18QV5mJo+wqOPQ/XOFM+jxFldPGfb2mu0lv9+68mgr3r9jv4tf8ACu/iUnh/VLry9F8UlLObcfliucnyJPblih9nyfu14LQrMrBlJBHII7VnSqOlNTj0PSzbLKOcYGpgcR8M1b07P1Ts0fsNqem2Os6bdaRqlqlzZ3sL29xC4yskbqVZT7EEivyt+MXw3vvhR8Q9W8GXm94baXzLKZh/r7V+Yn9CccHHRlYdq/QL9mX4sr8WfhhZX99cCTWtJxp+qAn5mkUDbKf+ui4bPTdvA6Vw/wC218Jf+Ex8Bx+P9Jtd2q+F1Zp9q/NLYk5kHv5Z+ceg8z1r2cZTWJoqpDpqfgvA2Z1uFM+nlOO0jN8j7KS+GXo9r9mn0Mn9hb4sf274XvPhbq1zuvdCButP3Hl7N2+ZB67Hb8pFA4WvX/2g/hbF8XPhjqfhuKJTqduPtuluf4bqMHauewcFkP8Av57V+cHww8fal8MfHekeNtL3M+nXAaWIHHnwH5ZIz/vIWHscHtX6taHrWm+JNFsfEGj3K3FjqNvHdW8q9HjdQyn24PSjBVFiKLpT6fkX4gZXW4azynnGC0VR8y8pr4l89/O7XQ/H+aGW3leCeNo5I2KOjLgqw4IIPQim19D/ALaXwn/4Qf4jDxlpdrs0jxWWuG2r8sV6MecvtuyJB6lnx0r54rx6tN0puEuh+65NmlHOsBSx1Haav6Pqvk7oK+6P2Fvix/bvhe8+FurXO690IG60/ceXs3b5kHrsdvykUDha+F66j4YePtS+GPjvSPG2l7mfTrgNLEDjz4D8skZ/3kLD2OD2q8NW9hUUunU83i7IY8RZVUwn2170P8S2+/Z+TP0f/aD+FsXxc+GOp+G4olOp24+26W5/huowdq57BwWQ/wC/ntX5dTQy28rwTxtHJGxR0ZcFWHBBB6EV+wGh61pviTRbHxBo9ytxY6jbx3VvKvR43UMp9uD0r4E/bS+E/wDwg/xG/wCEx0u22aR4rL3B2r8sV6MecvtuyJB6lnx0r0cxo80VWifl/hVn0sNiKmR4nTmvKN+kl8Ufmlf5PufPFFFFeOfuoUUUUAFFFFABRRRQAUUUUAFFFFABRRRQAUUUUAFFFFABRRRQAUUUUAFFFFABRRRQAUUUUAFfof8Ase/Bf/hW/gQeKtbtdmv+Jo0mcOvzW1p1ii56E53t7lQfu18w/smfBf8A4Wp8QE1XWbXzPDvh1kurzcvy3E2cxQe4JG5h/dUg/eFfozdXVrYWs19eTxwW9vG0sssjbVjRRlmJPAAAJzXrZdh/+X0vkfifipxK/dyPCvV2dS33xj/7c/8At3zPK/2lvjFH8H/h1cX1jMo17Vt1npKd1kI+ebHpGpz6bigPWvzLllkmkeaaRpJJGLO7HJYnkkk9TXpX7QnxdufjF8RbzXo5JF0izzZ6TC3G23Un5yOzOcsfTIH8IrzOuTGYj29TTZbH2/AnDS4dyxKqv31S0p+XaP8A26vxbHwTzWs0dzbyvFLEweORGwysDkEEdCDX6ifs+/FSH4u/DPTvEkkif2pbj7Fqka8bbpANzY7BwVcem7Havy4r6B/Yr+IeqeFPixD4ThhnudO8Uoba4hjUt5csas8c2PRcMGPZWJ7CqwNb2VXl6M5fEbII5zlEq8F+8o3kvT7S+5X9Uj2v9uT4Sf8ACReFbb4oaPa7tQ8Pr5GoBV5ksmbhj6+W5z/uu5PSvFf2M/i3/wAID8Rh4T1a62aN4qZLVtx+WG8HEL+24kof95Sfu1+g2oWFnqthc6XqNulxaXkLwTwuMrJG6lWUj0IJFflB8TPC0XgH4jeIPCdjdtLFo+pSwW8275tit8mSP4gMZ9wa6cbF0Ksa8T5DgDF0+JcmxHDeN15VeL7Rb0+cZar1tsj9W9Y0nT9e0m80PVrVLmy1CB7a4hbpJG6lWU/UE1+Vfxb+HeofCv4gat4Lv97rZzbrWZh/r7ZuYpPTJUjOOjBh2r9DP2bPiwvxc+GNjq15OH1nTcWGqrnkzIBiXHo64b0yWA6V55+258JP+Eu8ERfETSLXdqnhhT9q2r80tgxy2fXy2O/2UyVtjKaxNFVIdNTw+BM0rcK59PKMdpGb5H2U18L9Ht5pp9D4Gooorwz+ij2T9lX4tf8ACq/ifajUbny9D17bp+o7mwseT+6mP+4x5PZWev0ouLeC7t5LW6hSWGZDHJG65V1IwQQeoIr8c6/SH9kn4tf8LM+GMGn6ldeZrnhrZYXm45aWLH7mY+u5QVJ7sjHvXrZbX3oy+R+J+K/D3wZ3h1qrRn/7bL/21/8Abp8R/H34Wz/CP4man4YWN/7Nlb7Zpcjc77Vydoz3KkMhPcoT3r6Y/YT+LH9qaHffCfV7nNzpW6+0vc3LWzN+9jH+47Bh7SHstdv+2L8Jf+Fh/DV/EWl2u/WvCwe8h2j5pbbA8+P34Ace6YH3q+Dfh3431T4c+NdI8aaOx+0aXcLKY92BLGeJIz7MhZT9aykvqOJ5l8L/ACPZwdSHiHwq6FR/v4af9vxXuv8A7eW785dj9Lvjt8Mbf4t/DXVfCZRPt237Vpsjf8s7uMEpz2DZKE/3XNflndW1xZ3MtndwvDPBI0csbrhkdTgqQehBGK/Xrw34h0vxZ4f07xNolwJ7DU7aO6t39UdQQCOxHQjsQRXwl+218J/+EP8AH0fj7SbXZpfiklp9q/LFfKP3g9t4w/u3melb5jR5oqtE+a8K89lg8VUyPFaczbjfpJfFH5pX9U+583UUUV45+8H27+wn8WP7U0O++E+r3ObnSt19pe5uWtmb97GP9x23D2kPZa9z+O3wxt/i38NdV8J7E+37ftWmyN/yzu4wSnPYNkoT/dc1+aPw78b6p8OfGukeNNHY/aNLuFlMe7AljPEkZ9mQsp+tfq54b8Q6X4s8P6d4m0S4E1hqdtHdW79yjqCAR2I6EdiCK9vA1FXpOlLp+R/PPiHlVXh3Oqec4LRVHzelRav/AMC38/ePyFura4s7mWzu4XhngkaOWN1wyOpwVIPQgjFR19I/ttfCf/hD/H0fj7SbXZpfikl59o+WK+UfvB7bxh/dvM9K+bq8itTdGbg+h+5ZJmtLO8vpY+jtNbdn1Xyd0FFFFZnqBRRRQAUUUUAFFFFABRRRQAUUUUAFFFFABRRRQAUUUUAFFFFABRRRQAUUUUAFXNH0jUvEGrWeh6PaPdX1/Oltbwp1kkdgqqPxNU6+xf2Gfgvveb4yeILT5V32mho69TystwPpzGp/66e1bUKLr1FBHhcSZ5R4ey6pjqurWkV/NJ7L9X5Js+kvgv8AC/TfhD8P9O8H2WyS4jXz9QuFH/HxdMBvf6cBV/2VWvDf24PjP/YOhR/CbQLrF/rEYm1V0bmK0z8sXHQyEcj+6vPD19DfEbx5o/wz8F6p401x/wDR9OhLLGGw08p4jiX3ZiB7ZyeAa/Kzxh4s1jxz4o1Lxd4guPOv9UuGuJm7DPRV9FUAKB2AAr1cdWVCmqMOv5H4x4eZHW4izSed4/3owle7+1Uev3R3/wDAehj0UUV4h/QgV9zfsO/Bz+wfD8/xY1y1xf60ht9LV15itAfmk56GRhx/sqCOGr5c+A3wpu/jB8RtP8Lqsi6dEfteqTLx5VqhG7B7MxIQe7A9Aa/UaxsrTTbODTrC3jt7W1iWGGKNcLHGoAVQOwAAFenl1Dml7WXTY/IPFTiT6rh1k+HfvVNZ+Uei/wC3n+C8zifjd8UrH4Q/DvUfF1xse8C/Z9Ogb/lvdODsXHcDBZv9lWr8tNS1G+1jULrVtSuXuLy9me4uJpDlpJHYszH3JJNe2ftcfGP/AIWd8RH0bR7rzNA8NM9palW+WefOJpvcEgKp/uqCPvGvC6xx2I9tU5Vsj3/Dvhv+wssVesrVq1pPyX2Y/q/N26HtH7KPxb/4Vb8TreHUrry9D8Q7dP1DccLGxP7qY/7jHBPZXev0jura3vLeWzu4UmgnRo5Y3XKujDBUg9QQcV+OlfpF+yX8W/8AhZ3wygsdTuvM1zw3ssL3cctLHj9zMfXcoKk92Rj3rpy2vvRl8j5LxX4etyZ3h12jP/22X/tr/wC3T4g+PXwtuPhF8StT8LhH/s6RvtelyNz5lq5OznuVIKE+qE9688r9FP2xPhJ/wsT4bP4i0q13634WD3kO0fNNbY/fx++AA490wPvV+ddceLoewqWWz2PvuCOIf9YcphVqP97D3Z+q6/8Aby19broFeofs4/FaT4R/E7T9bupmXSL7/QNVXt9ncj95j1Rgr+uAR3ry+iueE3TkpR3R9Jj8FRzLC1MJiFeE00/n+vbzP2NVoriIMrJJHIuQRyrKf0INfmV+0x8J2+EvxPvdPsbcpouq51DSyB8qxOTuiH+42Vx127CetfWf7GPxa/4Tz4df8Ijq11v1jwqEtvmb5prM/wCpf324MZ9Nqk/erf8A2q/hL/wtP4YXLaba+ZrmgbtQ0/aPmkAH72Ef76jgd2VK9zEQWLw/PHff/NH888L42twPxJPL8Y7U5Pkl2/uT/G/lFs8o/YP+LH2qwv8A4R6vc/vLPdqGk7m6xE/voh9GIcD/AG3PavoX40/DWz+LHw51bwdOEW5mj86wmb/ljdJzG2ewJ+U/7LNX5ieBvGGreAPF2leMtFfbeaVcrOi5wJFHDxt/sspZT7Ma/Vzwj4o0nxp4Z0zxZoc3m2Oq2yXMJ7gMOVb0ZTlSOxBFRgaqrUnSl0/I7PEbKKuQZxTzrB+6qj5r9qkdX/4Fv5vmPyNvrG80y+uNN1C3eC6tJXgnicYaORSVZSOxBBFQV9OftxfCf/hGPGlv8SNJttuneJD5d5tHyx3yryT6eYg3e7JIe9fMdeRWpOjNwfQ/b8izelnmX0sfR2mtV2ezXyYV9p/sH/Fj7VYX/wAI9Yuv3lnu1DSdzdYif30Q+jEOB/tue1fFlbngbxhq3gDxdpXjLRX23mlXK3CLnAkUcPG2P4WUsp9mNVh63sKimcnFORw4hyupgn8W8X2ktvv2fk2fp38afhrafFj4c6t4OnCLczR+dYTN/wAsbpOY2z2BPyn/AGWavyvvrG80y+uNN1C3eC6tJXgnicYaORSVZSOxBBFfrl4R8UaT408M6Z4s0ObzbHVbZLmE9wGHKt6MpypHYgiviL9uL4T/APCL+NLf4kaTbbdO8Sny7zaPljvlXk+3mIN3uyyHvXp5jR54qtHp+R+TeFueTwGMqZHitOZtxT6TXxL5pffHzPmOiiivGP3oKKKKACiiigAooooAKKKKACiiigAooooAKKKKACiiigAooooAKKKKACiiigDtPg78M9U+Lfj7TfBun744p286+uFGfs1quDJJ6ZxgDPVmUd6/U7Q9F0zw3o1l4f0W0S2sNOgS2t4V6JGgAA9+B1714r+yN8GP+FY+AF17WrXZ4h8SKlzch1+a3t+sUPPIODuYf3mwfuitb9qD4yL8Ivh3M2m3ATxBre+z0tQfmjOP3k/0QEY/2mTtmvdwtKOFoupPc/nLjPNq/GWeQyrL9YRfLHs5fal6Lv2V+p8xfto/Gj/hN/GS/D3QrvfovhqVluGRvluL7kOfcRjKD3MnYivm6lZ2kZpJGLMxyzE5JPqaSvGq1ZVpucup+85LlNDI8DTwOH+GC37vq35t6hRRXvn7H3wc/wCFkfEJfEmsWu/QfDDJczBl+W4us5hi54IBG9h6KAfvUqVN1ZqEepebZnQybBVMdiH7sFf1fRLzb0R9Ufso/B3/AIVV8OYrzVrXy/EHiEJeX+5fmhTH7qA+m1SSR/edh2FQftbfGP8A4Vf8O30nSLry/EHiRXs7Qq3zQQ4xNN7EAhVP95wR9017VqOoWOk6fc6rqV1HbWlnC9xcTSHCxxopZmJ9AATX5bfHD4pX3xe+Imo+LJjIllu+zabA3/LG1QnYMdicl2/2mPavaxVRYSiqcN9v+CfgPB+WV+NM/nmmP1hF88uzf2Yeitt/KrdTgaKKK8I/o8K9P/Zz+K8nwj+J2n65czMukX3+g6qnb7O5H7zHqjBX9cKR3rzCiqhN05KUd0cmPwVHMsLUwmIV4TTT+f69vM/Y1HiuIVkjZJIpF3KynKsp7jsQRX5mftOfCVvhL8Tryxsbcx6Jq+dQ0sgfKkbH54R/1zbK467dhPWvq79i/wCLf/CdfD0+DNWut+seFVSBdzfNNZHiJvfZgxn0Cpn71dN+1L8Jf+FrfDG6j0628zXND3ahpu1ctIQP3kI/31HA/vKnpXuYiCxlDnjvv/mj+eeGcbW4G4knl+MdqcnyS7W+xP8AG/kmz80aKKK8E/pE774G/E66+EnxI0vxbGzmyD/ZtSiX/lraOQJBjuRgOB/eRa/UyzvLXULOC/sbhJ7a5jWaGWM5WRGAKsD3BBBr8da+9f2H/i1/wlXgyf4b6vdbtS8NLvs9zfNLYscAD18tjt9laMV6mW1+WXsn12Px7xW4e+sYeOcUF70Pdn5xez+T09H5Hzv+1r8Jf+FY/E6e+0218vQ/Em/ULLaMLFIT++hHptYhgOyuo7V65+wf8WMrf/CHWLnpv1HR9x/7/wAI/SQD/roa92/aO+FKfFz4Y3+i2sKtrFh/p+lN389Af3efR1LJ6ZKntX5s+E/E2seBPFem+KNIZoNQ0e6W4jDAj5lPzIw9CMqR6Eipqp4LEKcdn/TN8krQ4+4Wnl9d/v6aSu/5l8EvmtH394/Ub4ufDux+Knw91fwXe7Ee8h3WszD/AFFyvzRP64DAZx1UsO9flVqmmX+i6nd6Pqls9veWM721xC/3o5EYqyn3BBFfrV4H8XaV4+8I6V4x0STdZ6rbLcIM5KE8Mjf7SsGU+6mvjH9uj4T/ANg+KbT4o6TbbbHXiLbUNo4jvEX5WPp5iL+cbE9a3zCiqkFWj0/I+d8Ls7nluOqZHitFNuyfScd180vvil1PlmiiivGP3w+yf2D/AIsZW/8AhDrFz036jo+4/wDf+EfpIB/10NfS3xc+Hdj8VPh7q/gu92I95DutZmH+ouV+aJ/XAYDOOqlh3r8t/B/inVvBPijTPFmhzeXfaVcpcwnsxU8q3qrDKkdwTX6u+B/F2lePvCOleMdEk3Weq2y3CDOShPDI3+0rBlPupr28BVVam6Mun5H8+eJOT1cjzannWD91Tad10qR1/wDJt/N8x+SuqaZf6Lqd3o+qWr295YzvbXEL/ejkRirKfcEEVVr6m/bo+E/9g+KbT4o6TbbbHXiLbUNq8R3iL8rH08xF/ONietfLNeTWpOjUcGfteQZxTz7LqWPpfaWq7SWjXyf4ahRRRWR7AUUUUAFFFFABRRRQAUUUUAFFFFABRRRQAUUUUAFFFFABRRRQAV71+yH8GP8AhZnj4eItatN/h7w06XE4dflubnrFDzwRkb2HooB+8K8U0HQ9U8Ta1Y+HdEtHub/UbhLa3iXqzscD6D1PYZNfqd8Ifhrpfwl8A6b4M03Y726eZeXCrj7TctgySHvyeBnoqqO1d2Bw/tqnNLZH554i8Tf2Hl31ahK1atdL+7H7Uv0Xnr0Orv76z0uxuNS1G5jt7W0ieeeaRsLHGoJZiewABNfl58evizefGL4iX3iZmkTTYf8ARdLgbjyrZSdpI7MxJdvdsdAK+l/24/jP/ZWlxfCHw/dYu9RVbnWHRuY7fOY4eOhcjcR/dA7PXxHWuY4jml7KOy3PE8LOGfqmHecYiPv1NIeUer/7e/JeYUUUV5h+vFvSdJ1DXdUtNF0m1e5vb+dLa3hQfNJI7BVUfUkV+pvwZ+GOn/CP4e6Z4Os9jzxL51/cKP8Aj4unAMj/AE4Cr/sqor5i/YX+Dn22+uPjBrtrmCzL2ejK68NLjEs4/wB0HYD6s/da+s/iF440f4ceDdV8aa4+LXTIDJsBw00h4SNf9pmKqPrXtZfRVODrT6/kfgXiZn1TNsfDIsF7yg1dL7VR6Jf9u3t6t9j5v/bm+Mf9k6Pb/CPQrrF3qirdauyNzHbA5ji46F2G4j+6o7PXxDWx4w8Wax458Uan4u16fzb/AFS4a4mPZc9FX0VQAoHYAVj15mIrOvUcj9b4WyGnw5llPBx+LeT7ye/yWy8kgooorA+iCiiigDuvgn8TLz4S/EbSvGEBdrWN/s+oQr/y2tHwJFx3I4Yf7SrX6nWF9Z6pY22p6fcJcWt3Ck8EyHKyRuoZWB7ggg/jX47192/sN/Fv/hIvClz8L9Yut2oeH18+w3HmSyZuVHr5bnH+66AdK9PLa/LL2Uuux+QeK3Dv1rDRzigvep6T84vZ/wDbr/B+R4N+158JP+Fa/EyXWNLtfL0PxOXvrXauFinz+/iHphiGA6BXAHSvC6/Ub9oT4VQ/F34Z6j4dhjQ6pbD7bpch423KA4XPYOCyH/ez2r8vJoZreaS3uIniliYo6OuGVgcEEHoQawx1D2NS62Z9F4ecRf25lSpVXerRtGXmvsy+a0fmmMrrvhP8Q9R+Fvj7SPGun7nFjNi5hU48+3b5ZY/TlScZ6EA9q5GiuSMnF8y3Pt8Th6eLoyw9ZXjJNNd09GfsJo2r6d4g0my1zSLpbix1C3S5t5l6PG6hlP4givz+/bN+Ev8AwgfxGPi3SbXZo/iovcjavyw3g/1ye24kSD/eYD7teufsKfFr+1dDvPhPrF1m60kNeaWXbl7Zm/eRj/cdtw9nPZa9y+Onwwtfi58NtU8JsqC+2/atNlb/AJZXaAlDnsGyUJ/uu1e7Uisbh+aO/wCp/OGV16vh/wATyw9d/um+WT7wl8Mvlo36NHzZ+wf8WPs95f8Awj1e5/d3W/UNI3N0kA/fQj6qA4H+zIe9fVHxQ8A6b8TvAer+CdS2quo25WGUjPkTr80Ug/3XCn3GR3r8sdF1fXvAXiy01ix8yy1fQ70SKrqQY5o25Rh9QVI9Miv1W+HvjbS/iL4L0jxpo7f6Nqlss2zOTFJ0kjPurhlP0rPAVVVpujPp+R6fiVk9TKMzp55gtFUad10qR1T/AO3lr6pn5Pa5oupeHdZvtA1i2a3vtOuJLW4ibqkiMVYfmKpV9Y/t2fCf+ytdsvixpFti21bbZaptHCXKr+7kP++i7T7xju1fJ1eVXpOjUcGftHD2c08/y2ljqf2lqu0lpJfft5WYV9ffsH/Fj7PeX/wj1e5/d3W/UNI3HpIB++iH1UBwP9lz3r5BrT8M+ItU8I+IdO8T6JcGG+0u5juoH7blOcEdwehHcEinh6roVFMjiTJafEGWVcDPdq8X2ktn9+/lc/VP4oeAdN+J3gPV/BOpbVXUbcrDKRnyJ1+aKQf7rhT7jI71+U2uaNqXh3WL7QNYtmt77TriS1uIm6pIjFWH5iv1h+HvjbS/iL4L0jxpo7f6Nqlss2zOTFJ0kjPurhlP0r5B/bs+E/8AZWvWXxY0i2xbattstU2jhLlV/dyH/fRdp94x3avUzCkqlNVo9PyPx7wwzqplWY1Mjxeim3ZPpUjo180reqS6nyfRRRXin78FFFFABRRRQAUUUUAFFFFABRRRQAUUUUAFFFFABRRRQAUUV3fwT+FuofF74had4RtPMjtWb7RqNwo/497VCN7fU5Cr/tMvanGLnJRjuznxeKo4GhPE4iVoQTbfkj6T/YZ+C/kwy/GTxBa/vJQ9roiOv3U5WW4H15jU+gf1FfTHxQ+IWj/C3wPqnjTWWDR2MX7mHdhriduI4l92bHPYZPQVv6TpOn6Fpdpouk2iWtlYQpb28MYwscaKFVR9ABXwF+2V8aP+FgeN/wDhCdDut+heGZGjZkb5bm9+7I/uE5Rf+BkcNXvTccDh7Lf9T+ccDQxHiNxI61a6pLV/3aa2j6vb1bkeF+KfE2seMvEWo+Kdeujcahqdw1xPJ23MegHZQMADsABWXRRXgN31Z/SlOnGlBU6aslol2SCum+GvgHVvib430rwVoykTajMFkl25EEI5klb2VQT78Dqa5mvX/wBln4neH/hT8VYtc8U5j0y+spdNmuAhf7NvZGEmByQDGAcc4Y9elXSUZTSlsefnNfFYbL61bBR5qqi3Fd3bTTr6ddj9HPC3hrSfBvh3TvC2g24gsNLt0toE77VHUnuxOST3JJrxz9pz4M/FD41x6VoPhfXdD0/QrEm5njvJplkuLk5VSQkbDaq5xz1dsjgV38fx0+C8sayL8VvCgDDI3atAp/EFsj8ad/wvH4M/9FW8Jf8Ag4t//i6+jn7KpDkb09T+V8vecZZjlmFKjJ1U27yg3q93qtz5B/4YB+LH/Q1+Ev8AwIuf/jFH/DAPxY/6Gvwl/wCBFz/8Yr6+/wCF4/Bn/oq3hL/wcW//AMXR/wALx+DP/RVvCX/g4t//AIuuX6nhe/4n2H+vfGH/AD7f/gp/5HyD/wAMA/Fj/oa/CX/gRc//ABij/hgH4sf9DX4S/wDAi5/+MV9ff8Lx+DP/AEVbwl/4OLf/AOLo/wCF4/Bn/oq3hL/wcW//AMXR9Twvf8Q/174w/wCfb/8ABT/yPkH/AIYB+LH/AENfhL/wIuf/AIxR/wAMA/Fj/oa/CX/gRc//ABivr7/hePwZ/wCireEv/Bxb/wDxdH/C8fgz/wBFW8Jf+Di3/wDi6PqeF7/iH+vfGH/Pt/8Agp/5Hxrq37B/xi07T5r2y1Xw1qUsSlha291MssuOymSJUz9WH1rx34eeNNc+EnxD07xRbQSxXmjXZS6tZAUZ0yUmhcHoSu5eeh56iv1Y0nV9K17ToNX0PUrbULG5XdDc20qyRSDOMqykg8gjj0r4W/bg+En/AAi/jKD4laPa7dN8SN5d5tX5Yr5Rkn28xRu92WQ9658VhI0YqrR6H0vB/G+Iz/FVMmzxRftE0tLa/ai15q9vNW6o+5PD+vaX4o0Ow8R6Lci4sNSt47q3kH8SOoIz6HnkdjkV8G/trfCT/hC/HyePNJtdmk+KWaSbavyw3w5kHtvHzj1PmeleifsJfFv7VZXvwh1m6/e2m+/0cu3WInM0I+jHeB/tP2FfRPxk+G1j8WPh5qvg272JNcR+bYzMP9RdJzG/sM8HHVWYd66ppY7D3W/6nx2Aq1vD3ih0azfsr2fnTltL1Wj9U0flJRVnU9NvtG1K60jVLV7e8spnt7iFxho5EYqyn3BBFVq8E/pWMlJKUdUzoPh/411b4d+MtJ8aaK3+laXcLNszgSp0eNvZkLKfY1+rfhXxLpPjLw3pvirQ5/OsNUtkuYG77WGcH0YHII7EEV+QlfZH7CHxa4vvhBrF1036ho+4/jPCP/RgH/XQ16OXV+Sfs3s/zPyzxS4e/tDArNKK9+j8XnB//IvX0cjkP23/AIS/8Ir40h+I+kWu3TPErFbvavyxXyjLE+nmKN3uyyGtv9hH4sf2brN98JtXucW+p7r7StzfduFX97GP95FDAesbd2r6t+LPw70/4qeANW8FahsQ3sO61mYf6i4X5opPXhgM46qWHevy4hl8R/DvxgsqiTT9c8Pah0P3obiF+QfXDLj0Iq8RF4TEKtHZ/wBM4eFsRT424ZqZLin+9pqyb8vgl8rcr8l5n6pfEXwPpfxI8E6v4K1gAQapbtEsm3JhkHMcg91cK34V+UniTw/qnhTX9Q8Na1bmC/0y5ktbhPR0Yg4PcHGQe4INfqv8MvHmm/EzwLpHjbS9qx6lbhpYgc+TMPlkjP8AuuGHuAD3r5S/bv8AhP8AY9QsPi5pFt+6vdun6ttXpKo/cyn/AHlBQnp8idzW2YUlVpqtHp+R4PhnnNTJ8zqZJjPdU20k+lSOjXzSt6pHyJRRRXin9AH1p+wj8WP7N1q++E2r3OLfU919pe4/duFX97GP95FDAesbd2r64+I3gfS/iR4J1fwVq4Ag1S3aJZNuTDIOY5B7q4Vvwr8odB1zUvDWtWPiHRrlre+024jureQfwyIwYH3GR071+rXwy8eab8TPAukeNtL2rHqVuGliBz5Mw+WSM/7rhh7gA969rL6qqU3Rl0/I/APE7JamU5lTzzCe6ptXa6VI6p/NK/qmz8qPEnh/VPCmv6h4a1q3MF/plzJa3Efo6MQcHuDjIPcEGs6vrv8Abv8AhP8AY9QsPi5pFt+6vdun6ttHSVR+5lP+8oKE9PkTua+RK8uvSdCo4M/Y+G86p5/ltLHQ3kveXaS3X37eVgooorE9wKKKKACiiigAooooAKKKKACiiigAooooAKKKKACv0h/ZP+DP/Cqfh6moaxa+X4i8QhLq+3L80EeMxQe20Elh/eYjsK+Yf2Ofgx/wsTx1/wAJhrlrv0DwzIkxDr8tzedY4/cL99vooPDV+geqanYaLpt1rGqXUdtZ2UL3FxNIcLHGilmY+wAJr18uoW/fS+R+H+KfEjqzjkWFd9nO3V/Zj/7c/wDt3zPH/wBqr4zD4T/D2S10m62eItfD2mn7W+aBcfvbj22ggD/aZewNfmySWJZiSTXffHD4qah8YPiFqHiy48yOyB+zabbsf9RaoTsGOzHJZv8AaY9sVwNcWLr+3qXWy2Pv+COG1w3lkadRfvp+9P16R/7dWnrd9QooorlPsQooooAKKKKACiiigAooooAKKKKAPsX9hH4t7ZL34P6zdcPv1DRtzd+s8I/9GAe0hr6f+Knw9034o+A9W8FaltUX8J+zzEZ8i4X5opB34YDOOoyO9fld4Y8R6r4Q8Rad4o0O4MN/pdyl1A/bcpzgjuD0I7gkV+rPw78caV8SPBWk+NNGYfZ9TtxIY92TDIOJIz7q4ZT9K9rAVVVpujLp+R/P3iVktTJc0p53g/dU2ndfZqLW/wD29a/qpH5daRqXij4RfEKHUI42s9c8M6gRJE3/AD0jYq8bY6qw3KfVWPrX6m+B/GGk+PvCWleMdDk32eq2y3CDOShPDRt/tKwZT7qa+Qf27PhJ/Z+q2fxc0a1xBqJWx1YIv3Z1X91Kf95RsJ6ZRe7U79hP4t/YNUvPhHrN1iDUC19pJdvuzquZYh/vKN4HTKP3as8NJ4Wu6Mtmetxdh6fGXDtLiDCr97TXvJdvtr/t1+8v7t31KH7c/wAJP7D8SWvxU0e1xZa4wtdSCLxHeKvyufTzEX/vpCTy1fK1frZ8RvA2lfEnwTq3grWFAg1O3MaybcmGUcxyD3Vwrfhivyl8TeHdV8I+INR8Ma5bmC/0u4e1uE7BlOMg9weoPcEGsMwoezqc62f5nv8AhjxF/auW/UKz/eUdPWH2X8vh+7uZtavhTxNq3gzxJpvirQ5/KvtLuUuYW7Eqc7T6qRkEdwSKyqK4E7ao/SalONaDp1FdNWa7pn64eAfGmk/ETwbpPjTRWza6rbrMFzkxP0eNv9pWDKfdTXx9+3V8Jf7J16z+LGj2uLXVytnqgVeEulX93If99FwfeP1an/sJ/Fr+y9avPhLrF1i21Qte6UXbhLlV/eRD/fRdwHqh7tX158QvBOk/EbwXq3gvWl/0bVLdot+3Jik6pIPdXCsPpXv6Y7D+f6n82L2vh3xR19lf/wACpy/Nx/8ASonx3+wr8WP7D8S3nws1a522euZutN3HhLtF+dB6b0X84wBy1fZHjrwdpXxA8H6t4N1pM2mq2zQM2MmNuqSL/tKwVh7qK/KzUrDxL8MfHE1jMz2OueHNQ4df4Jonyrqe4yAwPcEetfqF8J/iFp/xS+H+keNbDYhvoQLmFT/qLhfllj9eGBxnqCD3rLL6vPF0Z9PyPW8TMoeBxlLP8C/dqWu10mtYyX+JK/qm+p+Wnizwzq3gvxNqfhTXIfKvtKuXtpl7Eqcbh6qRgg9wQaya+xf28PhPtew+L2kW3D7NO1javf8A5YTH8Mxk+0Yr46ry8RRdCo4H7FwzncOIMspY6O7VpLtJbr9V5NBX1T+wr8WP7D8TXnws1e522euZutO3HhLtF+dB6b0X84wBy1fK1W9J1XUNC1Sz1rSbl7e9sJ0ubeZOsciMGVh9CBSoVXRqKaNeIMnp59l1XAVPtLR9pLVP5P8ADQ/Wfx34O0r4geD9W8G60mbTVbZoGbGTG3VJB/tKwVh7qK/KPxZ4Z1bwX4m1PwprkPlX2lXL20y9iVONw9VIwQe4INfqX8J/iFp/xS+H+keNbDYhvoQLmFT/AKi4X5ZY/XhgcZ6gg96+Y/28PhPtksPi9o9tw+zTtY2r36QTH8Mxk+0Yr1sfSVWmq0en5H4t4a5xUyTNamSYz3VNtWfSpHT/AMm282onx1RRRXiH9BBRRRQAUUUUAFFFFABRRRQAUUUUAFFFFABWl4a8O6t4u8Qaf4Z0G1a41DU7hLa3jHdmOMk9gOpPYAms2vqj9gHQ/D99438R61feW+raXYxDT0bqqSsyzSKPUYjXPpIR3rWhT9tUUO54vEWbf2HldbMFHmcFovNtJX8rtX8j67+Ffw60n4V+BdM8F6QAy2ce64n24NxcNzJKfq3QdgFHavnP9uL4vXFvZw/B/wAOySGW6VLrWpIwfli+9FBkf3jh2HoE7Ma+uaK+iq0een7ODsfy5lGeRwOarNcbT9tJNys5cvvP7Tdns9bW3t2Px0+yXX/PrL/3waPsl1/z6y/98Gv2Lorz/wCyv7/4f8E/Tf8AiMkv+gL/AMqf/aH46fZLr/n1l/74NH2S6/59Zf8Avg1+xdFH9lf3/wAP+CH/ABGSX/QF/wCVP/tD8dPsl1/z6y/98Gj7Jdf8+sv/AHwa/Yuij+yv7/4f8EP+IyS/6Av/ACp/9ofjp9kuv+fWX/vg0fZLr/n1l/74NfsXRR/ZX9/8P+CH/EZJf9AX/lT/AO0Px0+yXX/PrL/3waPsl1/z6y/98Gv2Loo/sr+/+H/BD/iMkv8AoC/8qf8A2h+On2S6/wCfWX/vg0fZLr/n1l/74NfsXRR/ZX9/8P8Agh/xGSX/AEBf+VP/ALQ/HT7Jdf8APrL/AN8Gj7Jdf8+sv/fBr9i6KP7K/v8A4f8ABD/iMkv+gL/yp/8AaH46fZLr/n1l/wC+DX1V+wz8UrjQfEN38LNbaVLHWibrTWkBCx3ar86c9A6Ln/eQActX3DRWtHAOjNTjL8P+CeRn3iXSz/L6mAr4OyktH7TZrZ/B0f3rQwvHPg/SfH/hHVfBuuR7rPVbdoHOMmNuqyL/ALSsFYe6ivyy1XT/ABR8IviFNYySNZ654Z1EFJF6CSNgyOvqrDaw9VYetfrVXwx+3/oug2fjbw3rVl5a6tqVhMt+i9THEyiGRh6ndIufSMDtRmNK8FVW6DwrzidHHzyiouanWTduiklr8nHR/I+u/hb8QNN+KHgPSfG2mbVW/hHnwg58idflljP+6wOPUYPevmD9uz4Qt59j8XdDsy3m7NP1hY1z8wGIZjj2Hlk+0Y71y/7D/wAXP+EX8YT/AA11i62ab4jbzLIu3yxXyjAA9PMUbfdlQd6+86uHLjsPaW/6nm42OI8OuJXUoRvT3ir25qcvs312el+6Tsfjp9kuv+fWX/vg0fZLr/n1l/74NfsXRXP/AGV/f/D/AIJ9T/xGSX/QF/5U/wDtD8gdFvdc8PaxZa9o/wBot77T7iO6t5VQ5SRGDKfzFfqn8LfH1j8TvAekeM7KMRG+gH2iDvBcL8skfPPDA4z1GD3rq6K6sLhXhm/eun5HxvF/GdLiynT5sN7OcG7S5+bR7q3KutmtdNe58a/t3fCXa9j8X9HteG2afrG1e/SCY/8Aosn2jFcx+w38WP8AhG/GFz8M9Wudun+Iz51lub5Y71F6D08xBj3ZEHevtLx9oug+IfBOuaL4oMa6TdWEy3bvwI4whJkz2K43A9ioNfktp+oXmk6hbapptw9vd2cyXEEyHDRyIwZWHuCAa48Wvq2IjWj1/pn3vBU/9buGq+SYvenZRl2vdw/8Ba/8Bsj9b/GHhXSfHHhfVPCOuQ+ZY6rbPbS+q5HDL6MpwwPYgV+U/jPwTrvgfxVqnhHWLST7XpVy9u7Kh2uB911/2WUhh7EV+nfwa+JNl8WPh3pPjK1Maz3EXlX0Kn/UXScSJjsM/MM/wsp7121deIw0cZGMk7HwvDXFmM4Hr18HWpc6vZxcuW0o6XvZ+j0107H46fZLr/n1l/74NH2S6/59Zf8Avg1+xdFc39lf3/w/4J9f/wARkl/0Bf8AlT/7Q+E/2Hfidc+GfF918NdYMqad4i/fWZcELFeovTngeYgx/vIg719p+MPCuk+OPC+qeEdch8yx1W2e2l9VyOGX0ZThgexArZorvoUfZU/Zyd0fm3EWfxzrM/7Uw9L2M9G7Sv7y2knaNnt81c/Irxt4R1bwH4s1Xwfrce280q5e3kOMBwPuuv8AsspDD2YViV9Vf8FANG0Gz8beGtZszGuq6jYTJfIvUxxOohkYep3SLn0jA7V8q189Xp+xqOHY/p7hvNZZ3lVDHyVnOOvqnZ/JtNryCiiisj2wooooAKKKKACiiigAooooAKKKKACtTwz4o8ReDdYh8QeFtYutM1C3z5dxbybWAPUHsQe4PB71l0UJ21RNSnCrF06iuno09Uz14ftbftDAY/4WNLx/1DrP/wCNUv8Aw1x+0N/0UaX/AMF1n/8AGq8gorX29X+Z/ezx/wDVvJf+gOl/4Lh/kev/APDXH7Q3/RRpf/BdZ/8Axqj/AIa4/aG/6KNL/wCC6z/+NV5BRR7er/M/vYf6t5L/ANAdL/wXD/I9f/4a4/aG/wCijS/+C6z/APjVH/DXH7Q3/RRpf/BdZ/8AxqvIKKPb1f5n97D/AFbyX/oDpf8AguH+R6//AMNcftDf9FGl/wDBdZ//ABqj/hrj9ob/AKKNL/4LrP8A+NV5BRR7er/M/vYf6t5L/wBAdL/wXD/I9f8A+GuP2hv+ijS/+C6z/wDjVH/DXH7Q3/RRpf8AwXWf/wAaryCij29X+Z/ew/1byX/oDpf+C4f5Hr//AA1x+0N/0UaX/wAF1n/8ao/4a4/aG/6KNL/4LrP/AONV5BRR7er/ADP72H+reS/9AdL/AMFw/wAj1/8A4a4/aG/6KNL/AOC6z/8AjVH/AA1x+0N/0UaX/wAF1n/8aryCij29X+Z/ew/1byX/AKA6X/guH+R6/wD8NcftDf8ARRpf/BdZ/wDxqj/hrj9ob/oo0v8A4LrP/wCNV5BRR7er/M/vYf6t5L/0B0v/AAXD/I9f/wCGuP2hv+ijS/8Agus//jVH/DXH7Q3/AEUaX/wXWf8A8aryCij29X+Z/ew/1byX/oDpf+C4f5Hrx/a2/aGIx/wsaXn/AKh1n/8AGq818TeKPEXjLWJtf8UaxdanqFxjzLi4k3MQOgHYAdgOB2rLoqZVZz0k2zqwmU5fgJOphKEIN9YxjF/gkOhmlt5UngkeOSNg6OjYZWHIII6EV6tZ/tWftA2FrHZwfEi8aOJQqma1tpnI93eMsx9ySa8nopRqSh8LsaYvLsHmFvrdGNS23NFSt6XTPX/+GuP2hv8Aoo0v/gus/wD41R/w1x+0N/0UaX/wXWf/AMaryCir9vV/mf3s4f8AVvJf+gOl/wCC4f5Hr/8Aw1x+0N/0UaX/AMF1n/8AGqP+GuP2hv8Aoo0v/gus/wD41XkFFHt6v8z+9h/q3kv/AEB0v/BcP8j0Pxf+0H8ZPHmkSaD4o8d3t1p83+tt44ooFlHXD+Ui7h7HIrzyiiolOU3eTuejhcFhsDD2eFpxhHtFKK+5WOr8CfFb4h/DOSeTwN4qvNKF1gzRx7XikI6Fo3DISPXGa7T/AIa4/aG/6KNL/wCC6z/+NV5BRVRq1Iq0ZNfM5cTkuWYyo62Iw9Ocn1lCLf3tXPX/APhrj9ob/oo0v/gus/8A41R/w1x+0N/0UaX/AMF1n/8AGq8gop+3q/zP72Yf6t5L/wBAdL/wXD/I9f8A+GuP2hv+ijS/+C6z/wDjVIf2tv2hiMf8LGl5/wCodZ//ABqvIaKPb1f5n97D/VvJf+gOl/4Lh/kanibxR4i8ZaxNr/ijWLrU9QuMeZcXEm5iB0A7ADsBwO1ZdFFZN31Z7FOnClFU6asloktEgooooKCiiigAooooAKKKKACiiigAooooAKKKKACiiigAooooAKKKKACiiigAooooAKKKKACiiigAooooAKKKKACiiigAooooAKKKKACiiigAooooAKKKKACiiigAooooAKKKKACiiigAooooAKKKKACiiigAooooAKKKKACiiigAooooAKKKKACiiigAooooAKKKKACiiigAooooAKKKKACiiigAooooAKKKKACiiigAooooAKKKKACiiigAooooAKKKKACiiigAooooAKKKKACiiigAooooAKKKKACiiigAooooAKKKKACiiigAooooAKKKKACiiigAooooAKKKKACiiigAooooAKKKKACiiigAooooAKKKKACiiigAooooAKKKKACiiigAooooAKKKKACiiigAooooAKKKKACiiigAooooAKKKKACiiigAooooAKKKKACiiigAooooAKKKKACiiigAooooAKKKKACiiigAooooAKKKKACiiigAooooAKKKKACiiigAooooAKKKKACiiigAooooAKKKKACiiigAooooAKKKKACiiigAooooAKKKKACiiigAooooAKKKKACiiigAooooAKKKKACiiigAooooAKKKKACiiigAooooAKKKKACiiigAooooAKKKKACiiigAooooAKKKKACiiigD/9k=;" vertex="1" parent="1">
          <mxGeometry x="20" y="160" width="120" height="120" as="geometry" />
        </mxCell>
        <mxCell id="rL4voDa9CR3dqEQPnQwp-4" value="" style="shape=image;verticalLabelPosition=bottom;labelBackgroundColor=default;verticalAlign=top;aspect=fixed;imageAspect=0;image=data:image/jpeg,/9j/4AAQSkZJRgABAQEAYABgAAD/2wBDAAMCAgICAgMCAgIDAwMDBAYEBAQEBAgGBgUGCQgKCgkICQkKDA8MCgsOCwkJDRENDg8QEBEQCgwSExIQEw8QEBD/2wBDAQMDAwQDBAgEBAgQCwkLEBAQEBAQEBAQEBAQEBAQEBAQEBAQEBAQEBAQEBAQEBAQEBAQEBAQEBAQEBAQEBAQEBD/wAARCAGQAZADASIAAhEBAxEB/8QAHwAAAQUBAQEBAQEAAAAAAAAAAAECAwQFBgcICQoL/8QAtRAAAgEDAwIEAwUFBAQAAAF9AQIDAAQRBRIhMUEGE1FhByJxFDKBkaEII0KxwRVS0fAkM2JyggkKFhcYGRolJicoKSo0NTY3ODk6Q0RFRkdISUpTVFVWV1hZWmNkZWZnaGlqc3R1dnd4eXqDhIWGh4iJipKTlJWWl5iZmqKjpKWmp6ipqrKztLW2t7i5usLDxMXGx8jJytLT1NXW19jZ2uHi4+Tl5ufo6erx8vP09fb3+Pn6/8QAHwEAAwEBAQEBAQEBAQAAAAAAAAECAwQFBgcICQoL/8QAtREAAgECBAQDBAcFBAQAAQJ3AAECAxEEBSExBhJBUQdhcRMiMoEIFEKRobHBCSMzUvAVYnLRChYkNOEl8RcYGRomJygpKjU2Nzg5OkNERUZHSElKU1RVVldYWVpjZGVmZ2hpanN0dXZ3eHl6goOEhYaHiImKkpOUlZaXmJmaoqOkpaanqKmqsrO0tba3uLm6wsPExcbHyMnK0tPU1dbX2Nna4uPk5ebn6Onq8vP09fb3+Pn6/9oADAMBAAIRAxEAPwDgqKKK+SP7dCiiigAooooAKKKKACiiigAooooAKKKKACiiigAooooAKKKKACiiigAooooAKKKKACiiigAooooAKKKKACiiigAooooAKKKKACiiigAooooAKKKKACiiigAooooAKKKKACiiigAooooAKKKKACiiigAooooAKKKKACiiigAooooAKKKKACiiigAooooAKKKKACiiigAooooAKKKKACiiigAooooAKKKKACiiigAooooAKKKKACiiigAooooAKKKKACiiigAooooAKKKKACiiigAooooAKKKKACiiigAooooAKKKKACiiigAooooAKKKKACiiigAooooAKKKKACiiigAooooAKKKKACiiigAooooAKKKKACiiigAooooAKKKKACiiigAooooAKKKKACiiigAooooAKKKKACiiigAooooAKKKKACiiigAooooAKKKKACiiigAooooAKKKKACiiigAooooAKKKKACiiigAooooAKKKKACiiigAooooAKKKKACiiigAooooAKKKKACiiigAooooAKKKKACiihVZmCqpJPAA70AFd54V+A/xg8bWq33hv4f6tc2smPLnkjEETg91eUqrD3Br62/Zn/ZP0Xwnpdn44+JGlxX/iG6RZ7ewuYw0WnKeV3IeGm6Ekj5TwORmvp6vUoZc5x5qjsfj3EfirTwOIlhsqpqpy6Ocr8t/JKza87ryutT80/wDhj/8AaK/6J3/5VrH/AOPUf8Mf/tFf9E7/APKtY/8Ax6v0n+02/wDz8R/99Cj7Tb/8/Ef/AH0K6P7Mo93+H+R8v/xFvPP+fNL/AMBn/wDJn5sf8Mf/ALRX/RO//KtY/wDx6j/hj/8AaK/6J3/5VrH/AOPV+k/2m3/5+I/++hR9pt/+fiP/AL6FH9mUe7/D/IP+It55/wA+aX/gM/8A5M/Nj/hj/wDaK/6J3/5VrH/49R/wx/8AtFf9E7/8q1j/APHq/Sf7Tb/8/Ef/AH0KPtNv/wA/Ef8A30KP7Mo93+H+Qf8AEW88/wCfNL/wGf8A8mfmx/wx/wDtFf8ARO//ACrWP/x6j/hj/wDaK/6J3/5VrH/49X6T/abf/n4j/wC+hR9pt/8An4j/AO+hR/ZlHu/w/wAg/wCIt55/z5pf+Az/APkz82P+GP8A9or/AKJ3/wCVax/+PUf8Mf8A7RX/AETv/wAq1j/8er9J/tNv/wA/Ef8A30KPtNv/AM/Ef/fQo/syj3f4f5B/xFvPP+fNL/wGf/yZ+bH/AAx/+0V/0Tv/AMq1j/8AHqP+GP8A9or/AKJ3/wCVax/+PV+k/wBpt/8An4j/AO+hR9pt/wDn4j/76FH9mUe7/D/IP+It55/z5pf+Az/+TPzY/wCGP/2iv+id/wDlWsf/AI9R/wAMf/tFf9E7/wDKtY//AB6v0n+02/8Az8R/99Cj7Tb/APPxH/30KP7Mo93+H+Qf8Rbzz/nzS/8AAZ//ACZ+bH/DH/7RX/RO/wDyrWP/AMeo/wCGP/2iv+id/wDlWsf/AI9X6T/abf8A5+I/++hR9pt/+fiP/voUf2ZR7v8AD/IP+It55/z5pf8AgM//AJM/Nj/hj/8AaK/6J3/5VrH/AOPUf8Mf/tFf9E7/APKtY/8Ax6v0n+02/wDz8R/99Cj7Tb/8/Ef/AH0KP7Mo93+H+Qf8Rbzz/nzS/wDAZ/8AyZ+bH/DH/wC0V/0Tv/yrWP8A8eo/4Y//AGiv+id/+Vax/wDj1fpP9pt/+fiP/voUfabf/n4j/wC+hR/ZlHu/w/yD/iLeef8APml/4DP/AOTPzY/4Y/8A2iv+id/+Vax/+PUf8Mf/ALRX/RO//KtY/wDx6v0n+02//PxH/wB9Cj7Tb/8APxH/AN9Cj+zKPd/h/kH/ABFvPP8AnzS/8Bn/APJn5sf8Mf8A7RX/AETv/wAq1j/8eo/4Y/8A2iv+id/+Vax/+PV+k/2m3/5+I/8AvoUfabf/AJ+I/wDvoUf2ZR7v8P8AIP8AiLeef8+aX/gM/wD5M/Nj/hj/APaK/wCid/8AlWsf/j1H/DH/AO0V/wBE7/8AKtY//Hq/Sf7Tb/8APxH/AN9Cj7Tb/wDPxH/30KP7Mo93+H+Qf8Rbzz/nzS/8Bn/8mfmx/wAMf/tFf9E7/wDKtY//AB6kb9kD9opVLH4dnj01axP/ALWr9KPtNv8A8/Ef/fQpVuIGIVZoyT2DCj+zKPd/h/kH/EW88/580v8AwGf/AMmflJ4w+DvxQ8Aw/avFvgfVdPth1uGh3wD6yJlAfYmuOr9jZYo54nhmjWSORSroy5VgeCCD1FfHP7VH7Kel2Gl3fxM+GGmraraKZtU0i3T935Y+9PCo+7t6sg4wCRjBB5cRl7px5qbufYcMeKFLNMRHB5lTVOUtFJP3W+zT1Xk7teh8cUUUV5p+shRRRQAUUUUAFFFFABRRRQAUUUUAFFFFABRRRQAV7d+x/wDD638efGSyn1KDzbDw9C2rSqR8rSIyrCp/7aMrY7hDXiNfYP8AwTytY3vfHV8fvxRadEv0c3BP/oArowkFOtGLPleN8bUy/h/FV6TtLlt/4E1H9T7D1jVtP0HSb3XNVuFt7LT7eS6uJW6JGilmb8ADX5n/ABs/aF8a/GDXblpNSurDw8shWy0qGQrGsYPytKAcSSHqSc4JIGBX27+1tf3Gn/s9+LZrZyjyR2tuSP7sl1CjD8VYj8a/M6u7Mq0lJU1sfn3hLkmFq0Kua1oqU1Lkjf7Nkm2vN8y18vNhRRRXkn7WFFFFABRRRQAUUUUAFFFFABRRRQAUUUUAFFFFABRRRQAUUUUAFFFFABRRRQAUUUUAFFFFAHuv7Ov7S3ij4Y+I7LRfEmsXOoeEruRYLiC4kMn2IE4E0RPKhepUcEZ4zg1+jH7qeLB2yRyL9VZT/MGvxyr9X/g3fXGp/CTwXqF05eafQLBpGPVm8hMn8TzXsZbWlK9OXQ/B/FnJMNhJ0cyw8VGU24ytpdrVP13u+uh+cPx88Aw/DT4teIPClnGUsYrgXFiD0FvKokRQe+3dsz/smvPq+k/29rWOD4xaZcJ1ufD1u7fUXFwv8gK+bK83EQVOrKK7n63wxjamY5NhsTVd5Sgrvu0rN/Nq4UUUVie6FFFFABRRRQAUUUUAFFFFABRRRQAUUUUAFfZH/BO//moH/cK/9u6+N6+yP+Cd/wDzUD/uFf8At3XXgP8AeI/P8mfEeI//ACTOJ/7c/wDTkD2D9sT/AJN38Uf71j/6WwV+a9fpR+2J/wAm7+KP96x/9LYK/Netcz/jL0/zPE8I/wDkR1P+vsv/AEiAUUUV55+pBRRRQAUUUUAFFFFABRRRQAVq+FPDGr+NPEmneFdBgWXUNUuEtoFZsLuY9WPZQMknsAayq9b/AGTf+ThPCH/Xa5/9JZqulHnnGL6s4M2xUsDgK+Kp6uEJSXrGLf6HuOn/APBPW1+xxHVPihKLoqDItvpY8tW7hS0mSB6kDPoKs/8ADvXRf+ioXv8A4K0/+O19d14W37aXwERmRtf1HKnB/wCJZN/hXuTw2Fp/GkvmfztguLuM81cngqk58u/LTi7X22j5Ox5x/wAO9dF/6Khe/wDgrT/47R/w710X/oqF7/4K0/8Ajtei/wDDanwD/wChg1H/AMFk3+FH/DanwD/6GDUf/BZN/hUeywPl9/8AwTv/ALX8Qv5av/gpf/IHnX/DvXRf+ioXv/grT/47R/w710X/AKKhe/8AgrT/AOO16L/w2p8A/wDoYNR/8Fk3+FH/AA2p8A/+hg1H/wAFk3+FHssD5ff/AMEP7X8Qv5av/gpf/IHnX/DvXRf+ioXv/grT/wCO0f8ADvXRf+ioXv8A4K0/+O16L/w2p8A/+hg1H/wWTf4Uf8NqfAP/AKGDUf8AwWTf4UeywPl9/wDwQ/tfxC/lq/8Agpf/ACB51/w710X/AKKhe/8AgrT/AOO0f8O9dF/6Khe/+CtP/jtei/8ADanwD/6GDUf/AAWTf4Uf8NqfAP8A6GDUf/BZN/hR7LA+X3/8EP7X8Qv5av8A4KX/AMgedf8ADvXRf+ioXv8A4K0/+O0f8O9dF/6Khe/+CtP/AI7Xov8Aw2p8A/8AoYNR/wDBZN/hR/w2p8A/+hg1H/wWTf4UeywPl9//AAQ/tfxC/lq/+Cl/8gedf8O9dF/6Khe/+CtP/jtH/DvXRf8AoqF7/wCCtP8A47Xov/DanwD/AOhg1H/wWTf4Uf8ADanwD/6GDUf/AAWTf4UeywPl9/8AwQ/tfxC/lq/+Cl/8geaXX/BPSx+zv9h+KVwJ8fJ5ukqUJ9DiXI+v86+TfHXgvW/h34u1PwX4ijjS/wBLm8qTy2yjggMjqTglWVlYZAOCMgGv1utbiK8toruAkxzxrIhIxlSMj+dfnJ+2f/ycBrnvbWX/AKTpWGOw1OlTU6atqfReHPF2bZzmVTBZhU548jktEmmnFdEu/U8Pr9V/gX/yRfwN/wBi/Yf+iEr8qK/Vf4F/8kX8Df8AYv2H/ohKnK/jl6HR4wf7hhv8b/8AST5B/b8/5K3on/YuQ/8ApTc18zV9M/t+f8lb0T/sXIf/AEpua+Zq5cZ/Hkfa8D/8k9hP8P6sKKKK5j6oKKKKACiiigAooooAKKKKACiiigAooooAK+yP+Cd//NQP+4V/7d18b19kf8E7/wDmoH/cK/8AbuuvAf7xH5/kz4jxH/5JnE/9uf8ApyB7B+2J/wAm7+KP96x/9LYK/Nev0o/bE/5N38Uf71j/AOlsFfmvWuZ/xl6f5nieEf8AyI6n/X2X/pEAooorzz9SCiiigAooooAKKKKACiiigAr1z9k3/k4Twh/12uf/AElmryOvXP2Tf+ThPCH/AF2uf/SWataH8WPqvzPG4j/5E2L/AOvVT/0hn6aV+Odz/wAfEv8Avt/Ov2Mr8c7n/j4l/wB9v516WafY+f6H5R4N743/ALh/+3kdFFFeQfuAUVoeH/D+teK9atPDvh3TZ7/Ub6Tyre3hXLO3X6AAAkk8AAk8Cvuz4I/sZ+D/AAbZ2+ufEq2t/EGvMBJ9lk+eytT/AHQh4lYdy2V9F4yd6GGniH7ux81xHxXl/DNJTxcrzfwxXxPz8l5v5Xeh8TeF/hv4+8bfN4T8G6xqyZwZbWzd41Pu4G0fia7Vf2U/2gWi84fDe82+hurYN/3z5mf0r9NIIILWFLe1hSGKNQqRxqFVQOgAHAFSV6ccrh9qTPyXE+L+YSn/ALNh4Rj/AHnKT+9OP5H5L+KPhb8R/BKGbxX4I1nTIR/y3ns3EP8A38A2frXL1+x0kaSI0ciK6OCrKwyCD1BFfP8A8aP2PfAfxBtbjVvBlrb+GvEWC6NAmyzuW64liUYXP99ADzkhulY1stlFXpu57uSeLWHxNRUc0pezv9qLvH5rdLzTfofnjRWz4u8H+JPAfiC68L+K9LlsNRs22yRSdwejKRwykchhwaxq8tpp2Z+v0qsK0FUptOL1TWqa7oKKKKCz9gPDv/Iv6Z/15w/+gCvzv/bP/wCTgNb/AOvWy/8ASdK/RDw7/wAi/pn/AF5w/wDoAr87/wBs/wD5OA1v/r1sv/SdK9zMf4C9Ufzt4V/8lDV/69y/9KieH1+q/wAC/wDki/gb/sX7D/0QlflRX6r/AAL/AOSL+Bv+xfsP/RCVzZX8cvQ+q8YP9ww3+N/+knyD+35/yVvRP+xch/8ASm5r5mr6Z/b8/wCSt6J/2LkP/pTc18zVy4z+PI+14H/5J7Cf4f1YUUUVzH1QUUUUAFFFFABRRRQAUUUUAFFFFABRRRQAV9kf8E7/APmoH/cK/wDbuvjevsj/AIJ3/wDNQP8AuFf+3ddeA/3iPz/JnxHiP/yTOJ/7c/8ATkD618SeGdB8YaNP4e8TaXBqOm3WwzW0wyj7WDrn6MoP4VxH/DNvwK/6Jjov/fpv8avfHH4h6h8K/hjq/jrS9Pt72505rcJBcFgjeZPHGc7eeA5P4V8qf8PA/Hn/AEIegf8Af2b/AOKr169ahTlarv6H4dw5kHEWaYWVbKJNU1Jp2qcvvWTel10a1Pp3/hm34Ff9Ex0X/v03+NH/AAzb8Cv+iY6L/wB+m/xr5i/4eB+PP+hD0D/v7N/8VR/w8D8ef9CHoH/f2b/4qsfrWE7fge//AKncb/8APyX/AIO/+2Pp3/hm34Ff9Ex0X/v03+NH/DNvwK/6Jjov/fpv8a+Yv+Hgfjz/AKEPQP8Av7N/8VR/w8D8ef8AQh6B/wB/Zv8A4qj61hO34B/qdxv/AM/Jf+Dv/tj6d/4Zt+BX/RMdF/79N/jR/wAM2/Ar/omOi/8Afpv8a+Yv+Hgfjz/oQ9A/7+zf/FUf8PA/Hn/Qh6B/39m/+Ko+tYTt+Af6ncb/APPyX/g7/wC2Pp3/AIZt+BX/AETHRf8Av03+NH/DNvwK/wCiY6L/AN+m/wAa+Yv+Hgfjz/oQ9A/7+zf/ABVH/DwPx5/0Iegf9/Zv/iqPrWE7fgH+p3G//PyX/g7/AO2Pp3/hm34Ff9Ex0X/v03+NH/DNvwK/6Jjov/fpv8a+Yv8Ah4H48/6EPQP+/s3/AMVR/wAPA/Hn/Qh6B/39m/8AiqPrWE7fgH+p3G//AD8l/wCDv/tj6d/4Zt+BX/RMdF/79N/jWj4e+B/wl8J6xbeIPDngPS9P1G0LNBcQxkPGWUqcc9wxH418o/8ADwPx5/0Iegf9/Zv/AIqu1+DP7ZHi74m/EzRPA2peEdHs7bVJJVkmgklLpsheQY3HHVAPxqoYnCyklFa+hy43hPjHD4WpWxNSXs4xbl+9v7qV3pza6dD6yr8c7n/j4l/32/nX7GV+Odz/AMfEv++386wzT7Hz/Q+j8G98b/3D/wDbyOiiu6+Bvg2L4gfFrwx4Vuo/Mtru+WS6T+9BEDLKv4ojD8a8mMXOSiup+0YvE08Fh6mJq/DCLk/RK7Ps/wDZC+BNn8PfCEHjrXbMHxL4gtxKvmDmztGwyRr6Mwwzd+i/wnPqHxb+L3hP4N+GG8ReJ5md5WMVlZQ4867lxnaoPQD+JjwB7kA9sAFAAGAK/L/9oz4pXnxV+KGqat9oLaVp8r2GlxhsotvGxG8e7kFz/vAdAK96vUjgqKjDf+tT+ceH8sr+IWeVMVj5P2a96Vu32YLt/kn1NP4lftWfF74iXUqxeIJvD+mNlY7HSZWhG3/blB3uSOuSF9FFeUtrOsNcfbG1W8acf8tTO2/885qnRXhzqTqO8nc/ofA5VgstpKjhKUYR8l+ff1Z6t8O/2nPjB8ObqH7J4ouNX0+PhtP1WRriIr6KWO+P22sPoelfenwU+OHhX42eHm1TRN1pqNptXUNNlYGS2c9CD/GhwdrDrg5AORX5a123wb+JWpfCf4haX4wsZH8iGQRX0Kk4ntWIEiEd+PmHoyqe1dWFxk6UkpO8T43jDgXBZ3hp1sJTUMQldNK3N5SXW/R7p+Wh93/tRfAuz+LnguXVNLtAPFOiQtLp8ij5rhB8zWzeobnb6NjoC2fzaIKkqwIIr9jIJ4bqCO5t5FkilUSRupyGUjII9iK/Mj9qHwXD4H+N3iPTbOER2d9Mup26jgBZ1DsAOwEhkUD0ArpzKilaqvmfK+E2fVantMmru6iuaF+mtpL72ml6nlVFFFeSftZ+wHh3/kX9M/684f8A0AVzXib4L/CvxlrEuv8AijwPpmpajOqrJcTxkuwVQqg89gAK6Xw7/wAi/pn/AF5w/wDoAr5p+PH7XXiz4S/ErUPA+l+FdJvrazht5FmuJJA7GSJXOdpxwWr6atUp04J1Nj+Rcjy3NM0x86OUtqok27S5fdur63XVrQ9c/wCGbfgV/wBEx0X/AL9N/jXf6Tpen6Hplro2kWkdrY2MKW9vBGMLHGoAVR7AACviP/h4H48/6EPQP+/s3/xVfY3w88S3HjLwH4e8WXlvHbz6zptvfSRRklEaSMMVGecDPeooVqNRtUvyO3iTI+IMqowqZxJuLdlefNrb1dj4p/b8/wCSt6J/2LkP/pTc18zV9M/t+f8AJW9E/wCxch/9KbmvmavFxn8eR/QfA/8AyT2E/wAP6sKKKK5j6oKKKKACiiigAooooAKKKKACiiigAooooAK+yP8Agnf/AM1A/wC4V/7d18b19kf8E7/+agf9wr/27rrwH+8R+f5M+I8R/wDkmcT/ANuf+nIHsH7Yn/Ju/ij/AHrH/wBLYK/Nev0o/bE/5N38Uf71j/6WwV+a9a5n/GXp/meJ4R/8iOp/19l/6RAKKKK88/UgooooAKKKKACiiigAooooAK9c/ZN/5OE8If8AXa5/9JZq8jr1z9k3/k4Twh/12uf/AElmrWh/Fj6r8zxuI/8AkTYv/r1U/wDSGfppX453P/HxL/vt/Ov2Mr8c7n/j4l/32/nXpZp9j5/oflHg3vjf+4f/ALeR17z+xLHE/wAebBpMbo9PvGj/AN7y8fyJrwavTP2bPFkPg343eFNYupBHbSXn2GZm6BbhGhyfYFw34V5uHajVi33R+q8S0J4rJsVRp/E6c7f+AvT5n6XeLJ7i18K6zc2oJmi0+4kj/wB4RsR+tfkLX7HOiyI0cihlYFWU9CD2r8ofi54Avfhj8RNb8G3kbrHZXLG0dv8AlrbN80Tg98oRn0II7V6WaRfuy6H5R4PYulGeKwr+N8sl5pXT+66+84+iiivIP3IKKK3fAvg/VfH3i7SfB2ixl7vVblIFOMiNTy8h/wBlVDMfZTTScnZGdarChTlVqO0Yptvsluz9QfgzPcXPwh8E3F1nzZPD2nM3v/o6c/j1/Gvjb9vqOFfjBpDpgO/hyAv7/wCk3IB/IfpX3hpOm2ui6XZ6PYpstrC3jtYV9ERQqj8gK/OL9r7xZD4q+O2ti1kEkGjJFpSMP70S5kH4SvIPwr28f7mHUX5H89eGkZYziWpiaatFRnL5Sasvx/A8Xooorwz+iT9gPDv/ACL+mf8AXnD/AOgCvzv/AGz/APk4DW/+vWy/9J0r9EPDv/Iv6Z/15w/+gCvzv/bP/wCTgNb/AOvWy/8ASdK9zMf4C9Ufzt4V/wDJQ1f+vcv/AEqJ4fX6r/Av/ki/gb/sX7D/ANEJX5UV+q/wL/5Iv4G/7F+w/wDRCVzZX8cvQ+q8YP8AcMN/jf8A6SfIP7fn/JW9E/7FyH/0pua+Zq+mf2/P+St6J/2LkP8A6U3NfM1cuM/jyPteB/8AknsJ/h/VhRRRXMfVBRRRQAUUUUAFFFFABRRRQAUUUUAFFFFABX2R/wAE7/8AmoH/AHCv/buvjevsj/gnf/zUD/uFf+3ddeA/3iPz/JnxHiP/AMkzif8Atz/05A9g/bE/5N38Uf71j/6WwV+a9fpR+2J/ybv4o/3rH/0tgr8161zP+MvT/M8Twj/5EdT/AK+y/wDSIBRX0R+xJ4R8LeMPiLren+LPDunaxbQ6K00cN9bJMiP58Q3AOCAcEjPua+0P+FG/Bj/olPhP/wAFEH/xNRQwMq8OdM9DiLxDwvDuOlgK1GUmkndNW1V+p+U9Ffqx/wAKN+DH/RKfCf8A4KIP/iaP+FG/Bj/olPhP/wAFEH/xNbf2XP8AmR4X/EYMB/0DT++J+U9Ffqx/wo34Mf8ARKfCf/gog/8AiaP+FG/Bj/olPhP/AMFEH/xNH9lz/mQf8RgwH/QNP74n5T0V+rH/AAo34Mf9Ep8J/wDgog/+Jo/4Ub8GP+iU+E//AAUQf/E0f2XP+ZB/xGDAf9A0/viflPRX3N+2N8M/h34T+D/9reF/AuhaTe/2rbRfaLLT4oZNhV8ruVQcHA49q+Ga4q9F4efI3c/QOGuIKXEuC+u0YOK5nGz30t29Qr1z9k3/AJOE8If9drn/ANJZq8jr1z9k3/k4Twh/12uf/SWalQ/ix9V+ZtxH/wAibF/9eqn/AKQz9NK/HO5/4+Jf99v51+xlfjnc/wDHxL/vt/OvSzT7Hz/Q/KPBvfG/9w//AG8joBKkMpIIor2X4J/svePPjF5erlRonhwthtSuYyTMB1EEfBk+uQvXnIxXl06cqkuWCuz9izHMsJlOHeJxtRQgur/JdW/Jan2X+zH8ZrT4ufDy1F5eBvEOixpaarGx+d2Awk/uJAMk/wB4MOwyn7RX7POk/G/Q4p7WaLT/ABLpqEWF6y/JIvUwy45KE8gjJUkkZyQdv4S/AP4d/BuF5PCunSyalPF5NxqV3J5k8q5BK8YVVyAcKB0Gc4r0avo403OlyVtT+VMZmtHAZ1LMMhlKEVK8bpK191bX3d7J9NGfkp46+G/jb4a6q2j+NPDt3pswYiOSRMxTAfxRyD5XH0P1rmq/YfUNN0/VrV7HVbC3vLaTh4biJZEb6qwINce3wL+DDXH2pvhX4V8zOf8AkFQ7c/7u3H6V588rd/clofp+B8YKfsksbhnz94vR/J7fez8xfB/gXxd4/wBWTRfB3h+81W7YjKwR5WMHjc7n5UX/AGmIFff/AOzX+zXY/BixfXtelhv/ABVfxeXNNHzFZxHBMMRPUkgbn4zgAYA59o0vR9J0OzXT9F0u00+1T7sFrAsUa/RVAAq5XThsDGg+Z6s+R4q8RcZxDReDoQ9lRe6veUvV6aeSXq2eb/Hz4vab8Hfh/ea9JMh1a7R7bSLc8mW5K8Nj+4mdzH0AHVhX5d3NzcXlxLeXczzTzu0kkjtlndjksT3JJzX6n/FX4JfD/wCMVjFbeMdNka5tVZbW+t5THPb7uu08qR7MCPavhz42/soeOvhKs2uaaW8QeHEyzXtvERLbL/03jGdo/wBsZX125ArmzGnVm+a3uo+s8Lc2yXBUZYSU+XE1HrzaJ2+FRf6Ozbbtc8PoooryT9sP2A8O/wDIv6Z/15w/+gCvzv8A2z/+TgNb/wCvWy/9J0r9EPDv/Iv6Z/15w/8AoAr87/2z/wDk4DW/+vWy/wDSdK9zMf4C9Ufzt4V/8lDV/wCvcv8A0qJ4fX6r/Av/AJIv4G/7F+w/9EJX5UV+q/wL/wCSL+Bv+xfsP/RCVzZX8cvQ+q8YP9ww3+N/+knyD+35/wAlb0T/ALFyH/0pua+Zq+mf2/P+St6J/wBi5D/6U3NfM1cuM/jyPteB/wDknsJ/h/VhRRRXMfVBRRRQAUUUUAFFFFABRRRQAUUUUAFFFFABX2R/wTv/AOagf9wr/wBu6+N6+yP+Cd//ADUD/uFf+3ddeA/3iPz/ACZ8R4j/APJM4n/tz/05A9g/bE/5N38Uf71j/wClsFfmvX6Uftif8m7+KP8Aesf/AEtgr8161zP+MvT/ADPE8I/+RHU/6+y/9Igd58HvjJ4m+CmvXniLwvp+mXdxe2ZspFv45HQIXV8gI6HOUHf1r1z/AIb8+L3/AELHg/8A8Bbr/wCSK+Z6K5YYirTXLGVkfa4/hjKM0rPEYzDxnN9X5H0x/wAN+fF7/oWPB/8A4C3X/wAkUf8ADfnxe/6Fjwf/AOAt1/8AJFfM9FV9br/zHF/qRw9/0CR/H/M+mP8Ahvz4vf8AQseD/wDwFuv/AJIo/wCG/Pi9/wBCx4P/APAW6/8Akivmeij63X/mD/Ujh7/oEj+P+Z9Mf8N+fF7/AKFjwf8A+At1/wDJFH/Dfnxe/wChY8H/APgLdf8AyRXzPRR9br/zB/qRw9/0CR/H/M9l+LH7VHj/AOMPhX/hEPEmi+H7Wz+0x3XmWMEySbkDADLysMfMe1eNUUVlOpKo+aTuz3Mvy3CZVR+r4KmoQvey7hXrn7Jv/JwnhD/rtc/+ks1eR165+yb/AMnCeEP+u1z/AOks1VQ/ix9V+ZycR/8AImxf/Xqp/wCkM/TSvxzuf+PiX/fb+dfsZX5zfst/Atfi546n1bX7dm8M6DMJbtSOLuYnKW+fQ43Pj+EY43A16uYU5VZQhHd3/Q/GPDDM8Pk+FzDG4p2hBU36/HZLzb0R2n7LP7KaeLo7X4kfEqzYaMSJdN0uRcfbsdJZR/zy9F/j6n5fvfcCJa2NqscaxW9tbx4VVARI0UdB2AAH4YpJJLXT7VpJHitra2jLMzEIkaKOST0UAD6ACvgL9pz9qPUviNqF14K8C6hLa+E4GMU00eUfU2B5Zj1EX91O/VuwXVull9Pz/M8eFPN/EzNW2+WnH/wGnHsu8n97fZLT174yftweHfDM0+gfC6zg17UIyY31KYn7FE3T5AMNNj1BVehBYV8neLvjl8WvG2oLqOvePNWZ45BJDFbXDW8MLDoUjj2qCPXGfeuForyK2Kq1n7z0P3DI+DsoyGmlh6SlPrOWsn/l6KyPbvCn7Y3x08LwpbTeILXXIYwAq6taiVse8iFZG+rMa7Mf8FAPiZ5e1vBvhgyf3ttxj8vM/rXy9RSjiq0dFJl4jg3IcVP2lTCwv5K35WPdPFH7Z/x08SQvb2us2GhRPkMNLswrY9nkLuv1Ug1wPhv42fFnwnqsmtaL8QNaS5mk82fz7pp0nb1kSQsrn3IJriaKmVepJ3cmd2H4fyrCUnQo4aCi91yrX101+Z9vfB39ubSdamg0H4tWEOlXMhCJq1op+yseg81CS0f+8CV55Civqu3uLPUrOO6tZobq0uYw8ckbB45UYcEEcMCD+NfjtXu37N/7TOtfCLUofDviKee/8IXMmJIPvPYMx5lh74zyydDyRz19DDZg0+Wtt3PzHi7wxo1KcsZki5ZrV0+j/wAPZ+Wz6W6+k/tSfsmw6bb3fxJ+FunbLaMGbVNHhXiJerTQKOijqyDoMleOB8gV+w+nahYaxp9vqml3cV1Z3kSzQTRNuSSNhlWBHUEGvz+/bE+CNh8M/FsHizw1HFDoniN3b7KrAfZbocuqr/zzYHcMcA7hwNtLHYRRXtae3Urw540rYuayXMm3NfBJ7u28Zea6P5PW1/vrw7/yL+mf9ecP/oAr87/2z/8Ak4DW/wDr1sv/AEnSvfdL/by+EtjpdnZS+GfFxe3t44mK2ttglVAOP3/Tivlf9oD4j6L8V/ihqPjbw/aXttZXkNvGkd4iLKDHEqHIRmHUHHNXjq9OpRUYu7ucfh3w7mmVZ1UxGMoShBwkrvu5Rf6HnVfqv8C/+SL+Bv8AsX7D/wBEJX5UV+q/wL/5Iv4G/wCxfsP/AEQlZ5X8cvQ9Dxg/3DDf43/6SfIP7fn/ACVvRP8AsXIf/Sm5r5mr6Z/b8/5K3on/AGLkP/pTc18zVy4z+PI+14H/AOSewn+H9WFFFFcx9UFFFFABRRRQAUUUUAFFFFABRRRQAUUUUAFfZH/BO/8A5qB/3Cv/AG7r43r7I/4J3/8ANQP+4V/7d114D/eI/P8AJnxHiP8A8kzif+3P/TkD2D9sT/k3fxR/vWP/AKWwV+a9fpR+2J/ybv4o/wB6x/8AS2CvzXrXM/4y9P8AM8Twj/5EdT/r7L/0iBreG/CPinxjeSaf4T8O6jrFzDH50kNjbPM6JkDcQoJAyQM+4rov+FF/Gj/olPiv/wAFM/8A8TXs/wCwB/yVDX/+wA//AKUQ1941WGwMa9PnbMeLfEPF8O5nLAUaMZJJO7bvqr9D8p/+FF/Gj/olPiv/AMFM/wD8TR/wov40f9Ep8V/+Cmf/AOJr9WKK6P7Lh/Mz5n/iMGYf9A0PvkflP/wov40f9Ep8V/8Agpn/APiax/Evw98deDbeG68W+D9Z0aG4cxwyX1lJCsjAZIUsBk4r9cK+Uf8AgoL/AMiX4U/7Ck3/AKKrGvgI0abmnse3w34l4zO80o4CpQjFTbV03fZv9D4o0nSdU17UYNI0XT7i+vrptkNvbxmSSRuuFUck/Sut/wCFF/Gj/olPiv8A8FM//wATWr+zP/yXjwZ/2ER/6A1fqHWWEwccRFyk7Hscbcc4nhbGU8NRpRmpR5rtvu109D8p/wDhRfxo/wCiU+K//BTP/wDE1y+veHde8L6k+j+JNHvdLvolVntryFopFDDIJVgCMjmv2Ar84v20v+S/ax/152X/AKIWqxWCjh6fMncx4M4+xXE+YSwdajGCUXK6b6NLr6nhleufsm/8nCeEP+u1z/6SzV5HXrn7Jv8AycJ4Q/67XP8A6SzVx0P4sfVfmfccR/8AImxf/Xqp/wCkM/TSuK+Dvw5s/hX8PtM8I26xm4iUz30qj/XXUnzSNnuAflGf4VUdq7Wq2pahaaRp11q2oTCK1soXuJpD0SNFLMfwANfTOKvzPofyHTxFZUZYWD92bi2u7jdL/wBKZ8p/twfGyTSNPT4P+HbkrdajEtxrEqHlLcnKQZHd8bm/2QByHNfElb3jzxdqHj7xlrPjLUyftGrXklwVJz5ak/JGPZVCqPZRWDXzeJrOvUcuh/WfCuQ0+Hcsp4SK97eb7ye/3bLyQUUUVgfRBRRRQAUUUUAFFFFAHtvwr/au8dfCn4f3vgfSrO2viZfM0y5u2LCwDZ8xQn8YJwygkAMWyGBxXlPirxf4m8caxN4g8Wa3dapfzfemuHzgdlUdFUdlUADsKyKKuVWc4qMnojzcLk+AwWIqYzD0oxqVHeUrav8Ayv1S3er1CiiioPSCv1X+Bf8AyRfwN/2L9h/6ISvyor9V/gX/AMkX8Df9i/Yf+iEr08r+OXofkHjB/uGG/wAb/wDST5B/b8/5K3on/YuQ/wDpTc18zV9M/t+f8lb0T/sXIf8A0pua+Zq5cZ/Hkfa8D/8AJPYT/D+rCiiiuY+qCiiigAooooAKKKKACiiigAooooAKKKKACvsj/gnf/wA1A/7hX/t3XxvX2R/wTv8A+agf9wr/ANu668B/vEfn+TPiPEf/AJJnE/8Abn/pyB7B+2J/ybv4o/3rH/0tgr816/Sj9sT/AJN38Uf71j/6WwV+a9a5n/GXp/meJ4R/8iOp/wBfZf8ApEC/o3iDXvDtw934f1zUNMnkTy3ks7l4XZMg7SUIJGQDj2FbH/C0fiZ/0UTxP/4N7j/4uuYorgUpLZn6XUwtCrLmqQTfmkzp/wDhaPxM/wCiieJ//Bvcf/F0f8LR+Jn/AEUTxP8A+De4/wDi65iinzy7kfUML/z6j/4Cv8jp/wDhaPxM/wCiieJ//Bvcf/F1na14u8WeJIo4PEXifVtUjhbfGl7eyTqjHgkB2OD9KyaKHOT3ZUMHh6cuaFOKfkkT2GoX+l3kWoaXe3FndQNuint5GjkjPqrKQQfpXQf8LR+Jn/RRPE//AIN7j/4uuYopKUlsyquGo1nzVIJvzSZ0/wDwtH4mf9FE8T/+De4/+LrD1TWNW1y8bUdb1S71C7cBWnupmlkYAYALMSTgVUoocpPdip4ahRlzU4JPySQV65+yb/ycJ4Q/67XP/pLNXkdeufsm/wDJwnhD/rtc/wDpLNWlD+LH1X5nm8R/8ibF/wDXqp/6Qz9NK8p/am16Tw/8BPF13DJtkubVLFfcTypEw/74dq9Wrl/iR8O/D/xS8Kz+D/EzXa6fcSRyv9llEbko25eSDxkelfSVVKUHGO7R/JmT16OFzChiMT8EZxlK3ZNNn5L0V+hP/DC/wR/56eIv/Bgv/wAbo/4YX+CP/PTxF/4MF/8AjdeL/Z1byP6D/wCIq5B/f/8AAf8Agn57UV+hP/DC/wAEf+eniL/wYL/8bo/4YX+CP/PTxF/4MF/+N0f2dW8g/wCIq5B/f/8AAf8Agn57UV90/ET9jP4PeF/h/wCJ/E2mSa99s0nR72+t/MvlZPMigd13DYMjKjIr4Wrmr4eeHaU+p9Tw/wAS4HiWnOrgea0HZ8ytvr3YUUVe0PQda8TapBovh/S7rUb+5bbDb20Rkdz7AdvU9qxSue9OcacXObsl1KNFfWfwz/YL1zUo4tS+KXiAaTG2G/s7Ttstxj0eU5jQ/wC6H+or6O8I/s0/BHwWif2b4B067nXH+kakv2yQn+8PNyqn/dArupZfWqavQ/PM28Tsky2Tp0G60l/L8P8A4E9/lc/MS1sry+fy7O0muHH8MUZY/kKvSeFfFESGSXw3qiKOdzWcgH8q/Xa1s7OwhFvY2sNvEv3Y4owij8BxU1dKyvvL8D5OfjHPm9zBq3nP/wC0PxwkjkjYxyIyMvVWGCKSv181rwv4Z8SR+T4i8O6ZqkeMbb2zjnGPo4NeReNv2N/gl4u8yax0Sfw7dvz52kzbEz2zEwaMD2UL9aznlk18Mrnq4Dxey+tJRxlCVPzTUl/7a/uTPzgr71+Ff7WXwR8L/DXwt4b1nxFdxX+l6Ra2lzGunTsFkSJVYBguDyDyK8I+Kf7GfxO8Axz6r4dVPFWkQguZLOMrdRoO7QEkn/gBb1OK8BZWVirKQRwQe1c0J1sFJ6avufU4/AZL4gYSHLWcoQd/caTTa2kmm16NI9u/a1+KHg74sfEHS/EHgm/lu7K20aOzkeS3eIiUTzORhwCeHXn3rxGiisKlR1ZOct2fSZXl1HKMHTwNBtwgrK+/z2CiiioO8KKKKACiiigAooooAKKKKACiiigAooooAK+yP+Cd/wDzUD/uFf8At3XxvX2F/wAE8bmNbvx3Zn78semyL9FNyD/6GK68D/vEfn+R8T4jJvhnE2/uf+nIHs37Yn/Ju/ij/esf/S2CvzXr9MP2uLOe+/Z68WR26FmjS0mIA/hS7hZj+Cgn8K/M+tsz/jL0/wAzwvCNp5JVX/T2X/pEAooorzj9TCiiigAooooAKKKKACiiigArZ8G+LNW8C+KtL8X6G6LfaVcLcQ71yrY6qw7qwJB9iaxqKE2ndEVaUK1OVOorxkrNd090fb2n/wDBQbwo1nE2qfD3VorraPMW3uo5I93faW2nH1FWP+HgngP/AKEPXv8Av7D/APFV8M0V2f2hX7/gfCS8MuHG7+xf/gcv8z7m/wCHgngP/oQ9e/7+w/8AxVH/AA8E8B/9CHr3/f2H/wCKr4Zop/2hX7/gL/iGXDn/AD6l/wCBy/zPub/h4J4D/wChD17/AL+w/wDxVH/DwTwH/wBCHr3/AH9h/wDiq+GaKP7Qr9/wD/iGXDn/AD6l/wCBy/zPsrx3+3J4L8WeB/EPhW18F63BNrOlXenxyySRFUaaFowxwc4BbJxXxrRXefBf4R658ZPGtt4X0rdDapibUb3blbW3B5b3Y9FXuT6AkYzq1MVJKWrPby7KMp4PwlWpQ9yn8Um23svP8upd+CfwJ8XfGzXGstGUWel2jL9v1OZCYoAf4VH8chHRQfqQOa/RD4W/B3wL8IdFXSvCWlIs7qBdX8wDXN0fV3x0z0UYUdhW34L8F+G/h/4bs/CvhXTUs9Ps12oi8s7fxO7dWdjySa8O/aQ/aw0/4YvP4L8DiDUfFG3bPM2Hg04n+8P45e+zoON390+tSo0sFDnqb/1sfiWcZ9m/iDj/AOz8ui1R6R20/mqP9Nlsrvf2Px98UPAfwx00an428R22mpJnyYmJeaYjskags31AwM8kV8v+Ov8AgoBJ5ktr8OPBKbBkJe6xITu9/IjIx+Mn4V8l+IvEmv8Ai3Vp9e8TaxdanqFwcyXFzIXY+gGegHYDgdqza4q2Y1J/w9EfoWR+FuV4CKnmH76p81FeiWr+b17I9m1r9r/4/axIWXxounx9orKxgQD/AIEULf8Aj1Y0f7TPx4hkMi/E3ViT/eKMPyK4rzKiuR16r+0/vPtqfDuT0o8sMLTS/wAEf8j3nw7+2x8ddFZP7Q1XTNbjU8rfWCKSPTdDsP4nNe7fDz9vDwPr00en+P8AQrnw5M+F+1wsbq1z6thRIn/fLe5r4QorWnja1P7V/U8bM+AcgzOLUqChLvD3Wvkvd+9M/YLRdc0bxJpkGteH9UtdRsLld0NxayrJG49mU4/DtXjXx5/ZX8I/Fq2n1rQorfQ/FIy63kceIrtv7twq9c/89ANw77gMV8M/C34yeO/hDrC6n4S1Z0t3cNdafMS1rdAdnTPXHAYYYdjX6JfBT45eE/jZ4fOpaKTaalaBV1DTZXBlt2PcH+OM84YD6gHivUpYiljY+zmtf62Px/OeGM44CxCzLL6jdNP4l08px2s/mn5OyPzP8YeD/EXgPxDd+FvFWmSWOo2TbZI35BHZlI4ZSOQw4IrGr9OP2hPgPovxq8LPGsUVt4k0+Nm0u+Ixz18mQ942P/fJO4dwfzS1fSdS0HVLvRdYspbS+sZmt7iCVcNHIpwVP415eKwzw8vJn7FwdxbR4pwvNblrQ+OP/ty/uv8AB6Po3UooorlPsAooooAKKKKACiiigAooooAKKKKACiiigAr3T9jbx/b+CfjJa2Oo3HlWXiSBtKZmPyrMzK0JPuXUIP8ArpXhdOjkkhkWaGRkdGDKynBUjkEHsaulUdKamuh5+bZdTzfA1cDV2nFr07P5PU/X/XtF07xJot/4f1e3E1jqVtJa3Ef96N1KsPbg9a/MT4zfA7xh8G/EM9hq1jPcaQ8h+waokZMNxHn5ckcJIB1Q856ZGCfr39mj9qXRfiFpdp4N8c6lFY+KrZFhjmncKmpgcBlJ4EvTcnc8r1IX6KmhhuI2hniSSNxhldcgj3B617lSlTx0FKLP51ynOc08OcwqYXE0uaMt4t2TttKMrP8AJ9mrrT8cqK/Xr/hE/Cv/AELOlf8AgHH/APE0f8In4V/6FnSv/AOP/wCJrl/st/zfgfZf8Rjo/wDQG/8AwNf/ACJ+QtFfr1/wifhX/oWdK/8AAOP/AOJo/wCET8K/9CzpX/gHH/8AE0f2W/5vwD/iMdH/AKA3/wCBr/5E/IWiv16/4RPwr/0LOlf+Acf/AMTR/wAIn4V/6FnSv/AOP/4mj+y3/N+Af8Rjo/8AQG//AANf/In5C0V+vX/CJ+Ff+hZ0r/wDj/8AiaP+ET8K/wDQs6V/4Bx//E0f2W/5vwD/AIjHR/6A3/4Gv/kT8haK/Xr/AIRPwr/0LOlf+Acf/wATR/wifhX/AKFnSv8AwDj/APiaP7Lf834B/wARjo/9Ab/8DX/yJ+QtFfr1/wAIn4V/6FnSv/AOP/4mj/hE/Cv/AELOlf8AgHH/APE0f2W/5vwD/iMdH/oDf/ga/wDkT8haK/Xr/hE/Cv8A0LOlf+Acf/xNH/CJ+Ff+hZ0r/wAA4/8A4mj+y3/N+Af8Rjo/9Ab/APA1/wDIn5C0V+vX/CJ+Ff8AoWdK/wDAOP8A+Jo/4RPwr/0LOlf+Acf/AMTR/Zb/AJvwD/iMdH/oDf8A4Gv/AJE/IWiv0W/a98P6DYfAHxFdWOh6fbzJJZbZIrZEYZu4gcEDI4r86a4sTQ+rz5b3P0LhTiSPFOCljI0+S0nG177JO97LuKiPIyxxqWZjtVVGST6Cv04/Zs+D0Pwf+HNtp93Cv9uaptvdWk7iUj5Yc+kYO303Fz3r4x/ZD+HsPj74yafLfw+Zp/h6M6vOpHys8bKIlP8A20ZWx3CtX6N6pqdjoumXesapcLb2djBJc3ErdI40UszH6AE135bRSTrSPzXxYz2pOpTyTDvtKdurfwx/W3nHseIftXfHz/hUnhdPD/h24A8Ua7Ewt2HWyg+605H97OQnuCf4cH865ppriaS4uJXlllYvJI7FmZickknkknvXU/FT4gal8UPHmr+NNSd/9OnP2eJj/qLdeIox2+VQM46nJ6muTrhxWIeIqX6LY/Q+DeGqfDWXRpNfvZWc359vSOy+b6hRRRXMfWhRRRQAUUVc0fR9U8Qapa6JolhNe397KIbe3hXc8jnoAKNxSlGEXKTskU66L4f+PPEXw18VWXi7wveGC8s3yVydk8Z+9FIB95GHBH0IwQDXsvxI/Y18beA/h3Z+MrO8XV763hMut2FumTar13REf6xVHD8cYyMrnHzxWs6dShJc2jPJwOZZbxFhp/VpqrT1jJfg00+j6d1qj9ZPhf8AEbQ/it4K0/xpoLFYrtds0DNl7adeHib3B79wQehr5p/bo+DazW8Hxj0G1Akh8uz1pUX7yEhYZz7gkRk+hj9DXn37E/xWm8H/ABE/4QTULkjSfFP7uNWPyxXqj92w9N4zGcdSU9K+8PE3h7TfFnh3UvDOsQ+bZapayWk699rqQSPQjOQexAr2oNY7D2e/6n4BjaNbw74mjUo39luvOnJ6xfmtfmkz8gqK1PFXh2+8I+JtV8L6ouLvSbyWzmx0LRsVJHscZHsRWXXgNW0Z/SlOpGrBVIO6eqfkwooooKCiiigAooooAKKKKACiiigAooooAKKKKACvTfCv7S3xw8G2q2Oj/EC/e2TAWG+SO8CgdFUzKzKPZSK8yoqozlDWLscuLwGFzCHs8XSjOPaUVJfie6/8NqfH3/oYNO/8FkP+FH/Danx9/wChg07/AMFkP+FeFUVp9ZrfzP7zyf8AVPIv+gOn/wCAR/yPdf8AhtT4+/8AQwad/wCCyH/Cj/htT4+/9DBp3/gsh/wrwqij6zW/mf3h/qnkX/QHT/8AAI/5Huv/AA2p8ff+hg07/wAFkP8AhR/w2p8ff+hg07/wWQ/4V4VRR9ZrfzP7w/1TyL/oDp/+AR/yPdf+G1Pj7/0MGnf+CyH/AAo/4bU+Pv8A0MGnf+CyH/CvCqKPrNb+Z/eH+qeRf9AdP/wCP+R7r/w2p8ff+hg07/wWQ/4Uf8NqfH3/AKGDTv8AwWQ/4V4VRR9ZrfzP7w/1TyL/AKA6f/gEf8j3X/htT4+/9DBp3/gsh/wo/wCG1Pj7/wBDBp3/AILIf8K8Koo+s1v5n94f6p5F/wBAdP8A8Aj/AJHuv/Danx9/6GDTv/BZD/hR/wANqfH3/oYNO/8ABZD/AIV4VRR9ZrfzP7w/1TyL/oDp/wDgEf8AI91/4bU+Pv8A0MGnf+CyH/Cj/htT4+/9DBp3/gsh/wAK8Koo+s1v5n94f6p5F/0B0/8AwCP+R6t46/ac+LnxG8MXfhDxVrFnPpt60bTRx2McbEo6uuGUZHzKK8poorOc5VHeTuepgsvwmW03RwdONOLd7RSSv309Efc3/BP/AMMx2ngfxH4ueHE2paktirHqY4Iw3HsWmb/vn2rtP20PGEnhb4I3tjbuVn8Q3cOlqQeQhzJJ+BSIqf8Afq5+xzYR2X7PfhuRVAa7kvbh8dz9qlUf+OqteT/8FDNQkSy8D6Sr/u5pb+4dfdBAqn/x969p/usFp2/P/hz+f6Mf7a8QGqmqVWX/AJSTt/6QfGNFFFeGf0YFFdR4s+GHjzwPpOka54q8N3en2WuQ+dZyyr94c/Kw6o2MNtbBwQa5em4uOjMqGIpYmHtKMlKOuqd1po9uzCiirmjaNqviLVbXQ9D0+a9v72UQ29vCu55HPQAf5xSWppKUYRcpOyQaPo+qeIdUtdD0Owmvb+9lENvbwrueRz0AFfol+zb+zbpfwb0tdc1xIb3xbexYuLgfMlmh6wxH/wBCfv0HHVf2bf2bdK+DelLrmuJDe+Lb2LFxcD5ks0PWGI/+hP8AxfTr6B8VPip4V+EPhWbxR4ousAZjtbWMjzrubHEaD+Z6AcmvawmEjQj7Wrv+R/P/ABpxpiOI6/8AY2TXdNuza3qPsv7v57vQPip8VPCvwj8Kz+KPFFz8vMdraIR513NjiNAf1PQDk1+W3i3XovFHibU/EUOj2elR6jcvcLZWa7YYAxztUHt/9fAHSt34r/FfxV8X/FU3ibxNcYAzHZ2cbHybSHPCIP5t1Y8nsBxlcOLxX1iVlsj9H4H4Pjwvh3UrO9eolza6L+6u9ur+7QsabqF5pGo2urafMYbqymS4gkXqkiMGVh9CAa/XPwnr9v4q8L6P4ntVAh1exgvkXOdoljVwPwzivyEr9OP2VNRk1T9n/wAH3EjZaO2mt/wiuJYx+iCujK5e/KJ8z4wYOMsDh8Z1jNx+Ulf/ANtPkT9trwwmgfHC41KGIJHr2n2+ocdN4Bhb8cxZP+9714FX13/wUKsUj1rwVqYX57i1vYCfURvEw/8ARh/OvkSuTGR5a8kfa8D4qWM4ewtSW6jy/wDgLcf0CiiiuY+rCiiigAooooAKKKKACiiigAooooAKKKKACiiigAooooAKKKKACiiigAooooAKKKKACiiigAooooAKKKKACiiigD9Kv2P7sXX7PPhdf4oDewt+F3MR+hFeN/8ABQ20bd4FvlzgjUYW9v8Aj3I/9m/Kuy/YL8Rf2l8K9U8PySZl0fVnKr/dimjVl/8AHxLVz9unwtJrXweg163hLyaBqkNxIw/hgkDRN/4+8X5V7k/3mC07L8D+dMDL+yvEB+00vVn/AOVFLl/9KR+fde+/sb6D8Ltc+JQXx5dB9UgCyaHY3Cj7NcTjJJYk/NIuAVQjB5PJAFeBU+Gaa3mS4t5XiliYPHIjFWVgcggjkEHvXjUp+zmpNXsfvWb4CWaYGrg4VHTc1bmW6/4HR7adUfrj4z8GeHPiB4cvPCvirTUvdPvV2ujcMjfwujdVYHkEdK/Nv48fAfxH8EvEf2W633uh3rMdN1ILhZB18t8cLIB1HfqOOn1L+y3+1LD4+htvh/8AEG8SLxLEojsr2QhV1JQPut2EwH/fXUc5B+gPGXg3w54/8OXnhXxVpsd7p96u10bqp7Oh6qwPII6V7dWlTx1Pnhv/AFoz+fMozfM/DnM5YHHRbpN+9Ho1/PB9/wA9nZrT8ltG0bVfEWq2uh6Hp817f3soht7eFdzyOegA/wA4r9E/2bf2bdK+DelLrmuLDe+Lb2LFxcD5ks0PWGI/+hP/ABfSr/wL/Zo8I/BOa91SC5bWNZupHSO/uIgrQWxPyxoBkAkY3MPvH0HFdh8Vfir4V+EPhWbxR4oufWO0tIyPOu5scRoP5noByajC4SOHXtau/wCR6HGPG1fiessoyVN05O2ifNUfa26j+e70D4qfFTwr8IfCs3ijxRc8cx2lpGR513NjiNB/M9AOTX5p/Fb4reKvi/4qm8TeJrjjmOzs42Pk2kOeEQfzbqx5PsfFb4reKvi94qm8TeJ7jjmOzs42Pk2kOeI0H826seTXG1w4vFuu+WPwn6NwTwTR4ao/WMRaWIktX0iv5Y/q+voFFFFcR98Ffpl+yVZyWP7PfhGGQEM8V1N+D3czj9GFfmfHHJNIsMMbO7sFVVGSxPAAFfrZ8O/DX/CG+AvD3hUgB9K0y2tZMd5EjAc/i2T+Nenlcf3kpeR+ReL+KjDLsPhesp83yjFr/wBuR8of8FDLpG1DwNZj78UOoSn6O0AH/oBr5Ar6M/bs8RJq3xkt9FhkyuiaTBBIvpLIzyn/AMceP8q+c65cZLmryZ9fwHh5Ybh3Cwl1i5f+BScl+DCiiiuY+uCiiigAooooAKKKKACiiigAooooAKKKKACiiigAooooAKKKKACiiigAooooAKKKKACiiigAooooAKKKKACiiigD6K/Yd8eL4Y+LEvhe7uBHaeKLQ26hjgfaYsvET9V81R6lxX3b4x8MWHjXwpq/hLVMi11ezltJGAyU3qQGHupwR7gV+SOl6lfaLqVprGl3D295YzpcW8yfejkRgysPcEA1+qnwh+JWl/FjwDpnjLTXQSXEYjvYFP8Ax73SgCSM9+DyM9VKnvXsZdVUoOjI/B/FXJ6uDx1LO8PopWTa6Sj8L+a2/wAJ+W/irw1qng3xJqfhXWofKvtKupLWZexZTjcPVSMEHuCDWVX3D+2p8BZ/EVj/AMLa8JaeZNQ0+HZrMES/NPbKPlnAHVoxw3+xg9Er4erzsRQdCo4vY/VuF+IKPEeXQxdN+9tNdpdfk915D4ZpreZLi3leKWJg6OjFWVgcggjkEHvX3h+y7+1RbeOLe38A/EbUIoPEUSiOzvpWCpqQHAVieBN/6H254PwZRRh8RLDy5ohxLwzg+JsL9XxOkl8MlvF/qn1XX1s1+rnxW+LPhL4Q+GZvEXii8XeQVs7KNh595L2RFP4Zboo5Nfmr8Vvit4q+L3iqbxP4nufWO0tIyfJtIc8RoP5t1J5Nclc3l1eOJLy6lndVChpHLEAdBk9qirTE4yWI02R5PCXA+E4X5qzl7Ss/tNWsu0Vd283e79AooorkPuAooq3pOk6lr2qWmi6PZy3d9fTLb28Ea5aSRjhVH1Jo3FKUYRcpOyR6/wDsk/C+b4i/Fmxvrm336R4aZNTvWYZVnVswx+mWcA4PVUev0fvby102zn1C+nWG2tYmmmkboiKCWY+wAJrzr9n/AODlj8F/AUGg7kn1a8YXWq3K9JJyANinrsQfKPXk8FjXm37bXxcj8I+Bl+Hek3WNX8Tri42t80NiD85Pp5hGweqiT0r3qMFgsO5S3/rQ/mvPsZU4+4lhhcH/AA0+WL/urWU/zfoktz4o+JPjCbx/4+17xlPuH9rX0txGrdUiziNP+AoFX8K5uiivCbcndn9IUKMMNSjRpq0YpJei0QUUUUjUKKKKACiiigAooooAKKKKACiiigAooooAKKKKACiiigAooooAKKKKACiiigAooooAKKKKACiiigAooooAKKKKACvZv2ZPjxN8F/Fzw6s0kvhrWSkeoRrkmBhwtwg7lckEDqpPUha8Zoq6dSVKSlHdHDmWXYfNsLPB4qN4TVn/AJrzT1XmfsRY31jq1jBqOn3UN1Z3cSzQzRsGSWNhkMCOCCDXxj+0t+yDd2Nxc+PPhJpj3FpKzTX2iwLl4CeTJbqOWT1jHK/w5HC8L+zb+1JqnwnuIvCfix59Q8JSv8oHzS6cxPLx+qZOWT6lechvv7w74k0Hxdo9vr/hnVrbUtPul3RXFu+5W9R7EdCDyDwRXuRlSx9Oz3/I/nfEYbOvDTMvbUfepS6/Zmu0u0l966XW/wCQTK0bFHUqynBBGCDSV+lvxd/ZZ+GfxYkn1aW1fRNel5OpWKgea3rNGflk9zwx/vV8m+Ov2LPjL4TaS40WztPE1mpyJNPl2zBf9qGTBz7IWrzK2Bq0tldeR+t5H4h5LnEVGpU9jU6xm7L5S2f4PyPBKK3Na8C+NvDchh8QeD9a01/S7sJYs/TcozWNHb3EsnkxQyPJ/cVST+VcjTW59vTrU6seenJNd07jKK67w58Ifij4tkEfh3wBrt4Dx5i2TrEPrIwCD8TXuvw8/YN8cay0V58RNbtfD9qSC1pbFbm6I7gkHy0+oZ/pWtPD1avwxPGzLibKMoi5YvERTXS95f8AgKu/wPm3w74c17xZrFvoHhvSbnUtQu22w29vGWZvU+wHUk8Acniv0D/Zr/Zh074QWy+KPExgv/FlzHt3r80WnoRzHET1Y9Gf8Bxkt6R8NPg/8P8A4S6adP8ABehx28kqhbi8lPmXNxj+/IecZ52jCjsBUXxX+Mngn4PaE2r+KtQX7RIp+x6fEwNzdsOyL2XPVj8o+uAfWw+Dhhl7Sq9fwR+KcTcdY3iuf9lZRTkqctLfbn622j3X3u2hb+KPxM8N/Cfwjd+LfElwAkI2W1urASXc5B2xIPU45PQAEngV+X3xA8da98SPF2o+MvEc2+81CXdtXOyFBwkaA9FVQAPpk8kmtr4w/GPxX8ZvEx1/xFIIbeDMdhYRMTDaRE9Bn7zHA3OeSQOgAA4SvPxmK+sStH4UfpXA3BseGcO62Is8RNavpFfyr9X1fkgooorjPvgooooAKKKKACiiigAooooAKKKKACiiigAooooAKKKKACiiigAooooAKKKKACiiigAooooAKKKKACiiigAooooAKKKKACiiigArtvhf8YvHvwh1Q6l4N1gxRSkG5sZgZLa5x/fTPX/aBDDsa4minGUoPmjozDFYWjjaMqGIgpQlumrpn3/8NP24Phv4ojisfHME3hbUThWkcGazdvUSKNyZ9GXA/vGvoLRfEGheJLJdS8Pa1Y6naP8Adns7hJkP/AlJFfj9VzS9Z1jQ7oX2i6reafcL0mtZ2icf8CUg16NLM5x0mrn5Zm3hLl+Kk6mX1XSfZ+9H5aqS+9n7CUmBndgZ9a/LrTP2kvjtpMYjtfidrTgf8/Mi3J/OUMTWpJ+1t+0NJGIm+I0wA/u6faKfzEWa6VmdPqmfJz8Ic3UvcrU2vNyX/trP0yrmPGHxO+H/AMP7d7jxj4u0zS9i7vKmnBmYf7MS5d/+Aqa/NHXPjt8ZPEQK6t8S/EDo3DRw3rwI31WMqp/KuGklkmkaaaRpJHO5mY5LH1JPWs55ovsR+89XAeD8+ZSx+JVu0F+stv8AwFn2R8VP28ofKl0r4R6K/mHK/wBralGAF94oc8+xc/VDXyR4k8TeIPGGsXHiDxPq9zqWo3Tbpbi4fcx9AOwA6ADAA4ArMorzq2IqV377P1PI+Gcs4ehy4GnZveT1k/V/orLyCiiisT3gooooAKKKKACiiigAooooAKKKKACiiigAooooAKKKKACiiigAooooAKKKKACiiigAooooAKKKKACiiigAooooAKKKKACiiigAooooAKKKKACiiigAooooAKKKKACiiigAooooAKKKKACiiigAooooAKKKKACiiigAooooAKKKKACiiigAooooAKKKKACiiigAooooAKKKKACiiigAooooAKKKKACiiigAooooAKKKKACiiigAooooAKKKKACiiigAooooAKKKKACiiigAooooAKKKKACiiigAooooAKKKKACiiigAooooAKKKKACiiigAooooAKKKKACiiigAooooAKKKKACiiigAooooAKKKKACiiigAooooAKKKKACiiigAooooAKKKKACiiigAooooAKKKKACiiigAooooAKKKKACiiigAooooAKKKKACiiigAooooAKKKKACiiigAooooAKKKKACiiigAooooAKKKKACiiigAooooAKKKKACiiigAooooAKKKKACiiigAooooAKKKKACiiigAooooAKKKKAP/2Q==;" vertex="1" parent="1">
          <mxGeometry x="25" width="110" height="110" as="geometry" />
        </mxCell>
        <mxCell id="rL4voDa9CR3dqEQPnQwp-11" value="" style="edgeStyle=orthogonalEdgeStyle;rounded=0;orthogonalLoop=1;jettySize=auto;html=1;" edge="1" parent="1" source="rL4voDa9CR3dqEQPnQwp-5" target="rL4voDa9CR3dqEQPnQwp-1">
          <mxGeometry relative="1" as="geometry" />
        </mxCell>
        <mxCell id="rL4voDa9CR3dqEQPnQwp-5" value="" style="shape=image;verticalLabelPosition=bottom;labelBackgroundColor=default;verticalAlign=top;aspect=fixed;imageAspect=0;image=data:image/jpeg,/9j/4AAQSkZJRgABAQEAYABgAAD/2wBDAAMCAgICAgMCAgIDAwMDBAYEBAQEBAgGBgUGCQgKCgkICQkKDA8MCgsOCwkJDRENDg8QEBEQCgwSExIQEw8QEBD/2wBDAQMDAwQDBAgEBAgQCwkLEBAQEBAQEBAQEBAQEBAQEBAQEBAQEBAQEBAQEBAQEBAQEBAQEBAQEBAQEBAQEBAQEBD/wAARCAGQAZADASIAAhEBAxEB/8QAHwAAAQUBAQEBAQEAAAAAAAAAAAECAwQFBgcICQoL/8QAtRAAAgEDAwIEAwUFBAQAAAF9AQIDAAQRBRIhMUEGE1FhByJxFDKBkaEII0KxwRVS0fAkM2JyggkKFhcYGRolJicoKSo0NTY3ODk6Q0RFRkdISUpTVFVWV1hZWmNkZWZnaGlqc3R1dnd4eXqDhIWGh4iJipKTlJWWl5iZmqKjpKWmp6ipqrKztLW2t7i5usLDxMXGx8jJytLT1NXW19jZ2uHi4+Tl5ufo6erx8vP09fb3+Pn6/8QAHwEAAwEBAQEBAQEBAQAAAAAAAAECAwQFBgcICQoL/8QAtREAAgECBAQDBAcFBAQAAQJ3AAECAxEEBSExBhJBUQdhcRMiMoEIFEKRobHBCSMzUvAVYnLRChYkNOEl8RcYGRomJygpKjU2Nzg5OkNERUZHSElKU1RVVldYWVpjZGVmZ2hpanN0dXZ3eHl6goOEhYaHiImKkpOUlZaXmJmaoqOkpaanqKmqsrO0tba3uLm6wsPExcbHyMnK0tPU1dbX2Nna4uPk5ebn6Onq8vP09fb3+Pn6/9oADAMBAAIRAxEAPwDyeiiivqz/AEDCiiigAooooAKKKKACiiigAooooAKKKKACiiigAooooAKKKKACiiigAooooAKKKKACiiigAooooAKKKKACiiigAooooAKKKKACiiigAooooAKKKKACiiigAooooAKKKKACiiigAooooAKKKKACiiigAooooAKKKKACiiigAooooAKKKKACiiigAooooAKKKKACiiigAooooAKKKKACiiigAooooAKKKKACiiigAooooAKKKKACiiigAooooAKKKKACiiigAooooAKKKKACiiigAooooAKKKKACiiigAooooAKKKKACiiigAooooAKKKKACiiigAooooAKKKKACiiigAooooAKKKKACiiigAooooAKKKKACiiigAooooAKKKKACiiigAooooAKKKKACiiigAooooAKKKKACiiigAooooAKKKKACiiigAorrfh78KfiD8U9S/s3wN4Zu9SZWCzTquyCDP/PSVsIv0JyewNfRMv8AwTt8cR+GXv08e6TJrqxlxpq2ziBmxnYLgsDntkxgZ745rGpXp0naUj5zNuLckyOrGhj8TGE301b+aSfKvN2R8k0VPfWV3pt7cabf27wXVrK8E0TjDRyKSGUj1BBFQVsfRKSkuaOwUUUUDCiiigAooooAKKKKACiiigAooqexsrvUr2302wt3nurqVIIYkGWkkYgKoHqSQKBNqKu9iCivraL/AIJ2+OJPDKX7+PdJj11ow501rZzArYzsNwGJz2yIyM98c187fEL4U/EH4Wal/Zvjnwzd6azMVinZd8E+P+ecq5RvoDkdwKxp4inVdoyPncp4tyTPKsqGAxMZzXTVP5Jpcy81dHJUUUVsfRhRRRQAUUUUAFFFFABRRRQAUUUUAFFFFABRRRQAUUUUAFFFFABRRRQAUUUUAFFFFABRRRQAUV2Pw5+EPxE+K2ofYPA/hm6vwjBZrrGy2g/35Wwq8c4zk9ga+yfhL+wN4R8P+Tq3xU1T/hIb5cN/Z9qWiskPozcSS/8Ajg7FTXPWxNOj8T1PkeIuN8l4Yi44yrep/JHWX3dPWTSPjT4d/CX4hfFTUP7P8DeGbvUdrBZrgLst4P8ArpK2EXjnBOT2Br7I+Ev7AvhXQvJ1b4r6r/b96uG/s2zZorND6M/Ekv8A44OxBr6o0jR9J8P6fDpGh6Xa6fY2y7Yba1hWKKMeiqoAFeffFb9ov4V/B+OSHxP4gWfVFXK6VY4mu29MqDiMH1cqD2zXmVMZWrvlpq35n4Zm/iXxFxXW+o5JTdOMukLyqNecvsr/AA2t1bPQNH0XR/Dumw6PoOl2mnWNuu2G2tYVijQeyqABV2vhC3/bS+InxO+Lvg7w3oFtD4b8O3viTTbeeCIiW5uYWuo1ZZJSOAwPKoF4JBLCvu+uWtRnRtz7s+D4k4YzLhuVL+07e0qpytfma1+09r+jfqfkT8bgF+NHj4AYA8Uar/6VyVxVdr8b/wDktHj/AP7GjVf/AErkriq+ip/Cj+zMo/5F9D/BH/0lBRRRVnohRRRQAUUUUAFFFFABRRRQAV2vwRAb40eAQRkHxRpX/pXHXFV2vwQ/5LR4A/7GjSv/AErjqKnws8/Nv+RfX/wS/wDSWfrtVLWNF0fxFps2j69pdpqNjcLtmtrqFZY3HurAg1dr4QuP20viJ8Mfi74x8N6/bQ+JPDtl4k1K3gglIiubaFbqRVWOUDkKBwrhuAACor52jRnWvybo/jLhvhjMuJJVf7Mt7SklK1+VvX7L2v6tep3fxa/YF8K6752rfCjVf7AvWy39m3jNLZufRX5ki/8AHx2AFfG/xE+EvxC+Feof2f458M3enbmKw3BXfbz/APXOVco3HOAcjuBX6X/Cn9ov4V/GCOOHwx4gWDVGXLaVfYhu19cKTiQD1QsB3xXoOr6PpPiDT5tI1zS7XULG5XbNbXUKyxSD0ZWBBrqp4ytQfLUV/wAz7zKPEviLhSt9Qzym6kY9J3jUS8pfa/7evfo0fjBRX318Wv2BvCPiDztW+Feqf8I9fNlv7Pui0tk59FbmSL/x8dgor42+I3wh+Inwp1D7B448M3VgHYrDdY320/8AuSrlW45xnI7gV6dHE063wvXsfufDvG+S8TxSwdW1T+SWkvu6+sW0cdRRRXQfXBRRRQAUUUUAFFFFABRRRQAUUUUAFFFFABRRRQAUUUUAFFFFABRXbfDb4M/Ej4tX32PwR4ZubyJW2zXjjy7WH/flb5Qcc7Rlj2Br7K+Ev7BPgrwz5OrfE/UP+El1BcN9hh3RWMbeh6PLg+u1T0KmuetiqdH4nr2PkOI+Ocl4YTjjKt6n8kdZfNbR/wC3mj4y+G/wd+I3xYvvsXgfwzdXyI22a7YeXbQf78rYUHHO3O49ga+yvhL+wR4N8OeTq3xS1L/hI79cN9gty0VjGfQnh5fx2jsVNfUmmaXpmi2EOl6Pp9tY2VsuyG3toljjjX0VVAAH0rzf4sftJ/Cn4QJLb+IdeW81ZB8uk6fia5z2DjO2L/gZX2zXmVMZWrvlpq3pufhmbeJPEfFtb6hklN04y6Qu5tecui9OW3Vs9H0rSdL0LT4dJ0XTbWwsrZdkNvawrFFGvoqqAB+FedfFb9pD4U/B+OSDxJr63WqquV0qwxNdE9tyg7Y/q5X2zXxV8Wv22Pin8QvO0vwxL/wiOjSZXy7GQm7kX/buMAj6IF9DmvnuSSSaRpZZGd3YszMcliepJ7mtKOXN+9VZ7PDvg1iMRJYnP6vLfXki7yf+KWqXna/+JH0R8Wv22/ij8QPO0vwo/wDwiOjvldtnIWvJF/258Ar9IwvoSa+d5ZZZ5HmmkaSSRizuzZLE8kknqabRXp06UKStBWP3PKMjy7IqP1fLqKpx8t36vdv1bO1+CH/JaPAH/Y0aV/6Vx1+u1fkT8EP+S0eAP+xo0r/0rjr9dq8vM/iifgfjj/yMMJ/gl/6UfkT8b/8AktHj/wD7GjVf/SuSuKrtfjf/AMlo8f8A/Y0ar/6VyVxVerT+FH9A5R/yL6H+CP8A6Sgoooqz0QooooAKKKKACiiigAooooAK7X4If8lo8Af9jRpX/pXHXFV2vwQ/5LR4A/7GjSv/AErjqKnws8/Nv+RfX/wS/wDSWfrtX5E/G/8A5LR4/wD+xo1X/wBK5K/XavyJ+N//ACWjx/8A9jRqv/pXJXlZZ8Uj+ffA7/kYYv8AwR/9KOMillgkSaGRo5I2DI6tgqRyCCOhr6I+Ev7bfxR+H/k6X4rf/hLtHTC7byQreRr/ALE+CW+kgb0BFfOtFepUpQqq01c/fM2yPLs9o/V8xoxqR8916PdP0aP1b+FP7SHwp+MEccHhvX1tdVZctpV/iG6B77VJ2yfVC3vivRdV0nS9d0+bSda021v7K5XZNb3UKyxSL6MrAg/jX4wxySQyLLFIyOjBlZTgqR0IPY19CfCX9tj4p/D3ydL8Ty/8Jdo0eF8u+kIu41/2LjBJ+jhvQYrzK2XNe9SZ+GcReDWIw8nicgq81teSTtJf4ZaJ+V7erPd/i1+wR4N8R+dq3wt1L/hHL9st9guC0tjIfQHl4vw3DsFFfGvxI+DvxG+E999i8ceGbqxR22w3ajzLaf8A3JVypOOdudw7gV+k3wn/AGk/hT8X0it/D2vLZ6s4+bSdQxDc57hBnbL/AMALe+K9I1PS9M1qwm0vWNPtr6yuV2TW9zEskci+jKwII+tZ08ZWoPlqK/rueNlPiTxHwlW+o53TlUiuk7qaXlLqvXmv0aPxeor9APi1+wT4K8Tedq3ww1D/AIRrUGy32GbdLYyN6Dq8WT6blHQKK+NfiT8GfiR8Jb77H438M3NnEzbYbxB5lrN/uSr8pOOdpww7gV6dHFU63wvXsfufDnHOS8TpRwdW1T+SWkvktpf9utnE0UUV0H14UUUUAFFFFABRRRQAUUUUAFFFFABRRRQAV9IfsU/BPwn8WfFWt6x40tPt+neGorZlsWYhJ5pjJsL45ZVET/L0JIzxkH5vr7V/4Ju/81E/7hH/ALeVzYyThRk4/wBanxPiNjsRl3DOKxGFm4TSik1o1zTjF2fTRs+zdN03TtHsYdM0nT7ays7ddkNvbxLHHGvoqqAAPpXmfxY/aY+FHwhWW117XRfaug40nT8TXGfR+dsX/AyDjoDVX9rbWdW8P/s9eLdU0PU7rT72NbNEuLWVo5FV7yBHAZSCMqzKcdia/LRmaRi7sWZjkknJJrzMJhFiFzyeh+H+Hfh7h+LqM8yx9V8kZuPKt5NKMm3J7L3u133R9BfFr9tT4qfETztM8OTf8Ilo0mV8mwlJupF/27jAYfRAo7HNfPzu8jtJIzM7EszMckk9STTaK9inThSVoKx/SWU5Jl+R0fq+X0Y04+S1fq92/NthRRRWh6gUUUUAdr8EP+S0eAP+xo0r/wBK46/XavyJ+CH/ACWjwB/2NGlf+lcdfrtXj5n8UT+bfHH/AJGGE/wS/wDSj8ifjf8A8lo8f/8AY0ar/wClclcVXa/G/wD5LR4//wCxo1X/ANK5K4qvVp/Cj+gco/5F9D/BH/0lBRRRVnohRRRQAUUUUAFFFFABRRRQAV2vwQ/5LR4A/wCxo0r/ANK464qu1+CH/JaPAH/Y0aV/6Vx1FT4Wefm3/Ivr/wCCX/pLP12r8ifjf/yWjx//ANjRqv8A6VyV+u1fkT8b/wDktHj/AP7GjVf/AErkryss+KR/Pvgd/wAjDF/4I/8ApRxVFFFewf0kFFFFADkd43WSNmV1IZWU4II6EGvoH4S/tqfFT4d+TpniOb/hLdGjwvk38pF1Gv8AsXGCx+jhh2GK+fKKzqU4VVaaueXm2SZfnlH6vmFGNSPmtV6PdPzTR+q3wn/aY+FHxeWK10HXRY6u450nUMQ3GfROdsv/AAAk46gV6ZqWm6drFjNpmrafbXtncLsmt7iJZI5F9GVgQR9a/F5WaNg6MVZTkEHBBr9S/wBknWdW8Qfs9eEtU1zU7rUL2RbxHuLqVpJGVLydEBZiScKqqM9gK8fF4RYdc8Xofzb4ieHuH4RowzLAVXySmo8r3i2pSTUluvd7XWmrPkP9tb4J+E/hN4q0TWPBdp9g07xLFcs1irEpBNCY95TPKqwlT5egIOOMAfN9fav/AAUi/wCad/8AcX/9s6+Kq9PByc6MXL+tT9v8OcdiMx4YwuIxU3ObUk29W+Wcoq766JahRRRXSfbhRRRQAUUUUAFFFFABRRRQAUUUUAFfav8AwTd/5qJ/3CP/AG8r4qr7V/4Ju/8ANRP+4R/7eVyY7/d5fL8z8+8U/wDkksX/ANw//TsD2v8AbN/5Nr8Yf9w//wBL7evy/r9QP2zf+Ta/GH/cP/8AS+3r8v6yy3+E/X9EfP8Agn/yT9b/AK/S/wDSKYUUUV6B+whRRRQAUUUUAdr8EP8AktHgD/saNK/9K46/XavyJ+CH/JaPAH/Y0aV/6Vx1+u1ePmfxRP5t8cf+RhhP8Ev/AEo/In43/wDJaPH/AP2NGq/+lclcVXtXxg+Cfxg1b4teNtU0z4X+KbuzvPEWpXFvcQ6TO8csb3MjK6sFwVIIII6g1yP/AAoX43f9Ej8X/wDgnuP/AImvShUhyrU/cMqzjL44ChGWIgmoR+1H+VeZwdFFdX4f+FHxO8WaYmteGfh94h1WwlZlS6s9NlmiYqcMAyqQSDwa1clHc9uviaOFjz15qK7tpL8TlKK7z/hQvxu/6JH4v/8ABPcf/E1xeoaffaTfXOl6nZzWl5ZzPb3FvMhSSKRGKsjKeQwIIIPQikpRlszPD47C4tuOHqRm1/LJP8ivRXR+Gfhv8QPGtrNfeEPBOt61b28nlSy2FjJOiPgHaSgIBwQce9bP/Chfjd/0SPxf/wCCe4/+JpOcVo2Z1c0wNCbp1a0IyW6ckn91zg6Kv67oOueF9Vn0PxHpF5pmo223zrW7haKWPcoZdyMARlWUjPYirvhfwP4y8bS3EPg/wrqutyWqq066faSTmINkAsEBwDg9fSq5klfodEsTRhS9vKaUN+a6tZ7O+2ph0V3n/Chfjd/0SPxf/wCCe4/+JrmvE3hHxV4Lvo9L8XeHdS0a8lhFwlvf2zwSNGWZQ4VwCVJVhn1U+lJTjLZmNDMcHiZ+zo1oyl2Uk3+DMiu1+CH/ACWjwB/2NGlf+lcdc94c8LeJfGGof2R4V0HUNYvvLMv2ext2mk2DGW2qCcDI5969W+D/AME/jBpPxa8E6pqfwv8AFNpZ2fiLTbi4uJtJnSOKNLmNmdmK4CgAkk9AKirOKi02cOeY/CYfB1qVWrGMuSWjkk9n0bP1Br8ifjf/AMlo8f8A/Y0ar/6VyV+u1fkT8b/+S0eP/wDsaNV/9K5K8zLPikfhHgd/yMMX/gj/AOlHFUUUV7B/SQUUUUAFFFFABX6gfsZf8m1+D/8AuIf+l9xX5f1+oH7GX/Jtfg//ALiH/pfcV5+Zfwl6/oz8e8bP+Sfo/wDX6P8A6RUPFP8AgpF/zTv/ALi//tnXxVX2r/wUi/5p3/3F/wD2zr4qrXA/7vH5/mfQeFn/ACSWE/7if+nZhRRRXWfoIUUUUAFFFFABRRRQAUUUUAFFFFABX2r/AME3f+aif9wj/wBvK+Kq+1f+Cbv/ADUT/uEf+3lcmO/3eXy/M/PvFP8A5JLF/wDcP/07A9r/AGzf+Ta/GH/cP/8AS+3r8v6/UD9s3/k2vxh/3D//AEvt6/L+sst/hP1/RHz/AIJ/8k/W/wCv0v8A0imFFFFegfsIUUUUAFFFFAHa/BD/AJLR4A/7GjSv/SuOv12r8ifgh/yWjwB/2NGlf+lcdfrtXj5n8UT+bfHH/kYYT/BL/wBKCivy3+MXxe+LGm/Fzxvpum/FDxbaWlp4j1KC3t4NauUjijW6kVURQ+FUAAADgAVyH/C7PjN/0Vvxp/4Prr/45Sjl0pK/MY4XwVx2KoQrrFQSkk/hl1Vzi6/S/wDYd/5N50f/AK/b7/0e1fmhXS6H8TPiR4Z09NJ8N/EDxLpVjGzMlrY6tPBEpY5JCI4AJPJ4r0MVRdeHKnY/ZOOuF63FuWRwFGooNTUrtN7KStp6n7DV+RPxv/5LR4//AOxo1X/0rkpP+F2fGb/orfjT/wAH11/8crkb6+vNSvLjUtSvJru7u5WnuLieQvJLIxLM7seWYkkknkk1lhcLLDybbvc8HgDw/wATwdia1evWjNTilomrWd+p95/8E7P+Sc+KP+w2P/RCV9ZV+OXh3x/488I28tn4T8a69osE7+ZLFp2pTWyO+MbmEbAE4AGT6Vrf8Ls+M3/RW/Gn/g+uv/jlZV8BKrUc09z57ifwmxmf5tXzKniYxVR3s07rRL9Dt/2zf+TlPGH/AHD/AP0gt69Z/wCCcn/IxeNv+vKz/wDRklfJGs63rXiLUptZ8Qate6nqFxt866vLh5ppNqhV3O5LHCqAMngADtVvw74y8XeD5J5vCXirWNEkuVCzNp19LbGUDJAYxsNwGTjPrXVOg5UPY36L8D7/ADLhetjuFY8PxqJTVOnDms7Xhy3dt9eU/ZOvz0/4KGf8lo0X/sV7b/0ru68T/wCF2fGb/orfjT/wfXX/AMcrnvEHijxN4tvE1LxV4i1PWbuOIQJcahdyXEixglggaQkhQWY46ZY+tc+GwUqFTnbPj+CfDHFcK5ssxrV4zSjJWSaevqe+fsD/APJdm/7Al3/6FFX6OV+Mug+JPEXhW+/tTwxr2o6PebDH9osLqS3l2HGV3oQcHA4z2FepfB34vfFjUvi54I03Uvih4tu7S78R6bBcW8+tXLxyxtdRqyOpfDKQSCDwQaWLwkq0vaJ9DPxC8O8TxFjZ5tTrRjGNPZp3927/ABP1Ir8ifjf/AMlo8f8A/Y0ar/6VyV+u1fkT8b/+S0eP/wDsaNV/9K5Kxyz4pHyvgd/yMMX/AII/+lHFUUUV7B/SQUUUUAFFFFABX6gfsZf8m1+D/wDuIf8ApfcV+X9fqB+xl/ybX4P/AO4h/wCl9xXn5l/CXr+jPx7xs/5J+j/1+j/6RUPFP+CkX/NO/wDuL/8AtnXxVX2r/wAFIv8Amnf/AHF//bOviqtcD/u8fn+Z9B4Wf8klhP8AuJ/6dmFFFFdZ+ghRRRQAUUUUAFFFFABRRRQAUUUUAFfav/BN3/mon/cI/wDbyviqvtX/AIJu/wDNRP8AuEf+3lcmO/3eXy/M/PvFP/kksX/3D/8ATsD2v9s3/k2vxh/3D/8A0vt6/L+v1A/bN/5Nr8Yf9w//ANL7evy/rLLf4T9f0R8/4J/8k/W/6/S/9IphRRRXoH7CFFFFABRRRQB2vwQ/5LR4A/7GjSv/AErjr9dq/In4If8AJaPAH/Y0aV/6Vx1+u1ePmfxRP5t8cf8AkYYT/BL/ANKPyJ+N/wDyWjx//wBjRqv/AKVyVxVdr8b/APktHj//ALGjVf8A0rkriq9Wn8KP6Byj/kX0P8Ef/SUFFFFWeiFFFFABRRRQAUUUUAFFFFABXa/BD/ktHgD/ALGjSv8A0rjriq7X4If8lo8Af9jRpX/pXHUVPhZ5+bf8i+v/AIJf+ks/XavyJ+N//JaPH/8A2NGq/wDpXJX67V+RPxv/AOS0eP8A/saNV/8ASuSvKyz4pH8++B3/ACMMX/gj/wClHFUUUV7B/SQUUUUAFFFFABX6gfsZf8m1+D/+4h/6X3Ffl/X6gfsZf8m1+D/+4h/6X3FefmX8Jev6M/HvGz/kn6P/AF+j/wCkVDxT/gpF/wA07/7i/wD7Z18VV9q/8FIv+ad/9xf/ANs6+Kq1wP8Au8fn+Z9B4Wf8klhP+4n/AKdmFFFFdZ+ghRRRQAUUUUAFFFFABRRRQAUUUUAFfav/AATd/wCaif8AcI/9vK+Kq+1f+Cbv/NRP+4R/7eVyY7/d5fL8z8+8U/8AkksX/wBw/wD07A9r/bN/5Nr8Yf8AcP8A/S+3r8v6/UD9s3/k2vxh/wBw/wD9L7evy/rLLf4T9f0R8/4J/wDJP1v+v0v/AEimFFFFegfsIUUUUAFFFFAHa/BD/ktHgD/saNK/9K46/XavyJ+CH/JaPAH/AGNGlf8ApXHX67V4+Z/FE/m3xx/5GGE/wS/9KPyJ+N//ACWjx/8A9jRqv/pXJXFV2vxv/wCS0eP/APsaNV/9K5K4qvVp/Cj+gco/5F9D/BH/ANJQUUV0V98PfG2m+DrH4gX3hu9h8PalO9va37R/u5HX9QDzgkYYq2CdpxTaW52VK9Ki4xqSScnZXdrvey7vR6HO0UUUzUK634c/Cnx18V76/wBN8CaKdRutOtDeTR+akfyBlXALkKWJbhc5ODjpXJV+in7B3w5/4RX4UTeMry32X3iy585SRgi0hLJEPxbzW9wy1z4mt7CnzLc+O454nfCmUSx1NJ1G1GCezb1d7NPSKbPgDxJ4V8TeD9SbSPFWgahpF6nWG8t2iYj1AYDI9xwayq/R39uzxhpfh34N/wBh3FnaXGo+IbxLWz86JXaBEw8sqbhwQAqZHI8wV+cVGGrOvDnasVwTxJX4qytZhXo+z95x3upW3ktFZXura7PUKK6Kx+HvjbUvB198QLHw3ezeHtNnS3ur9Y/3cbt+pA4yQMKWXJG4Z52t009j6qnXpVnKNOSbi7OzvZ72fZ2a0Cu1+CH/ACWjwB/2NGlf+lcdcVXa/BD/AJLR4A/7GjSv/SuOpqfCzkzb/kX1/wDBL/0ln67V+RPxv/5LR4//AOxo1X/0rkr9dq/In43/APJaPH//AGNGq/8ApXJXlZZ8Uj+ffA7/AJGGL/wR/wDSjiqKKK9g/pIKKKKACiiigAr9QP2Mv+Ta/B//AHEP/S+4r8v6/UD9jL/k2vwf/wBxD/0vuK8/Mv4S9f0Z+PeNn/JP0f8Ar9H/ANIqHin/AAUi/wCad/8AcX/9s6+Kq+1f+CkX/NO/+4v/AO2dfFVa4H/d4/P8z6Dws/5JLCf9xP8A07MKKKK6z9BCiiigAooooAKKKKACiiigAooooAK+1f8Agm7/AM1E/wC4R/7eV8VV9q/8E3f+aif9wj/28rkx3+7y+X5n594p/wDJJYv/ALh/+nYHtf7Zv/JtfjD/ALh//pfb1+X9fqB+2b/ybX4w/wC4f/6X29fl/WWW/wAJ+v6I+f8ABP8A5J+t/wBfpf8ApFMKKKK9A/YQooooAKKKKAO1+CH/ACWjwB/2NGlf+lcdfrtX5E/BD/ktHgD/ALGjSv8A0rjr9dq8fM/iifzb44/8jDCf4Jf+lH5E/G//AJLR4/8A+xo1X/0rkriq7X43/wDJaPH/AP2NGq/+lclev/sqfsrXfxUvIfHXjm1lt/CFtJmGE5V9UdTyqnqIgRhmHXlV5yV9F1Y0qSlI/a6ud4Ph7IqWOx0uWEYR9W+VWil1b/4L0ux/7Kf7Kt18UbqDx547tZbfwjbSboIGyr6o6n7o7iEEYZh15Ve5X781rwp4X1zwvceEda0azm0Oa2+yyWbRhYVhAwFAGNm3AwRjbgEYxWja2tnptnFZ2dvDa2trGI4oo1CRxRqMBVA4UADGB0xXwr+1t+1m3idrz4X/AAx1IjR1Jh1XVIW/4/T0aGJh/wAsuzMPv9B8v3/J5quOq6aJfgfztLE554qZ7H2LcKcHdWvy0o33vpebt6t7WS0+cPipofg7w38QNa0TwD4gbWtCtLkpaXjLjcO6hhw4U5XeMBsZAwa5SiivcSsrH9U4alKhRhSnNzcUk5O13Zbu1ld7uxt+CPCmoeOvGGjeD9LU/atYvYrNGxkJvYAufZRlj7A1+wOg6Lp/hvQ9P8O6TD5VlplrFZ28f92ONQqj8gK+Ev8Agn58Of7a8dar8Rr63zbeHbf7LZsw63U4IJH+7EHB/wCuq19rfEzxtZ/DnwDr3je+2lNIspJ0RjgSS4xFH/wJyq/8Crx8wm6lRU49PzZ/N3i9mtTN87o5JhdfZ2Vu9SpbT7uX72fn/wDtwfEb/hNfjLP4fs59+n+E4RpsYB+U3B+advYhtsZ/65V5L8K9D8HeJPiBouiePvEDaLoV3chLu8Vc7R2UseEDHC7zkLnJGBXOajqF5q2oXWqahO091eTPcTyt1eR2LMx9ySTVevUhT5Kapo/fMsyWOV5PTyrDzceWHLzK107ayV9L3vLbc/ZPRfCnhfQ/C9v4R0XRrOHQ4bb7LHZrGGhaEjBUg537snJOd2STnNfAf7Vn7Kt18Lrqfx54EtZbjwjcybp4Fyz6W7H7p7mEk4Vj04Vuxbo/2Sf2s28MtZ/C/wCJ2pE6OxEOlapM3/Hkeiwysf8All2Vj9zofl+591XVrZ6lZy2d5bw3VrdRmOWKRQ8csbDBVgeGBBxg9c1496uBq66p/ifzWsTnnhXnsvbNzpzd3e/LVjfe+tpq/qnvdPX8W67X4If8lo8Af9jRpX/pXHXr/wC1X+ytd/Cu8m8deBrWW48IXMmZoRln0t2PCsepiJOFY9OFbnBbyD4If8lo8Af9jRpX/pXHXrKrGrScon9E0s7wfEOR1MdgZc0JQl6p8rvGS6Nf8FaNM/XavyJ+N/8AyWjx/wD9jRqv/pXJX67V+RPxv/5LR4//AOxo1X/0rkrzss+KR+KeB3/Iwxf+CP8A6UcVRRRXsH9JBRRRQAUUUUAFfqB+xl/ybX4P/wC4h/6X3Ffl/X6gfsZf8m1+D/8AuIf+l9xXn5l/CXr+jPx7xs/5J+j/ANfo/wDpFQ8U/wCCkX/NO/8AuL/+2dfFVfav/BSL/mnf/cX/APbOviqtcD/u8fn+Z9B4Wf8AJJYT/uJ/6dmFFFFdZ+ghRRRQAUUUUAFFFFABRRRQAUUUUAFfav8AwTd/5qJ/3CP/AG8r4qr7V/4Ju/8ANRP+4R/7eVyY7/d5fL8z8+8U/wDkksX/ANw//TsD2v8AbN/5Nr8Yf9w//wBL7evy/r9QP2zf+Ta/GH/cP/8AS+3r8v6yy3+E/X9EfP8Agn/yT9b/AK/S/wDSKYUUUV6B+whRRRQAUUUUAdr8EP8AktHgD/saNK/9K46/XavyJ+CH/JaPAH/Y0aV/6Vx1+u1ePmfxRP5t8cf+RhhP8Ev/AEo/MrT/AAdofj79szVvCXiZ8aZf+NNW+0Lu2+aEnnkEWRyN5QJxz83GK/S6ysrPTbODT9PtYra1to1hhhhQIkaKMKqqOAAAAAK/Jf4wX15pfx28b6lpt1LbXdp4t1KeCaJirxSLeSFWUjkEEAg+1fc/7LX7Ulh8X9Pj8I+LpobTxjZxeyJqUajmWMdBIByyD3ZeMhXjaU5QjNbJHX4oZBmWNy3B5pQblRpUoqUV9l2vz27NWTfSy6Xtwf7dvxj8feG0t/hpommXelaNrFt5l1qwP/H+vRreNgflUcbwcMcgYCn5/hiv2D+JHw48K/FTwpdeD/F9gLizuRujkXAlt5RnbLG38LjPXoQSCCCQfzA+N3wR8VfA/wAWPoOvRm4sbgtJpupRoRFdxA9f9lxkBkzkEjqCCdsBWg4+zWj/ADPf8IuI8qrYBZPTgqdeN2/+nn95N9V1XRbaaLzuiivSv2c/h1/wtD4w+HvDM8Hm2CXH27UARlfs0Pzup9mwE+riu+clCLk+h+uY/G0stwtTGV3aFOLk/RK5+hH7Lfw5/wCFafBXQdJuIPK1DUY/7V1AEYPnTgMFPusYjQ/7leL/APBQr4jfYfD+hfC+xuMTapL/AGpfqp58iMlYlPs0m5vrEK+wOFHoBX5O/tEfEX/haHxf8Q+KIZvMsBcGz0/nj7LD8iEem7Bf6ua8bBxdeu6kump/NPhrgqvFPFVTOMUrqm3Ufbnk3yr5atf4TzeiiivbP6iCvuf9hL4x+PvEiXHw01vTLvVdG0e28y11Yn/jwXotvIxPzKedgGWGCMFR8ny58Efgj4q+OHixNB0GM29jblZNS1KRCYrSInr/ALTnBCpnJIPQAkfp/wDDf4ceFfhX4UtfB/hCwFvZ2w3SSNgy3Epxulkb+Jzjr0AAAAAAHm4+tBR9m9X+R+L+LvEeVUcA8nqQVTESs1/07/vNrq+i6rfTR9De2VnqVnPp+oWsVza3MbQzQzIHSRGGGVlPBBBIINfmjqHg7Q/AP7Zmk+EvDL50yw8aaT9nXdu8oPPBIYsnk7C5Tnn5ec19W/tS/tSWHwg0+Twj4Rmhu/GN5F7OmmxsOJZB0MhHKofZm4wG+GPg/fXmqfHbwRqWpXUtzd3fi3TZ55pWLPLI15GWZieSSSST71lgqU4wlN7NHgeF+QZlgstxmaV240atKSjF/adr89uyV0n1u+lr/rfX5E/G/wD5LR4//wCxo1X/ANK5K/XavyJ+N/8AyWjx/wD9jRqv/pXJSyz4pHJ4Hf8AIwxf+CP/AKUcVRRRXsH9JBRRRQAUUUUAFfqB+xl/ybX4P/7iH/pfcV+X9fqB+xl/ybX4P/7iH/pfcV5+Zfwl6/oz8e8bP+Sfo/8AX6P/AKRUPFP+CkX/ADTv/uL/APtnXxVX2r/wUi/5p3/3F/8A2zr4qrXA/wC7x+f5n0HhZ/ySWE/7if8Ap2YUUUV1n6CFFFFABRRRQAUUUUAFFFFABRRRQAV9q/8ABN3/AJqJ/wBwj/28r4qr7V/4Ju/81E/7hH/t5XJjv93l8vzPz7xT/wCSSxf/AHD/APTsD2v9s3/k2vxh/wBw/wD9L7evy/r9QP2zf+Ta/GH/AHD/AP0vt6/L+sst/hP1/RHz/gn/AMk/W/6/S/8ASKYUUUV6B+whRRRQAUUUUAdr8EP+S0eAP+xo0r/0rjr9dq/In4If8lo8Af8AY0aV/wClcdfrtXj5n8UT+bfHH/kYYT/BL/0o/In43/8AJaPH/wD2NGq/+lclcnpupaho2oW2raTezWd7ZyrNb3ELlHidTlWUjkEGus+N/wDyWjx//wBjRqv/AKVyVxVerD4F6H9AZVFTy6hGSunCP/pKP0m/Zb/ai0/4xabH4T8WTQ2njKzi+ZeETUo1HMsY6BwOXQf7y8ZC+ufEr4a+Ffit4TuvCHi6xE9pcDdHIuBLbSgHbLG38LDP0IJBBBIr8h9L1TUtE1K21jR76azvbOVZre4hco8TqchlI5BBr6f8Tft4+Mta+FNv4Z03Tzp/i6dWttQ1mIhU8kAASQqOUlfJB7LgleWGzzK2BkqilR/4Y/D+JvCvG4fNqWN4afJGUk7Xt7J78yf8vktU9EmmreAfFHwK3w08e6x4IbWrPVv7KuDCLq1bKuMAgMP4XGcMuTtYEZOM19h/8E9fhz/Z/hvXPidfW+JtWm/syxZhyLeIhpWHs0m0fWGvhzT7HUNc1S20yxie5vdQuEghQctLLIwVR7ksR+dfr58N/Bdn8O/AeheCbDaY9Hso7dnUY8yTGZJP+BOWb/gVa4+o4UlTvqz2/FvOamWZDRyqVTmq1rKTta8YWcnZbc0radro4j9qj4jf8K1+Cuu6nbz+VqGqR/2TYEHB86cEFh7rGJHHuor8sK+rf+CgXxG/tzx9pfw6sbjNt4ctvtF2qng3c4BAPrtiCEf9dGr5SrTA0vZ0r9We14T5H/ZHD8cRUVp13zv/AA7RX3e9/wBvBXVfC7wK3xL8e6P4IXWrPSf7VuBCbq6bCoMEkKP4nOMKuRuYgZGc1ytKjvGyyRsVZTuVlOCD6iuySbWh+jYmFSrRnCjLlm00pWvZ20dutt7H7A/DX4a+FfhT4TtfCHhGxEFpbjdJI2DLcykDdLI38THH0AAAAAAryP8Aak/ai0/4O6bJ4T8JzQ3fjK8i+VeHTTY2HEsg6FyOUQ/7zcYDeBeGf28fGWi/Cm48M6lp51DxdAq22n6zKQyeSQQZJlPLypgAdmyC3Knf8wapqmpa3qVzrGsX015e3krTXFxM5d5XY5LMTySTXlUcDJ1HKt/w5+CcM+FeNr5tVxvEj54xldK9/avfmb/l8nq3o0kndNS1LUNZ1C51bVr2a8vbyVpri4mcu8rscszE8kk11nwQ/wCS0eAP+xo0r/0rjriq7X4If8lo8Af9jRpX/pXHXpz+B+h+4ZpFQy6tGKslCX/pLP12r8ifjf8A8lo8f/8AY0ar/wClclfrtX5E/G//AJLR4/8A+xo1X/0rkryss+KR/P8A4Hf8jDF/4I/+lHFUUUV7B/SQUUUUAFFFFABX6gfsZf8AJtfg/wD7iH/pfcV+X9fqB+xl/wAm1+D/APuIf+l9xXn5l/CXr+jPx7xs/wCSfo/9fo/+kVDxT/gpF/zTv/uL/wDtnXxVX2r/AMFIv+ad/wDcX/8AbOviqtcD/u8fn+Z9B4Wf8klhP+4n/p2YUUUV1n6CFFFFABRRRQAUUUUAFFFFABRRRQAV9q/8E3f+aif9wj/28r4qr7V/4Ju/81E/7hH/ALeVyY7/AHeXy/M/PvFP/kksX/3D/wDTsD2v9s3/AJNr8Yf9w/8A9L7evy/r9QP2zf8Ak2vxh/3D/wD0vt6/L+sst/hP1/RHz/gn/wAk/W/6/S/9IphRRRXoH7CFFFFABRRRQB2vwQ/5LR4A/wCxo0r/ANK46/XavyJ+CH/JaPAH/Y0aV/6Vx1+u1ePmfxRP5t8cf+RhhP8ABL/0o/In43/8lo8f/wDY0ar/AOlclcVXa/G//ktHj/8A7GjVf/SuSuKr1afwo/oHKP8AkX0P8Ef/AElBRRRVnonvv7Evg/S/E/xwsdR1i7tY4tAgfUIIJpVVri5GFiVFJyxUsZOOnljPWv0e8Qa5p/hjQdR8SatN5VlpdrLeXD/3Y41LN+gNfjKjtGyyRsVZTuVlOCD6ivQJPj78XbnwRf8Aw71Dxtf3+h6jGkUsN4wmkVFdWCpKwMir8oBXdjGRiuDE4OVealfQ/I+OfDnF8WZnTx0MQlBcsXFpq0b3k4tXu3duzS7XOY8aeKtQ8ceLdY8X6q2brWLyW8kGchN7EhR7KMAewFYtFFdyVlZH6xSpQoU40qatGKSS7JbBRRRTNAooooAK7X4If8lo8Af9jRpX/pXHXFV2vwQ/5LR4A/7GjSv/AErjqKnws8/Nv+RfX/wS/wDSWfrtX5E/G/8A5LR4/wD+xo1X/wBK5K/XavyJ+N//ACWjx/8A9jRqv/pXJXlZZ8Uj+ffA7/kYYv8AwR/9KOKooor2D+kgooooAKKKKACv1A/Yy/5Nr8H/APcQ/wDS+4r8v6/UD9jL/k2vwf8A9xD/ANL7ivPzL+EvX9Gfj3jZ/wAk/R/6/R/9IqHin/BSL/mnf/cX/wDbOviqvtX/AIKRf807/wC4v/7Z18VVrgf93j8/zPoPCz/kksJ/3E/9OzCiiius/QQooooAKKKKACiiigAooooAKKKKACvtX/gm7/zUT/uEf+3lfFVfav8AwTd/5qJ/3CP/AG8rkx3+7y+X5n594p/8kli/+4f/AKdge1/tm/8AJtfjD/uH/wDpfb1+X9fqB+2b/wAm1+MP+4f/AOl9vX5f1llv8J+v6I+f8E/+Sfrf9fpf+kUwooor0D9hCiiigAooooA7X4If8lo8Af8AY0aV/wClcdfrtX5E/BD/AJLR4A/7GjSv/SuOv12rx8z+KJ/Nvjj/AMjDCf4Jf+lH5E/G/wD5LR4//wCxo1X/ANK5K4qu1+N//JaPH/8A2NGq/wDpXJXFV6tP4Uf0DlH/ACL6H+CP/pKCiiirPRCiiigAooooAKKKKACiiigArtfgh/yWjwB/2NGlf+lcdcVXa/BD/ktHgD/saNK/9K46ip8LPPzb/kX1/wDBL/0ln67V+RPxv/5LR4//AOxo1X/0rkr9dq/In43/APJaPH//AGNGq/8ApXJXlZZ8Uj+ffA7/AJGGL/wR/wDSjiqKKK9g/pIKKKKACiiigAr9QP2Mv+Ta/B//AHEP/S+4r8v6/UD9jL/k2vwf/wBxD/0vuK8/Mv4S9f0Z+PeNn/JP0f8Ar9H/ANIqHin/AAUi/wCad/8AcX/9s6+Kq+1f+CkX/NO/+4v/AO2dfFVa4H/d4/P8z6Dws/5JLCf9xP8A07MKKKK6z9BCiiigAooooAKKKKACiiigAooooAK+1f8Agm7/AM1E/wC4R/7eV8VV9q/8E3f+aif9wj/28rkx3+7y+X5n594p/wDJJYv/ALh/+nYHtf7Zv/JtfjD/ALh//pfb1+X9fqB+2b/ybX4w/wC4f/6X29fl/WWW/wAJ+v6I+f8ABP8A5J+t/wBfpf8ApFMKKKK9A/YQooooAKKKKAO1+CH/ACWjwB/2NGlf+lcdfrtX5E/BD/ktHgD/ALGjSv8A0rjr9dq8fM/iifzb44/8jDCf4Jf+lH5E/G//AJLR4/8A+xo1X/0rkriq+7fHH7Ac/jLxr4g8Xr8VUtBrmqXepfZ/7EL+T50zSbN3njdjdjOBnHQVh/8ADt+4/wCiwx/+CE//ACRXXDG0FFLm/M/Rsu8TOFaGDpUqmKtKMYp+5U3SV/sHxdRRX0r8Ef2M5vjN8PbPx4nxFTSBdzTw/ZTpJn2+W5TO/wA5c5xnpXTUqxpLmm7I+1zrPcv4ew6xeZVOSDaje0nq7u1opvoz5qor7R/4dv3H/RYY/wDwQn/5Ir5I8beGz4N8aa/4Qa8+1nQ9UutN+0eXs87yZWj37cnbnbnGTjPU1NLEU6ztB3OLI+Lsm4jqTpZZW55RV37slZf9vRRi0V9B/s9/sly/HnwXe+L4/Hi6ILPVJNN+znTPtG7ZFFJv3eamM+bjGP4evNenf8O37j/osMf/AIIT/wDJFRPF0YS5ZS1+Z5+YeIXDeV4qeDxeJ5akHZrkqOz9VFr7mfF1Fdp8ZPhu3wj+JGsfD1tYGqnSfs/+li38nzPNt45vubmxjzMfeOcZ74rtf2cf2b5P2gv+Eh8vxguhf2B9k62H2nzvP87/AKaJt2+T753dsc6yqwjD2jeh7mJz/L8HlizitUth3GMua0tp25XZLm15l0ur6ni1FfaP/Dt+4/6LDH/4IT/8kV8+/tCfBN/gN40svCEniQa2bzS49S+0Cz+z7d8ssezbvfOPKznP8XTis6eJpVZcsHqeXlHHGQ59ilg8vxHPUabtyzWi31lFL8TzCu1+CH/JaPAH/Y0aV/6Vx1o/AX4Pt8cPHR8Ep4gGjEWUt59pNr9o+4VG3ZvTru657V9T+B/2A5/BvjXw/wCL2+KqXY0PVLTUvs/9iFPO8mZZNm7zztztxnBxnoaVfEU6d4Setjk4p4xyTJ4Vcvxtflqyg7R5Zv4k0tVFrX1Pr6vyJ+N//JaPH/8A2NGq/wDpXJX67V+RPxv/AOS0eP8A/saNV/8ASuSuDLPikfkngd/yMMX/AII/+lHFUUUV7B/SQUUUUAFFFFABX6gfsZf8m1+D/wDuIf8ApfcV+X9fqB+xl/ybX4P/AO4h/wCl9xXn5l/CXr+jPx7xs/5J+j/1+j/6RUPFP+CkX/NO/wDuL/8AtnXxVX2r/wAFIv8Amnf/AHF//bOviqtcD/u8fn+Z9B4Wf8klhP8AuJ/6dmFFFFdZ+ghRRRQAUUUUAFFFFABRRRQAUUUUAFfav/BN3/mon/cI/wDbyviqvtX/AIJu/wDNRP8AuEf+3lcmO/3eXy/M/PvFP/kksX/3D/8ATsD2v9s3/k2vxh/3D/8A0vt6/L+v1A/bN/5Nr8Yf9w//ANL7evy/rLLf4T9f0R8/4J/8k/W/6/S/9IphRRRXoH7CFFFFABRRRQB2vwQ/5LR4A/7GjSv/AErjr9dq/In4If8AJaPAH/Y0aV/6Vx1+u1ePmfxRP5t8cf8AkYYT/BL/ANKPKda/am+Anh7WL7QNY+IVvbX+mXMtndQmyumMc0bFHXKxEHDAjIJHFU/+Gvv2cv8Aoplt/wCAF3/8ar86/jf/AMlo8f8A/Y0ar/6VyVxVbRy6nKKd2fSYHwZyTFYWnXlWq3lGLesOqv8AyBX3T+yj+0N8G/h58GNN8L+MvG0Om6pBdXUklu1pcOVV5WZTlIyvIOetfC1FdlejGvHlkfpXFHDGF4swSwOMlKMVJSvGyd0muqemvY/Un/hr79nL/oplt/4AXf8A8ar83/itrGm+Ifih4w1/R7oXNhqev6heWswUqJIZLh3RsMARlSDggHmuWorOhhY4dtxe55fCnAWX8IVqlfBVJyc0k+ZxezvpaKPs39jH47fCf4X/AAv1TQPHfi+LSr+41+e8jhe1nkLQtb26Bsxow+9G4xnPFe+f8Nffs5f9FMtv/AC7/wDjVfltRWdTAU6knNt6njZz4T5PnePq5hXq1FOo7tJxt8rwb/E9S/ae8YeHPHvxy8S+LPCWprqGk332P7PcrG6B9lnDG3yuAwwyMOR2r1L9h/4v/Dn4U/8ACaf8LA8TR6R/an9nfZN9vNJ5vl/ad/8Aq0bGPMTrjrXy3RW8qEZ0vZPbT8D6vH8LYTMMhXD9SUlSUYQurc1qfK1ra13yq+nfY/Un/hr79nL/AKKZbf8AgBd//Gq+Mf2zviP4K+KHxQ0vX/AmuJqthb6BBZyTJDJGFmW4uHK4kVT92RDnGOa8EorKjg4UJc8WzwOGvDTK+F8eswwlWpKaTVpONtfSKf4nt37IPxA8IfDX4uN4j8bayml6cdKuLfz2ikkHmM0ZVcIrHnB7dq+59F/am+AniHWLHQNH+IVvc3+p3MVnawiyulMk0jBEXLRADLEDJIHNflVXa/BD/ktHgD/saNK/9K46WJwkKrdSTd7HPxp4e5bxDUqZtiak1OMNFFx5fdTa3i366n67V+RPxv8A+S0eP/8AsaNV/wDSuSv12r8ifjf/AMlo8f8A/Y0ar/6VyVyZZ8Uj868Dv+Rhi/8ABH/0o4qiiivYP6SCiiigAooooAK/UD9jL/k2vwf/ANxD/wBL7ivy/r9QP2Mv+Ta/B/8A3EP/AEvuK8/Mv4S9f0Z+PeNn/JP0f+v0f/SKh4p/wUi/5p3/ANxf/wBs6+Kq+1f+CkX/ADTv/uL/APtnXxVWuB/3ePz/ADPoPCz/AJJLCf8AcT/07MKKKK6z9BCiiigAooooAKKKKACiiigAooooAK+1f+Cbv/NRP+4R/wC3lfFVfav/AATd/wCaif8AcI/9vK5Md/u8vl+Z+feKf/JJYv8A7h/+nYHtf7Zv/JtfjD/uH/8Apfb1+X9fqB+2b/ybX4w/7h//AKX29fl/WWW/wn6/oj5/wT/5J+t/1+l/6RTCiiivQP2EKKKKACiiigDtfgh/yWjwB/2NGlf+lcdfrtX5E/BD/ktHgD/saNK/9K46/XavHzP4on82+OP/ACMMJ/gl/wClH5E/G/8A5LR4/wD+xo1X/wBK5K4qu1+N/wDyWjx//wBjRqv/AKVyVxVerT+FH9A5R/yL6H+CP/pKCiiirPRCiiigAooooAKKKKACiiigArtfgh/yWjwB/wBjRpX/AKVx1xVdr8EP+S0eAP8AsaNK/wDSuOoqfCzz82/5F9f/AAS/9JZ+u1fkT8b/APktHj//ALGjVf8A0rkr9dq/In43/wDJaPH/AP2NGq/+lcleVlnxSP598Dv+Rhi/8Ef/AEo4qiiivYP6SCiiigAooooAK/UD9jL/AJNr8H/9xD/0vuK/L+v1A/Yy/wCTa/B//cQ/9L7ivPzL+EvX9Gfj3jZ/yT9H/r9H/wBIqHin/BSL/mnf/cX/APbOviqvtX/gpF/zTv8A7i//ALZ18VVrgf8Ad4/P8z6Dws/5JLCf9xP/AE7MKKKK6z9BCiiigAooooAKKKKACiiigAooooAK+0v+Cb9xCtx8QbVpFEsiaXIqZ5KqboMfwLL+Yr4trpfh98RvGHwu8RR+KPBOsSaffopjYhQ6TRnBMciMCGU4HB6EAjBANY4im61NwXU+Z4wySrxHklfLKMlGU0rN7XjJSV/W1j9Z/Hngfw78SPCd/wCCvFdrJcaXqSoJ445WjbKSLIhDKcgh0U+nGDkcV8k+Pv8Agnb/AKy7+Gfjr1KWWtR/p58Q/nH+NR+Af+CiMq+XafEzwMHHRr3RZMH/AL8Snn6iQfSvpHwD+0V8G/iR5cPhrxzYfbJMAWN432W43f3QkmN5/wBzcPevHUcThNtvvR/OdHDcb+HnN7GMo0r3dkqlN9Lu10rpLX3XofnD4+/Z5+MXw18ybxR4G1BbOPJN9ar9ptsepkjyE/4Fg+1edV+1deaePv2cPgz8SPMm8ReB7FL2TJN9Yr9luN394tHjef8AfDCuinmX/PxfcfY5N43LSGb4b/t6m/8A22T/APbvkfk/RX2f4+/4J3XUfmXfwz8cJKvJWy1mPa30E8QwT9Yx9a+b/HvwE+Lvw18yTxb4H1GC1j63sCfaLbHqZY9yr9GIPtXfTxNKr8LP1jJuNciz60cHiYuT+y/dl90rN/K5wFFFFbn1J2vwQ/5LR4A/7GjSv/SuOv12r8ifgh/yWjwB/wBjRpX/AKVx1+u1ePmfxRP5t8cf+RhhP8Ev/Sj8ifjf/wAlo8f/APY0ar/6VyVxVdr8b/8AktHj/wD7GjVf/SuSuKr1afwo/oHKP+RfQ/wR/wDSUFFFFWeiFFFFABRRRQAUUUUAFFFFABXa/BD/AJLR4A/7GjSv/SuOuKrtfgh/yWjwB/2NGlf+lcdRU+Fnn5t/yL6/+CX/AKSz9dq/In43/wDJaPH/AP2NGq/+lclfrtX5E/G//ktHj/8A7GjVf/SuSvKyz4pH8++B3/Iwxf8Agj/6UcVRRRXsH9JBRXf+AvgJ8XfiV5cnhLwPqM9rJ0vZ0+z22PUSybVb6KSfavpDwD/wTuupPLu/iZ44SJeC1lo0e5voZ5RgH6Rn61hUxNKl8TPls541yLIbxxmJipL7K96X3Ru187HxhXovgH9nn4xfEry5vC/gbUGs5MEX10v2a2x6iSTAf/gOT7V+jfgH9nD4M/Dfy5vDvgexe9jwRfXy/arjd/eDSZ2H/cCivS64amZf8+4/efk+c+Ny1hlGG/7eqP8A9ti//bvkfFXgH/gnb/q7v4meOvQvZaLH+nnyj+Uf419beA/A/h34b+E7DwV4UtZLfS9NVxBHJK0jZeRpHJZjkku7H05wMDiuW8fftFfBv4b+ZD4l8c2H2yPINjZt9quN390pHnYf9/aPevm7x9/wURlbzLT4Z+Bgg6Le61Jk/wDfiI8fUyH6VzOOJxe+33I+OrYbjfxD5fbRlKle6ulTprpdXteyb1956h/wUguIWuPh9arIpljTVJGTPIVjahT+JVvyNfFtdL8QfiN4w+KPiKTxR421iTUL91EakqESGMZIjjRQAqjJ4HUkk5JJrmq9fD03RpqD6H9GcH5JV4cyShllaSlKCd2tryk5O3pewUUUVufTBRRRQAUUUUAFFFFABRRRQAUUUUAFFFFABRRRQB6R4B/aK+Mnw28uHw144vzZx4AsbxvtVvt/uhJM7B/ubTX0h4B/4KIxN5dp8TPAxQ8Br3RZMj6mCU5H4SH6V8T0Vz1MNSq/FE+TzngfIc9vLF4aPM/tR92X3xtf53P1o8BftAfB/wCJXlxeFfHGny3cnAsrh/s9zn0EcmGb6rke9ehV+KteneAf2lPjT8OfLh0DxxezWUeALHUD9qg2/wB0LJkoP9wrXDUy3/n2/vPyjOfBGSvPKMT/ANu1F/7dFf8AtvzP0M8ffsy/BT4jeZNrngiztr2TJN9po+yT7v7xMeFc/wC+Gr5u8ff8E79Ut/Mu/hp43hu0GStlrEflyY9BNGCrH6oo961fAP8AwUQsJvLtPiZ4Hkt24DXujSb0z6mGQgqPpIx9q+kPAfx2+EvxKEcfhDxxp11dSdLOV/Iuc+nlSbXP1AI96wvisL3t96Plvb8ecCfHz+yXf95Tt668v3xZ8AeDPgf8WPhp8avAjeMfA+pWdtH4o0rN4kfnW3/H3H/y2j3IPoSD7V+nlFFY4jESxFnJbHzHF3GOI4wqUa2KpxhKnFr3b2d3fZ3t97PyJ+N//JaPH/8A2NGq/wDpXJXFV2vxuOfjR4+I5B8Uar/6VyVxVfQU/hR/YWUf8i+h/gj/AOkoKKKKs9EKKKKACiiigAooooAKKKKACu1+CH/JaPAH/Y0aV/6Vx1xVdr8ETj40eASeAPFGlf8ApXHUVPhZ5+bf8i+v/gl/6Sz9dq/MPxn8D/ix8S/jV47bwd4H1K8tpPFGq4vHj8m2/wCPuT/ltJtQ/QEn2r9PKK+fw+Ilh7uK3P484R4xxHB9StWwtOM5VIpe9eys77K1/vR8O+Af+Cd+qXHl3fxL8bw2iHBay0ePzJMehmkAVT9EYe9fSPgH9mX4KfDny5tD8EWdzex4IvtSH2ufd/eBkyqH/cC1qePPjt8JfhqJI/F/jjTrW6j62cT+fc59PKj3OPqQB7183+Pv+CiFhD5lp8M/A8lw3IW91mTYmfUQxklh9ZFPtW18Viu9vuR9P7fjzjv4Of2T7fu6dvXTm++TPsyvPfHv7QHwf+GvmReKvHGnxXcfBsrd/tFzn0MceWX6tge9fnL4+/aU+NPxG8yHX/HF7DZSZBsdPP2WDb/dKx4Lj/fLV5jW9PLf+fkvuPqcm8EZO083xP8A27TX/t0l/wC2/M+2PH3/AAURiXzLT4Z+Bi55C3utSYH1EERyfxkH0r5v8fftFfGT4k+ZD4l8cX4s5Mg2Nm32W32/3SkeN4/39xrzeiu6nhqVL4Ufq+TcD5DkVpYTDR5l9qXvS++V7fKwUUUV0H1gUUUUAFFFFABRRRQAUUUUAFFFFABRRRQAUUUUAFFFFABRRRQAUUUUAFFFFABSglSGUkEUlFAHqngH9p742/Dvy4dG8bXd5ZR4H2LU/wDS4do/hG/LIP8AcZa9kuv+Cinjabw7JZ2/w/0i31p4yq363UjQIx/iEBXJI6gGQj1zXyPRWE8NSm7yifLZhwTw/mlVV8VhIOSd7pct/Xltzf8Ab1ye+vrvUr241K/uHnurqV55pXOWkkYksxPqSSagoorc+oSUVyx2CiiigYUUUUAFFFFABRRRQAUUUUAFT2N9d6be2+pWFw8F1aypPDKhw0cikFWB9QQDUFFAmlJWex9cWv8AwUU8bQ+HY7O4+H+kXGtJGFa/a6kWB2H8RgC5BPUgSAemK8b8fftPfG34ieZDrPja7s7KTI+xaZ/okO0/wnZhnH++zV5XRWEMNSg7xifL5fwTw/ldV18LhIKTd7tc1vTmvy/9u2AksSTyTRRRW59SFFFFABRRRQAUUUUAFFFFABRRRQAUUUUAFFFFABRRRQAUUUUAFFFFABRRRQAUUUUAFFFFABRRRQAUUUUAFFFFABRRRQAUUUUAFFFFABRRRQAUUUUAFFFFABRRRQAUUUUAFFFFABRRRQAUUUUAFFFFABRRRQAUUUUAFFFFABRRRQAUUUUAFFFFABRRRQAUUUUAFFFFABRRRQAUUUUAFFFFABRRRQAUUUUAFFFFABRRRQAUUUUAFFFFABRRRQAUUUUAFFFFABRRRQAUUUUAFFFFABRRRQAUUUUAFFFFABRRRQAUUUUAFFFFABRRRQAUUUUAFFFFABRRRQAUUUUAFFFFABRRRQAUUUUAFFFFABRRRQAUUUUAFFFFABRRRQAUUUUAFFFFABRRRQAUUUUAFFFFABRRRQAUUUUAFFFFABRRRQAUUUUAFFFFAH//2Q==;" vertex="1" parent="1">
          <mxGeometry x="190" y="160" width="120" height="120" as="geometry" />
        </mxCell>
        <mxCell id="rL4voDa9CR3dqEQPnQwp-6" value="" style="shape=image;verticalLabelPosition=bottom;labelBackgroundColor=default;verticalAlign=top;aspect=fixed;imageAspect=0;image=data:image/jpeg,/9j/4AAQSkZJRgABAQEAYABgAAD/2wBDAAMCAgICAgMCAgIDAwMDBAYEBAQEBAgGBgUGCQgKCgkICQkKDA8MCgsOCwkJDRENDg8QEBEQCgwSExIQEw8QEBD/2wBDAQMDAwQDBAgEBAgQCwkLEBAQEBAQEBAQEBAQEBAQEBAQEBAQEBAQEBAQEBAQEBAQEBAQEBAQEBAQEBAQEBAQEBD/wAARCAGQAZADASIAAhEBAxEB/8QAHwAAAQUBAQEBAQEAAAAAAAAAAAECAwQFBgcICQoL/8QAtRAAAgEDAwIEAwUFBAQAAAF9AQIDAAQRBRIhMUEGE1FhByJxFDKBkaEII0KxwRVS0fAkM2JyggkKFhcYGRolJicoKSo0NTY3ODk6Q0RFRkdISUpTVFVWV1hZWmNkZWZnaGlqc3R1dnd4eXqDhIWGh4iJipKTlJWWl5iZmqKjpKWmp6ipqrKztLW2t7i5usLDxMXGx8jJytLT1NXW19jZ2uHi4+Tl5ufo6erx8vP09fb3+Pn6/8QAHwEAAwEBAQEBAQEBAQAAAAAAAAECAwQFBgcICQoL/8QAtREAAgECBAQDBAcFBAQAAQJ3AAECAxEEBSExBhJBUQdhcRMiMoEIFEKRobHBCSMzUvAVYnLRChYkNOEl8RcYGRomJygpKjU2Nzg5OkNERUZHSElKU1RVVldYWVpjZGVmZ2hpanN0dXZ3eHl6goOEhYaHiImKkpOUlZaXmJmaoqOkpaanqKmqsrO0tba3uLm6wsPExcbHyMnK0tPU1dbX2Nna4uPk5ebn6Onq8vP09fb3+Pn6/9oADAMBAAIRAxEAPwDgqKKK+SP7dCiiigAooooAKKKKACiiigAooooAKKKKACiiigAooooAKKKKACiiigAooooAKKKKACiiigAooooAKKKKACiiigAooooAKKKKACiiigAooooAKKKKACiiigAooooAKKKKACiiigAooooAKKKKACiiigAooooAKKKKACiiigAooooAKKKKACiiigAooooAKKKKACiiigAooooAKKKKACiiigAooooAKKKKACiiigAooooAKKKKACiiigAooooAKKKKACiiigAooooAKKKKACiiigAooooAKKKKACiiigAooooAKKKKACiiigAooooAKKKKACiiigAooooAKKKKACiiigAooooAKKKKACiiigAooooAKKKKACiiigAooooAKKKKACiiigAooooAKKKKACiiigAooooAKKKKACiiigAooooAKKKKACiiigAooooAKKKKACiiigAooooAKKKKACiiigAooooAKKKKACiiigAooooAKKKKACiiigAooooAKKKKACiiigAooooAKKKKACiiigAooooAKKKKACiiigAooooAKKKKACiiigAooooAKKKKACiiigAooooAKKKKACiiigAooooAKKKKACiiigAooooAKKKKACiiigAooooAKKKKACiiigAooooAKKKKACiiigAooooAKKKKACiiigAooqazs7zULqKx0+1mubmdgkUMMZd3Y9Aqjkn2FANqKuyGiuxX4M/GFgGX4UeMSDyCNCuuf/HKX/hS/wAYv+iT+Mv/AAQ3X/xFX7OfZnF/aeB/5/Q/8CX+ZxtFdl/wpf4xf9En8Zf+CG6/+Io/4Uv8Yv8Aok/jL/wQ3X/xFHs59mH9p4H/AJ/Q/wDAl/mcbRXZf8KX+MX/AESfxl/4Ibr/AOIo/wCFL/GL/ok/jL/wQ3X/AMRR7OfZh/aeB/5/Q/8AAl/mcbRXZf8ACl/jF/0Sfxl/4Ibr/wCIo/4Uv8Yv+iT+Mv8AwQ3X/wARR7OfZh/aeB/5/Q/8CX+ZxtFdl/wpf4xf9En8Zf8Aghuv/iKP+FL/ABi/6JP4y/8ABDdf/EUezn2Yf2ngf+f0P/Al/mcbRXZf8KX+MX/RJ/GX/ghuv/iKP+FL/GL/AKJP4y/8EN1/8RR7OfZh/aeB/wCf0P8AwJf5nG0V2X/Cl/jF/wBEn8Zf+CG6/wDiKP8AhS/xi/6JP4y/8EN1/wDEUezn2Yf2ngf+f0P/AAJf5nG0V2X/AApf4xf9En8Zf+CG6/8AiKP+FL/GL/ok/jL/AMEN1/8AEUezn2Yf2ngf+f0P/Al/mcbRXZf8KX+MX/RJ/GX/AIIbr/4ij/hS/wAYv+iT+Mv/AAQ3X/xFHs59mH9p4H/n9D/wJf5nG0V2X/Cl/jF/0Sfxl/4Ibr/4ij/hS/xi/wCiT+Mv/BDdf/EUezn2Yf2ngf8An9D/AMCX+ZxtFdl/wpf4xf8ARJ/GX/ghuv8A4ij/AIUv8Yv+iT+Mv/BDdf8AxFHs59mH9p4H/n9D/wACX+ZxtFdl/wAKX+MX/RJ/GX/ghuv/AIij/hS/xi/6JP4y/wDBDdf/ABFHs59mH9p4H/n9D/wJf5nG0V2X/Cl/jF/0Sfxl/wCCG6/+Io/4Uv8AGL/ok/jL/wAEN1/8RR7OfZh/aeB/5/Q/8CX+ZxtFdl/wpf4xf9En8Zf+CG6/+Io/4Uv8Yv8Aok/jL/wQ3X/xFHs59mH9p4H/AJ/Q/wDAl/mcbRXZf8KX+MX/AESfxl/4Ibr/AOIo/wCFL/GL/ok/jL/wQ3X/AMRR7OfZh/aeB/5/Q/8AAl/mcbRXZf8ACl/jF/0Sfxl/4Ibr/wCIo/4Uv8Yv+iT+Mv8AwQ3X/wARR7OfZh/aeB/5/Q/8CX+ZxtFdl/wpf4xf9En8Zf8Aghuv/iKRvgz8YVBZvhR4xAHJJ0K64/8AHKXs59g/tPA/8/of+BL/ADOOoqa8s7zT7qWx1C1mtrmBiksM0ZR0YdQynkH2NQ1J2pqSugooooAKKKKACiiigAooooAKKKKACiiigAr63/4J86Dpd5rvjDxHc2qSX2mW9lb2sjLkxLOZjJt9CfJUZ9Mjua+SK+yP+Cd//NQP+4V/7d114FXxEf66HxXiJOVPhnFOLt8K++cU/vWh9kUV5P8AtUa1rHh34C+J9Y8P6te6Zf2/2LybqznaGaPdeQK210IYZUkHB5BI71+fP/C6PjF/0Vjxl/4Prr/4uvWxGMjh5crVz8U4W4DxHFGDljKNaMFGTjZpvZRd9P8AEfq9RX5Q/wDC6PjF/wBFY8Zf+D66/wDi6P8AhdHxi/6Kx4y/8H11/wDF1z/2pD+Vn0n/ABB/Hf8AQTD7mfq9RX5Q/wDC6PjF/wBFY8Zf+D66/wDi6P8AhdHxi/6Kx4y/8H11/wDF0f2pD+Vh/wAQfx3/AEEw+5n6vUV+UP8Awuj4xf8ARWPGX/g+uv8A4uj/AIXR8Yv+iseMv/B9df8AxdH9qQ/lYf8AEH8d/wBBMPuZ+r1FflD/AMLo+MX/AEVjxl/4Prr/AOLo/wCF0fGL/orHjL/wfXX/AMXR/akP5WH/ABB/Hf8AQTD7mfq9RX5Q/wDC6PjF/wBFY8Zf+D66/wDi6P8AhdHxi/6Kx4y/8H11/wDF0f2pD+Vh/wAQfx3/AEEw+5n6vUV+UP8Awuj4xf8ARWPGX/g+uv8A4uj/AIXR8Yv+iseMv/B9df8AxdH9qQ/lYf8AEH8d/wBBMPuZ+r1FflD/AMLo+MX/AEVjxl/4Prr/AOLo/wCF0fGL/orHjL/wfXX/AMXR/akP5WH/ABB/Hf8AQTD7mfq9RX5Q/wDC6PjF/wBFY8Zf+D66/wDi6P8AhdHxi/6Kx4y/8H11/wDF0f2pD+Vh/wAQfx3/AEEw+5n6vUV+UP8Awuj4xf8ARWPGX/g+uv8A4uj/AIXR8Yv+iseMv/B9df8AxdH9qQ/lYf8AEH8d/wBBMPuZ+r1FflD/AMLo+MX/AEVjxl/4Prr/AOLo/wCF0fGL/orHjL/wfXX/AMXR/akP5WH/ABB/Hf8AQTD7mfq9RX5Q/wDC6PjF/wBFY8Zf+D66/wDi6P8AhdHxi/6Kx4y/8H11/wDF0f2pD+Vh/wAQfx3/AEEw+5n6vUV+UP8Awuj4xf8ARWPGX/g+uv8A4uj/AIXR8Yv+iseMv/B9df8AxdH9qQ/lYf8AEH8d/wBBMPuZ+r1FflD/AMLo+MX/AEVjxl/4Prr/AOLo/wCF0fGL/orHjL/wfXX/AMXR/akP5WH/ABB/Hf8AQTD7mfq9RX5Q/wDC6PjF/wBFY8Zf+D66/wDi6P8AhdHxi/6Kx4y/8H11/wDF0f2pD+Vh/wAQfx3/AEEw+5n6vUV+UP8Awuj4xf8ARWPGX/g+uv8A4uj/AIXR8Yv+iseMv/B9df8AxdH9qQ/lYf8AEH8d/wBBMPuZ+r1FflD/AMLo+MX/AEVjxl/4Prr/AOLr9Bv2V9a1jxF8BfDGseINWvdTv7j7b511eTtNNJtvJ1Xc7kscKABk8AAdq6MPjI4iXKlY+b4p4DxHC+DjjK1aM1KSjZJrdSd9f8J8/f8ABQbQdLs9d8H+I7a1SO+1O3vbe6kVcGVYDCY93qR5zDPpgdhXyRX2R/wUQ/5p/wD9xX/20r43ryccrYiX9dD9r8O5yqcM4Vyd37y+6ckvuWgUUUVyH2oUUUUAFFFFABRRRQAUUUUAFFFFABX2R/wTv/5qB/3Cv/buvjevsj/gnf8A81A/7hX/ALd114D/AHiPz/JnxHiP/wAkzif+3P8A05A9k/bA/wCTdfFv/bh/6XW9fmnX6Wftgf8AJuvi3/tw/wDS63r8062zP+MvT9WeH4Rf8iSr/wBfZf8ApEAooorzj9TCiiigAooVWZgqqSTwAO9eveA/2UvjV49jjvLbwv8A2PZS4K3Wrv8AZlIPcIQZCPcJj3qoU5VHaKucWOzLB5ZT9rjKsYR7yaX3d/keQ0V9h6H/AME9rlo1k8SfEyKN/wCKKx00uPwkdx/6BXQf8O+/BPl4/wCFga3v9fs8OPy/+vXUsBXf2T5Kr4k8N0pcvt2/SMv8j4cor7D1z/gntdLG0nhv4mRSP/DFfaaUH4yI5/8AQK8a8efsp/GrwFHJd3Phc6vZRZLXWkP9pUAdygAkA9ymKznhK1PWUT0sv40yHM5KGHxMeZ9JXi//ACZK/wAjyGihlZWKspBHBB7UVzn1AUUUUAFFFFABRRRQAUUUUAFFFFABRRRQAUUUUAFFFFABRRRQAV+ln7H/APybr4S/7f8A/wBLrivzTr9LP2P/APk3Xwl/2/8A/pdcV6OWfxn6fqj8s8Xf+RJS/wCvsf8A0iZ43/wUQ/5p/wD9xX/20r43r7I/4KIf80//AO4r/wC2lfG9Y4//AHiXy/JHueHH/JM4b/t//wBOTCiiiuQ+3CiiigAooooAKKKKACiiigAooooAK+yP+Cd//NQP+4V/7d18b19kf8E7/wDmoH/cK/8AbuuvAf7xH5/kz4jxH/5JnE/9uf8ApyB7J+2B/wAm6+Lf+3D/ANLrevzTr9LP2wP+TdfFv/bh/wCl1vX5p1tmf8Zen6s8Pwi/5ElX/r7L/wBIgFFFFecfqYV1vwx+F/i74teJovDPhGx82U/PcXEmRDaxZwZJG7D2HJPABNc/ouj6l4i1iy0HR7Vrm+1G4jtbeFeryOwVR+Zr9RPgn8ItD+Dfgm28N6bHHLfSATanehfmurjHJz12L0Udh7kk9eEw31iWuyPieN+Lo8L4RKklKvO/Knsu8n5Lour+ZgfBr9mX4efCG3hvYrNNY8QKoMmq3cYLK3/TFDkRD3HzerGvW5pobaF7i4mSKKNSzu7BVUDqSTwBXlXx4/aG8K/BLSxHcKupeIbuPdZaWj4JHTzZT/BHkH3YggdCR8BfEz43fEf4sX0lx4s8QTNaFsx6bbsY7SEdsRg4JH95st716dXE0sIvZwWvY/Icn4Rzrjio8xx1Vxg/ty1b/wAMdNF8o9j9A/Ev7T3wK8KyGHUPiJp9zKDjy9PD3nPpmFWUfiRXK/8ADbnwH87yv7S1fb/z0/s19v8APP6V+ddFcTzOq9kj9CoeEmSwjarUqSfe8V+HL+rP0+8NftO/ArxU4h0/4iafbSk48vUA9nz6ZmVVP4GvT4ZobiFLi3mSWKRQyOjBlYHoQRwRX45V3fwz+N3xI+E99HceE/EEy2gbMmm3DGW0lHfMZOAT/eXDe9a08zd/3i+48bNvCGnyOeV13zfyztr/ANvJK3/gLPvf4yfsy/Dz4vW817JZpo3iBlJj1W0jAZm/6bIMCUe5+b0YV+fXxO+F/i74S+JpfDPi6x8qUfPb3EeTDdRZwJI27j1B5B4IBr9CvgP+0P4V+NulmO3VdN8Q2ke690t3ydvA82I/xx5I91JAPUE7Xxr+EWh/GTwTc+GtSSOK+jBm029K/Na3GODnrsbow7j3AI2r4anioe0pb/meBw3xbmfB+O/srOE/ZJ2alq4ecX1j5K6a1j5/ldRV3WtG1Lw7rF7oOsWrW19p1xJa3ELdUkRirD35HWqVeG9D+iYTjOKlF3TCiiigYUUUUAFFFFABRRRQAUUUUAFFFFABRRRQAUUUUAFfpZ+x/wD8m6+Ev+3/AP8AS64r806/Sz9j/wD5N18Jf9v/AP6XXFejln8Z+n6o/LPF3/kSUv8Ar7H/ANImeN/8FEP+af8A/cV/9tK+N6+yP+CiH/NP/wDuK/8AtpXxvWOP/wB4l8vyR7nhx/yTOG/7f/8ATkwooorkPtwooooAKKKKACiiigAooooAKKKKACvsj/gnf/zUD/uFf+3dfG9fZH/BO/8A5qB/3Cv/AG7rrwH+8R+f5M+I8R/+SZxP/bn/AKcgeyftgf8AJuvi3/tw/wDS63r806/Sz9sD/k3Xxb/24f8Apdb1+adbZn/GXp+rPD8Iv+RJV/6+y/8ASIBRRRXnH6mfR37C3g2DxB8WLrxJeQh4vDmntNFkZAuJT5aH8EMpHuBX3R408U2Pgjwjq/i7UgWttIs5bt1BwX2KSEHuxwo9yK+T/wDgnhGpk8fSY+ZV0tQfY/as/wAhXtP7XcskP7O/i5o2KkrZL+DXsAP6E17uEfs8LzrzZ/OfGsXm3GkcDWfu81Kn8pcrf4yZ+dXjLxdrnjzxPqPi7xFdG4v9SmM0jdlHRUUdlUYUDsAKxaKK8Jtt3Z/RNKlChTjSpq0YqyS2SWyCiiigsKKKKANnwb4u1zwH4n07xb4dujb3+mzCaNuzf3kYd1YZUjuCa/VzwV4qsfHHhHR/F2mgrbavZxXaITkx7lBKH3U5U+4NfkVX6XfshySTfs7+EWkYsQt6v4C9nA/QCvUyyb55Q6bn494v5fRlgqGPt76nyX7pqUvwcdPVnzB+3V4Ng0D4sWviSzhCR+I9PWabAwDcRHy3P/fHlH6k184V9jf8FD0USeAZMfMw1RSfYfZcfzNfHNcmNjy15JH2XAWJni+HMLUqO7ScflGUor8EgooormPrwooooAKKKKACiiigAooooAKKKKACiiigAooooAK/Sz9j/wD5N18Jf9v/AP6XXFfmnX6Wfsf/APJuvhL/ALf/AP0uuK9HLP4z9P1R+WeLv/Ikpf8AX2P/AKRM8b/4KIf80/8A+4r/AO2lfG9fZH/BRD/mn/8A3Ff/AG0r43rHH/7xL5fkj3PDj/kmcN/2/wD+nJhRRRXIfbhRRRQAUUUUAFFFFABRRRQAUUUUAFfZH/BO/wD5qB/3Cv8A27r43r7I/wCCd/8AzUD/ALhX/t3XXgP94j8/yZ8R4j/8kzif+3P/AE5A9k/bA/5N18W/9uH/AKXW9fmnX6Wftgf8m6+Lf+3D/wBLrevzTrbM/wCMvT9WeH4Rf8iSr/19l/6RAKKKK84/Uz7H/wCCd/8AzP8A/wBwr/27r2X9sD/k3Xxb/wBuH/pdb141/wAE7/8Amf8A/uFf+3dey/tgf8m6+Lf+3D/0ut69yh/uXyf6n868Q/8AJwof9faH5Uz806KKK8M/ooKKKKACiiigAr9LP2P/APk3Xwl/2/8A/pdcV+adfpZ+x/8A8m6+Ev8At/8A/S64r0cs/jP0/VH5Z4u/8iSl/wBfY/8ApEzxv/goh/zT/wD7iv8A7aV8b19kf8FEP+af/wDcV/8AbSvjescf/vEvl+SPc8OP+SZw3/b/AP6cmFFFFch9uFFFfS37Gfwf+HXxX/4TD/hP/Dv9qf2X/Z/2T/S54PL837Rv/wBU65z5adc4xx1NaUqUq01CO7PLzvN6GQ4GpmGJTcIWuo2b1ko6XaW77nzTRX6Wf8Mf/s6/9E7/APKtff8Ax6j/AIY//Z1/6J3/AOVa+/8Aj1dv9mVu6/H/ACPgP+Iu5J/z6q/+Aw/+TPzTor9LP+GP/wBnX/onf/lWvv8A49R/wx/+zr/0Tv8A8q19/wDHqP7Mrd1+P+Qf8RdyT/n1V/8AAYf/ACZ+adFfpZ/wx/8As6/9E7/8q19/8eo/4Y//AGdf+id/+Va+/wDj1H9mVu6/H/IP+Iu5J/z6q/8AgMP/AJM/NOivcP2vPhv4L+F/xK03w/4F0X+zLC40OG8kh+0SzbpmuLhC26VmYfLGgwDjjpya8PrhqU3Sk4S6H6JleY0s3wdPHUE1Gaur7/Oza/EKKK+lv2M/g/8ADr4r/wDCYf8ACf8Ah3+1P7L/ALP+yf6XPB5fm/aN/wDqnXOfLTrnGOOpp0qUq01CO7Ms7zehkOBqZhiU3CFrqNm9ZKOl2lu+5800V9w/tIfs3/BfwD8F/EXizwn4N+w6rY/ZPs9x/aN3Ls33cMbfLJKynKuw5B6+tfD1VXoSw8uWRycOcR4XifCyxeEjKMYycfeSTukn0b01XUK/Sz9j/wD5N18Jf9v/AP6XXFfmnX6Wfsf/APJuvhL/ALf/AP0uuK68s/jP0/VHxfi7/wAiSl/19j/6RM8b/wCCiH/NP/8AuK/+2lfG9fZH/BRD/mn/AP3Ff/bSvjescf8A7xL5fkj3PDj/AJJnDf8Ab/8A6cmFFFFch9uFFFFABRRRQAUUUUAFFFFABRRRQAV9kf8ABO//AJqB/wBwr/27r43r7I/4J3/81A/7hX/t3XXgP94j8/yZ8R4j/wDJM4n/ALc/9OQPZP2wP+TdfFv/AG4f+l1vX5p1+ln7YH/Juvi3/tw/9LrevzTrbM/4y9P1Z4fhF/yJKv8A19l/6RAKKtaVpWp65qNvo+jafcXt9dyCKC3t4y8kjHoFUck16vF+yH+0RNGsqfDtwrDI3apZKfxBmBH41wxpzn8KbP0TGZrgcuajjK8Kbe3NKMb+l2j2f/gnf/zUD/uFf+3deyftgf8AJuvi3/tw/wDS63rjf2M/g/8AEX4Uf8Jh/wAJ94d/sv8AtT+z/sn+lwT+Z5X2jf8A6p2xjzE64znjoa9L/aQ8H+IvH3wX8ReE/CenfbtVvvsn2e386OLfsu4ZG+aRlUYVGPJ7ete3RhJYPla1s/1P56zzHYWtxzHF06kXS9rRfMpJxslTu+bays766WPy6or2P/hkD9or/onZ/wDBtY//AB6j/hkD9or/AKJ2f/BtY/8Ax6vG+r1v5X9zP3n/AFmyT/oMpf8AgyH+Z45RXsf/AAyD+0V/0Ts/+Dax/wDj1H/DIP7RX/ROz/4NrH/49R9Xrfyv7mH+s2Sf9BlL/wAGQ/zPHKK9i/4ZB/aK/wCidn/wa2P/AMeo/wCGQf2iv+idn/wa2P8A8eo+r1v5X9zD/WbJP+gyl/4Mh/meO1+ln7H/APybr4S/7f8A/wBLrivjX/hkH9or/onZ/wDBrY//AB6vuL9m7wf4i8BfBfw74T8Wad9g1Wx+1/aLfzUk2b7uaRfmjZlOVdTwe/rXfl1KpCq3KLWnb0PzbxRzjLswyenSwmIhUkqsXaMoyduWetk3pqjwP/goh/zT/wD7iv8A7aV8b198/tm/CH4ifFb/AIQ//hAfDp1X+y/7Q+1/6VBD5fmfZ9n+tdc58t+mcY56ivmWX9kf9oeGNpX+HUhVRk7dSs2P4ATEn8KyxtGpKvKUYtrTp5Hs8AZ5leE4ew9DEYmnCa57xlOKavUk1o3fY8goq1qmlanoeo3Gkazp9xZXtpIYp7e4jKSRsOoZTyDVWuDY/SoyjOKlF3TCvZP2d/2iP+FCf8JB/wAUf/bv9u/ZP+Yh9l8nyfN/6ZPuz5vtjb3zx43RV06kqUuaO5x5lluFzfCyweMjzU5WurtbNNapp7pdT7I/4eIf9Uf/APLg/wDuaj/h4h/1R/8A8uD/AO5q+N6K6Pr+I/m/Bf5Hyv8AxDjhn/oG/wDJ6n/yZ9kf8PEP+qP/APlwf/c1H/DxD/qj/wD5cH/3NXxvRR9fxH834L/IP+IccM/9A3/k9T/5M+yP+HiH/VH/APy4P/uaj/h4h/1R/wD8uD/7mr43oo+v4j+b8F/kH/EOOGf+gb/yep/8mel/H74zf8Ly8Y2fiz/hG/7E+yaZHp32f7Z9p3bZZZN+7YmM+bjGP4evPHmlFFc05yqS5pbs+twOCoZdh4YXCx5YQVkrt2Xq7sK9k/Z3/aI/4UJ/wkH/ABR/9u/279k/5iH2XyfJ83/pk+7Pm+2NvfPHjdFOnUlSlzR3IzLLcLm+Flg8ZHmpytdXa2aa1TT3S6n0t8YP2zP+Fr/DnV/AH/Ct/wCy/wC1PI/0v+2PP8vyp45fueQuc+Xj7wxnPbFfNNFFOrWnWlzTd2YZRkmByGg8Nl9Pkg3zNXk9Wkr+829kgr9LP2P/APk3Xwl/2/8A/pdcV+adfpZ+x/8A8m6+Ev8At/8A/S64rtyz+M/T9UfAeLv/ACJKX/X2P/pEzxv/AIKIf80//wC4r/7aV8b19kf8FEP+af8A/cV/9tK+N6xx/wDvEvl+SPc8OP8AkmcN/wBv/wDpyYUUUVyH24UUUUAFFFFABRRRQAUUUUAFFFFABX2R/wAE7/8AmoH/AHCv/buvjevsj/gnf/zUD/uFf+3ddeA/3iPz/JnxHiP/AMkzif8Atz/05A9k/bA/5N18W/8Abh/6XW9fmnX6Wftgf8m6+Lf+3D/0ut6/NOtsz/jL0/Vnh+EX/Ikq/wDX2X/pED6N/YNsbW8+NF7cXEKvJZaBczwMR9xzNBGWHodsjj/gRr9A6+BP2Bf+Sxav/wBi1cf+lVrX2V8Zv+SP+Ov+xa1P/wBJZK7MA+XD39T4LxJpPFcTxoN2vGC9L/8ADnY0V+N+5vU0u5v7xrH+1f7n4/8AAPov+IN/9Rv/AJT/APuh+x9Ffjhub+8aNzf3jR/av9z8f+AL/iDf/Ub/AOU//uh+x9Ffjhub+8aNzf3j+dH9q/3Px/4Af8Qb/wCo3/yn/wDdD9j6K/HDe394/nR5j/3m/Oj+1f7n4/8AAD/iDf8A1G/+U/8A7ofsfRX44eZJ/fb86PMk/vt+dH9q/wBz8f8AgB/xBv8A6jf/ACn/APdD9j6K/HDzJP77fnX6u/Bf/kjvgT/sWtM/9JY66cLjPrMmuW1j4/jDgf8A1ToUq3t/ac7aty8trK/80j4v/bysbWz+NFjcW8KpJe+H7aedlHMjiaeMMfU7Y0H0UV8419K/t9/8li0f/sWrf/0quq+aq8fF/wAeXqfu/BTcuH8Jf+RBRRX2R/wTv/5qB/3Cv/buooUvb1FTva528R5z/q/llXMeTn5OX3b2veSjvZ977HxvRX7IUV6P9lf3/wAP+Cfln/EZP+oL/wAqf/cz8b6K/ZCij+yv7/4f8EP+Iyf9QX/lT/7mfjfRX2R/wUQ/5p//ANxX/wBtK+N686vS9hUdO97H6nw5nP8ArBllLMeTk5+b3b3taTjvZdr7BRRX0t+wJ/yWLWP+xZuP/Sq1pUqftZqHc3zvM/7Gy+rj+Xm9mr2va/zs7fcfNNFfshRXpf2V/f8Aw/4J+S/8Rk/6gv8Ayp/9zPxvor9LP2wP+TdfFv8A24f+l1vX5p1w4nD/AFafLe5+i8I8Tf61YGWM9l7Plm425ubZRd72j/NtboFfpZ+x/wD8m6+Ev+3/AP8AS64r806/Sz9j/wD5N18Jf9v/AP6XXFdOWfxn6fqj5Xxd/wCRJS/6+x/9ImeN/wDBRD/mn/8A3Ff/AG0r43r7I/4KIf8ANP8A/uK/+2lfG9Y4/wD3iXy/JHueHH/JM4b/ALf/APTkwooorkPtwooooAKKKKACiiigAooooAKKKKACvsj/AIJ3/wDNQP8AuFf+3dfG9fZH/BO//moH/cK/9u668B/vEfn+TPiPEf8A5JnE/wDbn/pyB7J+2B/ybr4t/wC3D/0ut6/NOv0s/bA/5N18W/8Abh/6XW9fmnW2Z/xl6fqzw/CL/kSVf+vsv/SIH0r+wL/yWLWP+xauP/Sq1r7J+M3/ACR/x1/2LWp/+kslfG37An/JYtY/7Fq4/wDSq1r7J+M3/JH/AB1/2LWp/wDpLJXXgv8Adn8z4jj/AP5K6n/3D/M/KGiiivDP6KCiitDw74f1XxVr1h4b0O1Nxf6ncJa28Y/idjgZPYdyewBNCV9CZzjTi5zdktWygiPI6xxozOx2qqjJJ9AK6X/hV/xM+yf2h/wrvxP9lxnzv7IuPLx/vbMV+inwR/Z48F/BvSLd4LGDUPETxj7Zq00YaTeR8yxZH7uPsAOT/ETXq1erTyxuN5ysz8ZzTxdp0cQ6eX0OeC+1J2v6K2i7Xd/JH44Ojxu0ciMrqdrKwwQfQikr9Ovjd+zx4L+MmkXDz2MGn+IkjP2PVoYwsm8D5VlwP3kfYg8j+EivzV8ReH9V8K69f+G9ctTb3+mXD2txGf4XU4OD3HcHuCDXHicLLDPXVM+64U4wwnFVKTpR5Kkfii9fmn1XyVuq2u7w/wCGPEviy8fTvC3h7U9Zu44jM8Gn2klxIsYIBcqgJCgsoz0yw9a6D/hS/wAYv+iT+Mv/AAQ3X/xFeyfsCf8AJYtY/wCxZuP/AEqta++q6MLgo16fO3Y+Y4u8QsTw3mTwNKjGSSTu2+p+UP8Awpf4xf8ARJ/GX/ghuv8A4iv0y+Etleab8KfBmnajaTWt3a+HtOhngmjKSRSLbRhkZTyrAggg8giusor0cNhI4Ztp3uflvFXG2I4qo06Nakocjb0be6t1PgT9vv8A5LFo/wD2LVv/AOlV1XzVX0r+31/yWLSP+xat/wD0quq+aq8XF/x5H79wT/yT2E/wfqwrsvh38YPiN8KP7Q/4QHxF/Zf9qeV9r/0SCfzPK37P9ajYx5j9MZzz0FcbRWEZSg7xdmfRYnC0MZSdDEwU4PdSSadtdU9N9T2T/hsD9or/AKKJ/wCUmx/+M0f8NgftFf8ARRP/ACk2P/xmvG6K0+sVv5n97PL/ANWck/6A6X/guH+R7J/w2B+0V/0UT/yk2P8A8Zo/4bA/aK/6KJ/5SbH/AOM143RR9YrfzP72H+rOSf8AQHS/8Fw/yOy+Inxg+I3xX/s//hPvEX9qf2X5v2T/AESCDy/N2b/9Ui5z5adc4xx1NcbRRWcpSm7yd2ephsLQwdJUMNBQgtlFJJX10S031Cul8AfEjxp8L9Ym8QeBda/sy/uLZrOSb7PFNuhZkcrtlVlHzRocgZ468muaooUnF3RVehSxVN0a8VKL3TV0/VPQ9k/4bA/aK/6KJ/5SbH/4zR/w2B+0V/0UT/yk2P8A8ZrxuitPrFb+Z/ezyf8AVnJP+gOl/wCC4f5HpfjD9pD40ePvDt34T8WeMvt2lX3l/aLf+zrSLfskWRfmjiVhhkU8EdPSvNKKKiU5Td5O56ODwOFy+m6WEpRpxbvaMVFX72SWuiCv0s/Y/wD+TdfCX/b/AP8ApdcV+adfpZ+x/wD8m6+Ev+3/AP8AS64rvyz+M/T9Ufm3i7/yJKX/AF9j/wCkTPG/+CiH/NP/APuK/wDtpXxvX2R/wUQ/5p//ANxX/wBtK+N6xx/+8S+X5I9zw4/5JnDf9v8A/pyYUUUVyH24UUUUAFFFFABRRRQAUUUUAFFFFABX2R/wTv8A+agf9wr/ANu6+N6+yP8Agnf/AM1A/wC4V/7d114D/eI/P8mfEeI//JM4n/tz/wBOQPZP2wP+TdfFv/bh/wCl1vX5p1+ln7YH/Juvi3/tw/8AS63r8062zP8AjL0/Vnh+EX/Ikq/9fZf+kQPpX9gT/ksWsf8AYtXH/pVa19k/Gb/kj/jr/sWtT/8ASWSvjb9gT/ksWsf9i1cf+lVrX2T8Z/8Akj3jr/sWtT/9JZK68F/uz+Z8Rx//AMldT/7h/mflDRRRXhn9FBX0J+wzo9pqfxw+2XSqz6Vo91eQZ7SFo4cj/gMzV8916Z+zn8SLb4W/FrR/EmpSFNMmLWOoN/cglGC/0Vtjn2U1th5KNWMpbXPD4nw1bGZNiqGH+OUJJLvpt89j9LvFmtv4a8K6z4jjtTcvpWn3F8sI6ymKNnC/jtx+Nfmz/wANQfHL/hKP+Eq/4T/UfN83zPsW/wD0Lbn7nkfc2446Z9881+m8cltfWyyRvFcW9xGGVlIZJEYcEHoQQfxzXiH/AAxh8Df+Eo/4ST+ydR8rzfO/sv7X/oW7Ocbdu/bn+HfjtjHFe1i6Nary+zdj+feCs9yXJYYiObUOdySs+VS01vHXa/49dkeveE9bfxL4V0bxHJam2fVdPt75oT1iMsauV/Ddj8K+Cf25tHtNM+OH2y1VVfVdHtbyfHeQNJDk/wDAYVr9B5JLaxtmkkeK3t7eMszMQqRoo5JPQAAfhivzA/aM+JFt8Uvi1rHiTTZC+mQlbHT2/vwRDAcezNvcezCs8xklRUXuev4VYerWzyriaMbU4xlft7zXLH8L/I4Xw/4n8S+E7x9R8LeIdT0a7kiMLz6fdyW8jRkglCyEEqSqnHTKj0roP+F0fGL/AKKx4y/8H11/8XXG0V4qnJbM/fquCw1eXPVpxk+7SZ2X/C6PjF/0Vjxl/wCD66/+Lr9M/hLe3mpfCvwZqGo3U11d3Xh/Tpp55pC8ksjW0ZZ2Y8sxJJJPJJr8mq/V/wCDP/JH/Av/AGLWmf8ApLHXp5ZKUpSuz8g8WsJh8Pg8M6MFFuT2SXTyPjX9vr/ksWkf9i1b/wDpVdV81V9K/t9f8lj0j/sWrf8A9KrqvmquLF/x5ep9/wAE/wDJP4T/AAL9Qrsvh38H/iN8V/7Q/wCEB8O/2p/Zflfa/wDS4IPL83fs/wBa65z5b9M4xz1FcbX2R/wTv/5qB/3Cv/bulhqSrVVCWzN+LM3r5Dk9bMMMk5w5bKV2tZRjrZp7PueN/wDDH/7RX/RO/wDyrWP/AMeo/wCGP/2iv+id/wDlWsf/AI9X6WUV6v8AZlHu/wAP8j8X/wCIu53/AM+qX/gM/wD5M/NP/hj/APaK/wCid/8AlWsf/j1H/DH/AO0V/wBE7/8AKtY//Hq/Syij+zKPd/h/kH/EXc7/AOfVL/wGf/yZ+af/AAx/+0V/0Tv/AMq1j/8AHqP+GP8A9or/AKJ3/wCVax/+PV+llFH9mUe7/D/IP+Iu53/z6pf+Az/+TPzT/wCGP/2iv+id/wDlWsf/AI9R/wAMf/tFf9E7/wDKtY//AB6v0soo/syj3f4f5B/xF3O/+fVL/wABn/8AJn5ja1+yv8evDuj3/iDWPAn2ew0y2lvLqb+1LN/LhjUu7bVmLHCgnABJxwK8or9XvjR/yR3x3/2LOqf+kslflDXn4zDxw8ko9T9O4D4oxnFGHrVsZGMXCSS5U1ur63lIKKKK4z7wK/Sz9j//AJN18Jf9v/8A6XXFfmnX6Wfsf/8AJuvhL/t//wDS64r0cs/jP0/VH5Z4u/8AIkpf9fY/+kTPG/8Agoh/zT//ALiv/tpXxvX2R/wUQ/5p/wD9xX/20r43rHH/AO8S+X5I9zw4/wCSZw3/AG//AOnJhRRRXIfbhRRRQAUUUUAFFFFABRRRQAUUUUAFfZH/AATv/wCagf8AcK/9u6+N6+yP+Cd//NQP+4V/7d114D/eI/P8mfEeI/8AyTOJ/wC3P/TkD2T9sD/k3Xxb/wBuH/pdb1+adfpZ+2B/ybr4t/7cP/S63r8062zP+MvT9WeH4Rf8iSr/ANfZf+kQPpX9gT/ksWsf9i1cf+lVrX2T8aP+SO+Ov+xa1P8A9JZK+Nv2BP8AksWsf9i1cf8ApVa19k/Gj/kjvjv/ALFrU/8A0lkrrwX+7P5nxHH/APyV1P8A7h/mflDRRRXhn9FBRRRQB9Gfsx/tKePPCviHw98Mb7y9Y0LVNStdNgS5YiWxE0qx5icZyo3Z2MCOMArX6CV+TXwkvbPTfit4M1HUbuG1tLXxDp00880gSOKNbmMs7MeFUAEkngAV+mf/AAuj4O/9FY8G/wDg+tf/AIuvay6tem1N7H8/eKOSRpZhSrYGg7zi3LlT1d93bS/59T4t/ac/aU8eeKvEPiH4Y2Pl6PoWl6lc6bcJbMTLfCGVo8yucYU7c7FAHOCWr5zrq/i3e2epfFbxnqOnXcN1aXXiHUZoJ4ZA8csbXMhV1YcMpBBBHBBrlK8qtUlUm3J3P2jh/LcNleX0qOFpqCcU3bq2ldvq36n0t+wJ/wAli1j/ALFm4/8ASq1r76r8lPAHxI8afC/WJvEHgXWv7Mv7i2azkm+zxTboWZHK7ZVZR80aHIGeOvJrv/8AhsD9or/oon/lJsf/AIzXdhMbToU+SSZ+c8Z+H+Z8RZo8dhalNRcYr3nJPT0i1+J+llFfmn/w2B+0V/0UT/yk2P8A8Zr9B/hnrGo+IPhv4U1/WLj7Rf6lodjeXU2xV8yaS3R3baoCjLEnAAAzxXo0MXDENqKeh+YcScF4/helTrYycJKbaXK5PbXW8YnxT+31/wAlj0j/ALFq3/8ASq6r5qr6U/b6/wCSx6R/2Ldv/wClV1XzXXh4v+PL1P6F4J/5J/Cf4F+oUUUVzn1IUUUUAFFFFABRRRQAUUUUAFFFFABRRRQAV+ln7H//ACbr4S/7f/8A0uuK/NOv0s/Y/wD+TdfCX/b/AP8ApdcV6OWfxn6fqj8s8Xf+RJS/6+x/9ImeN/8ABRD/AJp//wBxX/20r43r7I/4KIf80/8A+4r/AO2lfG9Y4/8A3iXy/JHueHH/ACTOG/7f/wDTkwooorkPtwooooAKKKKACiiigAooooAKKKKACvsj/gnf/wA1A/7hX/t3XxvX2R/wTv8A+agf9wr/ANu668B/vEfn+TPiPEf/AJJnE/8Abn/pyB7J+2B/ybr4t/7cP/S63r806/Sz9sD/AJN18W/9uH/pdb1+adbZn/GXp+rPD8Iv+RJV/wCvsv8A0iB9LfsCf8li1j/sWbj/ANKrWvsj40f8kd8d/wDYs6p/6SyV8b/sCf8AJYtY/wCxZuP/AEqta+1Pido+o+Ivht4s8P6Pb+ff6nod/Z2sW9V8yaS3dEXcxCjLEDJIA7114HXDP5nw3iDOMOLYSk7Jez/M/JWivZf+GPf2iv8Aono/8G1j/wDHqP8Ahj39or/ono/8G1j/APHq8n6vW/lf3M/cP9Z8k/6DKX/gyH+Z41RXsv8Awx7+0V/0T0f+Dax/+PUn/DH37RX/AET0f+Dax/8Aj1H1et/K/uY/9Z8k/wCgyl/4Mh/meN0V7J/wx9+0V/0T0f8Ag2sf/j1H/DH37RX/AET0f+Dax/8Aj1L6vW/lf3MP9Z8k/wCgyl/4Mh/meN0V7J/wx9+0V/0T0f8Ag2sf/j1H/DH/AO0V/wBE9/8AKtY//HqPq9b+V/cw/wBZ8k/6DKX/AIMh/meN0V7J/wAMf/tFf9E9/wDKtY//AB6j/hj/APaK/wCid/8AlWsf/j1H1et/K/uYf6zZJ/0GUv8AwZD/ADPG6/V/4M/8kf8AA3/Yt6Z/6Sx18Cf8Mf8A7RX/AETv/wAq1j/8er9B/hnpGo+H/hx4U0HV7f7Pf6boljZ3UW9W8uWOBEddykqcMCMgkHtXpZdTnCUuZNH5V4q5tgMxweHjg68KjUnfllGVtOtmz4o/b6/5LHpH/Yt2/wD6VXVfNdfSn7fX/JY9I/7Fu3/9KrqvmuuDF/x5H6PwT/yT+E/wL9QooornPqQooooAKKKKACiiigAooooAKKKKACiiigAr9LP2P/8Ak3Xwl/2//wDpdcV+adfpZ+x//wAm6+Ev+3//ANLrivRyz+M/T9Uflni7/wAiSl/19j/6RM8b/wCCiH/NP/8AuK/+2lfG9fZH/BRD/mn/AP3Ff/bSvjescf8A7xL5fkj3PDj/AJJnDf8Ab/8A6cmFFFFch9uFFFFABRRRQAUUUUAFFFFABRRRQAV9kf8ABO//AJqB/wBwr/27r43r7I/4J3/81A/7hX/t3XXgP94j8/yZ8R4j/wDJM4n/ALc/9OQPZP2wP+TdfFv/AG4f+l1vX5p1+ln7YH/Juvi3/tw/9LrevzTrbM/4y9P1Z4fhF/yJKv8A19l/6RA9z/Y38eeHvAfxg+0eJr+KxtNX0ybS1uZmCxxSNJFIpdjwoJi25PGWGfWv0ZhuLe4jWa3njkjcZVkYEEexHWvxzoqMNjnh48nLc7eK/DynxNjVjo13TlZJrl5k7bP4o2/E/Y/cv94Ubl/vCvxworo/tX+5+P8AwD5f/iDf/Ub/AOU//uh+x+4eooyPUV+OFFH9q/3Px/4Af8Qb/wCo3/yn/wDdD9j80Zr8cKKP7V/ufj/wA/4g3/1G/wDlP/7ofsfmjNfjhRR/av8Ac/H/AIAf8Qb/AOo3/wAp/wD3Q/Y/NFfjhRR/av8Ac/H/AIAf8Qb/AOo3/wAp/wD3Q/ZCmSzRQRtNNIkcaDLMzYAHqSelfjlRR/av9z8f+AC8G/8AqN/8p/8A3Q9y/bI8d+H/AB58YjceGb+K+tNI02HTGuYWDRyyLJLI2xhwwBl25HGVOPWvDaKK8ypUdWbm+p+v5Vl1PKcFSwNJ3jBJXe78/mFFFFQd4UUUUAFFFFABRRRQAUUUUAFFFFABRRRQAV+ln7H/APybr4S/7f8A/wBLrivzTr9LP2P/APk3Xwl/2/8A/pdcV6OWfxn6fqj8s8Xf+RJS/wCvsf8A0iZ43/wUQ/5p/wD9xX/20r43r7I/4KIf80//AO4r/wC2lfG9Y4//AHiXy/JHueHH/JM4b/t//wBOTCiiiuQ+3CiiigAooooAKKKKACiiigAooooAK+yP+Cd//NQP+4V/7d18b19b/wDBPnX9Ls9d8YeHLm6SO+1O3sri1jZsGVYDMJNvqR5ynHpk9jXXgXbER/rofFeIkJVOGcUoq/wv7pxb+5an0D+1RouseIvgL4n0fw/pN7qd/cfYvJtbO3aaaTbeQM21EBY4UEnA4AJ7V+fP/Cl/jF/0Sfxl/wCCG6/+Ir9XqK9bEYOOIlzN2PxThbjzEcL4OWDo0YzUpOV22t1FW0/wn5Q/8KX+MX/RJ/GX/ghuv/iKP+FL/GL/AKJP4y/8EN1/8RX6vUVz/wBlw/mZ9J/xGDHf9A0PvZ+UP/Cl/jF/0Sfxl/4Ibr/4ij/hS/xi/wCiT+Mv/BDdf/EV+r1FH9lw/mYf8Rgx3/QND72flD/wpf4xf9En8Zf+CG6/+Io/4Uv8Yv8Aok/jL/wQ3X/xFfq9RR/ZcP5mH/EYMd/0DQ+9n5Q/8KX+MX/RJ/GX/ghuv/iKP+FL/GL/AKJP4y/8EN1/8RX6vUUf2XD+Zh/xGDHf9A0PvZ+UP/Cl/jF/0Sfxl/4Ibr/4ij/hS/xi/wCiT+Mv/BDdf/EV+r1FH9lw/mYf8Rgx3/QND72flD/wpf4xf9En8Zf+CG6/+Io/4Uv8Yv8Aok/jL/wQ3X/xFfq9RR/ZcP5mH/EYMd/0DQ+9n5Q/8KX+MX/RJ/GX/ghuv/iKP+FL/GL/AKJP4y/8EN1/8RX6vUUf2XD+Zh/xGDHf9A0PvZ+UP/Cl/jF/0Sfxl/4Ibr/4ij/hS/xi/wCiT+Mv/BDdf/EV+r1FH9lw/mYf8Rgx3/QND72flD/wpf4xf9En8Zf+CG6/+Io/4Uv8Yv8Aok/jL/wQ3X/xFfq9RR/ZcP5mH/EYMd/0DQ+9n5Q/8KX+MX/RJ/GX/ghuv/iKP+FL/GL/AKJP4y/8EN1/8RX6vUUf2XD+Zh/xGDHf9A0PvZ+UP/Cl/jF/0Sfxl/4Ibr/4ij/hS/xi/wCiT+Mv/BDdf/EV+r1FH9lw/mYf8Rgx3/QND72flD/wpf4xf9En8Zf+CG6/+Io/4Uv8Yv8Aok/jL/wQ3X/xFfq9RR/ZcP5mH/EYMd/0DQ+9n5Q/8KX+MX/RJ/GX/ghuv/iKP+FL/GL/AKJP4y/8EN1/8RX6vUUf2XD+Zh/xGDHf9A0PvZ+UP/Cl/jF/0Sfxl/4Ibr/4ij/hS/xi/wCiT+Mv/BDdf/EV+r1FH9lw/mYf8Rgx3/QND72flD/wpf4xf9En8Zf+CG6/+Io/4Uv8Yv8Aok/jL/wQ3X/xFfq9RR/ZcP5mH/EYMd/0DQ+9n5Q/8KX+MX/RJ/GX/ghuv/iK/Qb9lfRdY8O/AXwxo/iDSb3TL+3+2+da3lu0M0e68nZdyOAwypBGRyCD3r1iiujD4OOHlzJ3Pm+KePMRxRg44OtRjBRkpXTb2UlbX/EfG/8AwUQ/5p//ANxX/wBtK+N6+t/+Cg2v6Xea74P8OW10kl9plve3F1GrZMSzmER7vQnyWOPTB7ivkivJxzviJf10P2vw7hKnwzhVJWfvP75ya+9ahRRRXIfahRRRQAUUUUAFFFFABRRRQAUUUUAFTWd5eafdRX2n3U1tcwMHimhkKOjDoVYcg+4qGigGlJWZ2K/Gf4wqAq/FfxiAOABrt1x/4/S/8Lo+MX/RWPGX/g+uv/i642ir9pPuzi/szA/8+Yf+Ar/I7L/hdHxi/wCiseMv/B9df/F0f8Lo+MX/AEVjxl/4Prr/AOLrjaKPaT7sP7MwP/PmH/gK/wAjsv8AhdHxi/6Kx4y/8H11/wDF0f8AC6PjF/0Vjxl/4Prr/wCLrjaKPaT7sP7MwP8Az5h/4Cv8jsv+F0fGL/orHjL/AMH11/8AF0f8Lo+MX/RWPGX/AIPrr/4uuNoo9pPuw/szA/8APmH/AICv8jsv+F0fGL/orHjL/wAH11/8XR/wuj4xf9FY8Zf+D66/+LrjaKPaT7sP7MwP/PmH/gK/yOy/4XR8Yv8AorHjL/wfXX/xdH/C6PjF/wBFY8Zf+D66/wDi642ij2k+7D+zMD/z5h/4Cv8AI7L/AIXR8Yv+iseMv/B9df8AxdH/AAuj4xf9FY8Zf+D66/8Ai642ij2k+7D+zMD/AM+Yf+Ar/I7L/hdHxi/6Kx4y/wDB9df/ABdH/C6PjF/0Vjxl/wCD66/+LrjaKPaT7sP7MwP/AD5h/wCAr/I7L/hdHxi/6Kx4y/8AB9df/F0f8Lo+MX/RWPGX/g+uv/i642ij2k+7D+zMD/z5h/4Cv8jsv+F0fGL/AKKx4y/8H11/8XR/wuj4xf8ARWPGX/g+uv8A4uuNoo9pPuw/szA/8+Yf+Ar/ACOy/wCF0fGL/orHjL/wfXX/AMXR/wALo+MX/RWPGX/g+uv/AIuuNoo9pPuw/szA/wDPmH/gK/yOy/4XR8Yv+iseMv8AwfXX/wAXR/wuj4xf9FY8Zf8Ag+uv/i642ij2k+7D+zMD/wA+Yf8AgK/yOy/4XR8Yv+iseMv/AAfXX/xdH/C6PjF/0Vjxl/4Prr/4uuNoo9pPuw/szA/8+Yf+Ar/I7L/hdHxi/wCiseMv/B9df/F0f8Lo+MX/AEVjxl/4Prr/AOLrjaKPaT7sP7MwP/PmH/gK/wAjsv8AhdHxi/6Kx4y/8H11/wDF0f8AC6PjF/0Vjxl/4Prr/wCLrjaKPaT7sP7MwP8Az5h/4Cv8jsv+F0fGL/orHjL/AMH11/8AF0f8Lo+MX/RWPGX/AIPrr/4uuNoo9pPuw/szA/8APmH/AICv8jsv+F0fGL/orHjL/wAH11/8XSN8Z/jCwKt8V/GJB4IOu3XP/j9cdRS9pPuH9mYH/nzD/wABX+RNeXl5qF1LfahdTXNzOxeWaaQu7sepZjyT7moaKKk7UlFWQUUUUAFFFFABRRRQAUUUUAFFFFABRRRQAUUUUAFFFFABRRRQAUUUUAFFFFABRRRQAUUUUAFFFFABRRRQAUUUUAFFFFABRRRQAUUUUAFFFFABRRRQAUUUUAFFFFABRRRQAUUUUAFFFFABRRRQAUUUUAFFFFABRRRQAUUUUAFFFFABRRRQAUUUUAFFFFABRRRQAUUUUAFFFFABRRRQAUUUUAFFFFABRRRQAUUUUAFFFFABRRRQAUUUUAFFFFABRRRQAUUUUAFFFFABRRRQAUUUUAFFFFABRRRQAUUUUAFFFFABRRRQAUUUUAFFFFABRRRQAUUUUAFFFFABRRRQAUUUUAFFFFABRRRQAUUUUAFFFFABRRRQAUUUUAFFFFABRRRQAUUUUAFFFFABRRRQAUUUUAFFFFABRRRQAUUUUAFFFFABRRRQAUUUUAFFFFABRRRQAUUUUAFFFFABRRRQAUUUUAFFFFABRRRQAUUUUAFFFFABRRRQAUUUUAFFFFABRRRQAUUUUAFFFFABRRRQAUUUUAFFFFABRRRQAUUUUAFFFFABRRRQAUUUUAFFFFABRRRQAUUUUAFFFFABRRRQAUUUUAFFFFABRRRQAUUUUAFFFFABRRRQAUUUUAFFFFABRRRQAUUUUAFFFFABRRRQAUUUUAFFFFABRRRQAUUUUAFFFFAH/9k=;" vertex="1" parent="1">
          <mxGeometry x="365" y="360" width="120" height="120" as="geometry" />
        </mxCell>
        <mxCell id="rL4voDa9CR3dqEQPnQwp-9" style="edgeStyle=orthogonalEdgeStyle;rounded=0;orthogonalLoop=1;jettySize=auto;html=1;entryX=0;entryY=0.5;entryDx=0;entryDy=0;" edge="1" parent="1" target="rL4voDa9CR3dqEQPnQwp-3">
          <mxGeometry relative="1" as="geometry">
            <mxPoint x="-120" y="215.00000000000023" as="sourcePoint" />
          </mxGeometry>
        </mxCell>
        <mxCell id="rL4voDa9CR3dqEQPnQwp-13" value="" style="endArrow=none;html=1;rounded=0;exitX=0.5;exitY=0;exitDx=0;exitDy=0;entryX=0.5;entryY=1;entryDx=0;entryDy=0;" edge="1" parent="1" source="rL4voDa9CR3dqEQPnQwp-6" target="rL4voDa9CR3dqEQPnQwp-1">
          <mxGeometry width="50" height="50" relative="1" as="geometry">
            <mxPoint x="40" y="350" as="sourcePoint" />
            <mxPoint x="90" y="300" as="targetPoint" />
          </mxGeometry>
        </mxCell>
        <mxCell id="rL4voDa9CR3dqEQPnQwp-14" value="Amplify" style="text;html=1;align=center;verticalAlign=middle;whiteSpace=wrap;rounded=0;" vertex="1" parent="1">
          <mxGeometry x="50" y="290" width="70" height="30" as="geometry" />
        </mxCell>
        <mxCell id="rL4voDa9CR3dqEQPnQwp-15" value="API Gateway" style="text;html=1;align=center;verticalAlign=middle;whiteSpace=wrap;rounded=0;" vertex="1" parent="1">
          <mxGeometry x="200" y="290" width="80" height="30" as="geometry" />
        </mxCell>
        <mxCell id="rL4voDa9CR3dqEQPnQwp-16" value="Lambda" style="text;html=1;align=center;verticalAlign=middle;whiteSpace=wrap;rounded=0;" vertex="1" parent="1">
          <mxGeometry x="365" y="290" width="60" height="30" as="geometry" />
        </mxCell>
        <mxCell id="rL4voDa9CR3dqEQPnQwp-17" value="IAM" style="text;html=1;align=center;verticalAlign=middle;whiteSpace=wrap;rounded=0;" vertex="1" parent="1">
          <mxGeometry x="390" y="490" width="60" height="30" as="geometry" />
        </mxCell>
        <mxCell id="rL4voDa9CR3dqEQPnQwp-18" value="DynamoDB" style="text;html=1;align=center;verticalAlign=middle;whiteSpace=wrap;rounded=0;" vertex="1" parent="1">
          <mxGeometry x="610" y="290" width="70" height="30" as="geometry" />
        </mxCell>
        <mxCell id="rL4voDa9CR3dqEQPnQwp-19" value="Cognito" style="text;html=1;align=center;verticalAlign=middle;whiteSpace=wrap;rounded=0;" vertex="1" parent="1">
          <mxGeometry x="45" y="-40" width="60" height="30" as="geometry" />
        </mxCell>
        <mxCell id="rL4voDa9CR3dqEQPnQwp-24" value="" style="shape=actor;whiteSpace=wrap;html=1;" vertex="1" parent="1">
          <mxGeometry x="-190" y="180" width="60" height="70" as="geometry" />
        </mxCell>
        <mxCell id="rL4voDa9CR3dqEQPnQwp-25" value="Client" style="text;html=1;align=center;verticalAlign=middle;resizable=0;points=[];autosize=1;strokeColor=none;fillColor=none;" vertex="1" parent="1">
          <mxGeometry x="-185" y="258" width="50" height="30" as="geometry" />
        </mxCell>
      </root>
    </mxGraphModel>
  </diagram>
</mxfile>
